<?xml version="1.0" encoding="utf-8"?>
<!-- Generator: Adobe Illustrator 28.2.0, SVG Export Plug-In . SVG Version: 6.00 Build 0)  -->
<svg version="1.1" id="Layer_1" xmlns="http://www.w3.org/2000/svg" xmlns:xlink="http://www.w3.org/1999/xlink" x="0px" y="0px"
	 viewBox="0 0 16 16" style="enable-background:new 0 0 16 16;" xml:space="preserve">
<style type="text/css">
	.st0{fill:#3A3A3A;}
</style>
<path class="st0" d="M14.8,6.4C15.4,6.7,16,7.2,16,8c0,0.8-0.6,1.3-1.2,1.6C14.3,9.9,13.6,10,13,10H9.3l-2.6,5.2
	C6.5,15.7,6,16,5.4,16H4c-0.3,0-0.5-0.2-0.5-0.5c0,0,0-0.1,0-0.1l0.9-5.5L2.2,9.5l-1.3,1.3c-0.2,0.2-0.5,0.2-0.7,0
	C0.1,10.8,0,10.6,0,10.5v-5C0,5.2,0.2,5,0.5,5c0.1,0,0.3,0.1,0.4,0.1l1.3,1.3l2.3-0.4L3.5,0.6c0-0.3,0.1-0.5,0.4-0.6C3.9,0,4,0,4,0
	h1.4C6,0,6.5,0.3,6.7,0.8L9.3,6H13C13.6,6,14.3,6.1,14.8,6.4 M14.4,7.3C14,7.1,13.4,7,13,7H9C8.8,7,8.6,6.9,8.6,6.7L5.8,1.3
	C5.7,1.1,5.6,1,5.4,1H4.6l0.9,5.4c0,0.3-0.1,0.5-0.4,0.6l-3,0.5c-0.2,0-0.3,0-0.4-0.1L1,6.7v2.6l0.6-0.6c0.1-0.1,0.3-0.2,0.4-0.1
	l3,0.5c0.3,0,0.5,0.3,0.4,0.6c0,0,0,0,0,0L4.6,15h0.8c0.2,0,0.4-0.1,0.4-0.3l2.7-5.4C8.6,9.1,8.8,9,9,9h4c0.4,0,1-0.1,1.4-0.3
	C14.8,8.5,15,8.2,15,8C15,7.8,14.8,7.5,14.4,7.3"/>
</svg>
