<?xml version="1.0" encoding="utf-8"?>
<!-- Generator: Adobe Illustrator 26.0.1, SVG Export Plug-In . SVG Version: 6.00 Build 0)  -->
<svg version="1.1" xmlns="http://www.w3.org/2000/svg" xmlns:xlink="http://www.w3.org/1999/xlink" x="0px" y="0px"
	 viewBox="0 0 135.6 135.6" style="enable-background:new 0 0 135.6 135.6;" xml:space="preserve">
<style type="text/css">
	.st0{fill:none;stroke:#000000;stroke-miterlimit:10;}
	.st1{fill:none;stroke:#000000;stroke-width:10;stroke-miterlimit:10;}
	.st2{fill:none;}
	.st3{display:none;fill:none;stroke:#000000;stroke-miterlimit:10;}
</style>
<g id="likes">
	<rect x="-633.9" y="-161" class="st0" width="134.6" height="134.6"/>
	<g>
		<g>
			<path d="M-519.1-129.2c-12.3-12.3-32.3-12.3-44.7,0l-2.9,2.9l-2.9-2.9c-12.3-12.3-32.3-12.3-44.7,0
				c-12.1,12.1-12.1,31.2-0.2,44.5c10.9,12.1,43.1,38.3,44.4,39.4c0.9,0.8,2,1.1,3.1,1.1c0,0,0.1,0,0.1,0c1.1,0.1,2.3-0.3,3.3-1.1
				c1.4-1.1,33.5-27.3,44.4-39.4C-507-98-507.1-117.2-519.1-129.2z M-526.4-91.4c-8.5,9.4-31.9,28.9-40.3,35.8
				c-8.4-6.9-31.8-26.4-40.3-35.8c-8.3-9.3-8.4-22.5-0.2-30.7c4.2-4.2,9.7-6.3,15.3-6.3s11.1,2.1,15.3,6.3l6.3,6.3
				c0.7,0.7,1.7,1.2,2.7,1.4c1.6,0.3,3.3-0.1,4.6-1.3l6.3-6.3c8.4-8.4,22.1-8.4,30.5,0C-518-113.9-518-100.7-526.4-91.4z"/>
		</g>
	</g>
</g>
<g id="views">
	<rect x="-476.6" y="-161" class="st0" width="134.6" height="134.6"/>
	<g id="Layer_6">
		<g>
			<path class="st1" d="M-466.9-96.8c19.6-24.6,65.6-67.9,115.2,0.2c1,1.3,1.1,3.1,0.1,4.3c-9.4,11.3-56.8,68.4-115.2,0.1
				C-468-93.5-468-95.4-466.9-96.8z"/>
			<circle class="st1" cx="-408" cy="-95.9" r="16.3"/>
		</g>
	</g>
</g>
<g id="copy">
	<rect x="-319.3" y="-161" class="st0" width="134.6" height="134.6"/>
	<g>
		<g>
			<path d="M-236.1-65.8h-60.1c-6.9,0-12.6-5.6-12.6-12.6v-60.1c0-6.9,5.6-12.6,12.6-12.6h60.1c6.9,0,12.6,5.6,12.6,12.6v60.1
				C-223.6-71.5-229.2-65.8-236.1-65.8z M-296.2-141.8c-1.9,0-3.4,1.5-3.4,3.4v60.1c0,1.9,1.5,3.4,3.4,3.4h60.1
				c1.9,0,3.4-1.5,3.4-3.4v-60.1c0-1.9-1.5-3.4-3.4-3.4H-296.2z"/>
		</g>
		<g>
			<g>
				<path class="st2" d="M-270.1-71.9v19.8c0,2.2,1.8,3.9,3.9,3.9h57.5c2.2,0,3.9-1.8,3.9-3.9v-57.5c0-2.2-1.8-3.9-3.9-3.9h-16.3
					v41.6H-270.1z"/>
			</g>
			<g>
				<path d="M-208.7-124.2h-16.3v10.7h16.3c2.2,0,3.9,1.8,3.9,3.9v57.5c0,2.2-1.8,3.9-3.9,3.9h-57.5c-2.2,0-3.9-1.8-3.9-3.9v-19.8
					h-10.7v19.8c0,8,6.5,14.6,14.6,14.6h57.5c8,0,14.6-6.5,14.6-14.6v-57.5C-194.1-117.7-200.6-124.2-208.7-124.2z"/>
			</g>
		</g>
	</g>
</g>
<g id="comment">
	<path class="st1" d="M-138.4-87v49c0,0.8,1,1.2,1.6,0.6l18.7-18.7c1.9-1.9,4.4-2.9,7-2.9h56.9c4.7,0,8.5-3.8,8.5-8.5v-66
		c0-4.7-3.8-8.5-8.5-8.5h-75.7c-4.7,0-8.5,3.8-8.5,8.5V-87z"/>
	<rect x="-159.4" y="-161" class="st0" width="134.6" height="134.6"/>
</g>
<g id="filter">
	<rect x="-633.9" y="0.3" class="st0" width="134.6" height="134.6"/>
	<g>
		<g>
			<g>
				<path d="M-519.7,39.8h-91.8c-3.6,0-6.5-2.9-6.5-6.5v0c0-3.6,2.9-6.5,6.5-6.5h91.8c3.6,0,6.5,2.9,6.5,6.5v0
					C-513.2,36.8-516.1,39.8-519.7,39.8z"/>
			</g>
			<g>
				<path d="M-552.5,74.3h-59.1c-3.6,0-6.5-2.9-6.5-6.5v0c0-3.6,2.9-6.5,6.5-6.5h59.1c3.6,0,6.5,2.9,6.5,6.5v0
					C-546,71.4-548.9,74.3-552.5,74.3z"/>
			</g>
		</g>
		<g>
			<path d="M-581.9,108.9h-29.7c-3.6,0-6.5-2.9-6.5-6.5v0c0-3.6,2.9-6.5,6.5-6.5h29.7c3.6,0,6.5,2.9,6.5,6.5v0
				C-575.3,105.9-578.2,108.9-581.9,108.9z"/>
		</g>
	</g>
</g>
<g id="location">
	<rect x="-476.6" y="0.5" class="st0" width="134.6" height="134.6"/>
	<path class="st1" d="M-362.6,30.8l-47.8,82.4c-1.3,2.2-4.5,1.5-4.8-1l-3.2-27.1c-0.6-4.6-3.9-8.5-8.4-9.7l-27.6-7.3
		c-2.2-0.6-2.4-3.7-0.3-4.5l89.9-35.4C-363.3,27.5-361.8,29.3-362.6,30.8z"/>
</g>
<g id="date">
	<rect x="-319.3" y="0.3" class="st0" width="134.6" height="134.6"/>
	<g>
		<g id="date_00000124871504792413206830000004614131980362513820_">
			<path d="M-209.1,23.9h-19.1l0-4.8c0-2.6-2.1-4.8-4.8-4.8c-2.6,0-4.8,2.1-4.8,4.8l0,4.8h-28.6l0-4.8c0-2.6-2.1-4.8-4.8-4.8
				s-4.8,2.1-4.8,4.8l0,4.8h-19.1c-2.6,0-4.8,2.1-4.8,4.8v85.8c0,2.6,2.1,4.8,4.8,4.8c0,0,0,0,0,0h85.8c2.6,0,4.8-2.1,4.8-4.8
				c0,0,0,0,0,0V28.7C-204.3,26-206.5,23.9-209.1,23.9z M-275.9,33.4l0,4.8c0,2.6,2.1,4.8,4.8,4.8c2.6,0,4.8-2.1,4.8-4.8l0-4.8h28.6
				l0,4.8c0,2.6,2.1,4.8,4.8,4.8c2.6,0,4.8-2.1,4.8-4.8l0-4.8h14.3v19.1h-76.3V33.4H-275.9z M-290.2,109.7V62h76.3v47.7H-290.2z"/>
		</g>
	</g>
</g>
<g id="Doc">
	<rect x="-159.4" y="0.5" class="st0" width="134.6" height="134.6"/>
	<g>
		<path d="M-54.2,124.3h-75.6c-7.5,0-13.5-6.1-13.5-13.5V28c0-7.4,6-13.5,13.4-13.5l52.2-0.6c0.1,0,0.1,0,0.2,0c3.6,0,7,1.4,9.6,4
			l23.4,23.4c2.6,2.6,4,6,4,9.6v60C-40.7,118.2-46.7,124.3-54.2,124.3z M-77.6,23.8C-77.6,23.8-77.6,23.8-77.6,23.8l-52.3,0.6
			c-1.9,0-3.5,1.6-3.5,3.5v82.7c0,2,1.6,3.5,3.5,3.5h75.6c2,0,3.5-1.6,3.5-3.5v-60c0-0.9-0.4-1.8-1-2.5l-23.4-23.4
			C-75.8,24.2-76.7,23.8-77.6,23.8z"/>
	</g>
	<g>
		<g>
			<path d="M-72.1,70.3h-40.1c-3.6,0-6.5-2.9-6.5-6.5v0c0-3.6,2.9-6.5,6.5-6.5h40.1c3.6,0,6.5,2.9,6.5,6.5v0
				C-65.5,67.4-68.5,70.3-72.1,70.3z"/>
		</g>
	</g>
	<g>
		<g>
			<path d="M-72.1,94.9h-40.1c-3.6,0-6.5-2.9-6.5-6.5v0c0-3.6,2.9-6.5,6.5-6.5h40.1c3.6,0,6.5,2.9,6.5,6.5v0
				C-65.5,92-68.5,94.9-72.1,94.9z"/>
		</g>
	</g>
</g>
<g id="attributes">
	<g id="Groupe_149" transform="translate(-1428.311 -602.583)">
		<path id="Tracé_395" d="M1496.5,649.4l-9.8,42.2h-16.1c1.6-7.1,3.7-14,6.6-20.8c3.2-7.4,6.9-14.5,11.1-21.4H1496.5z"/>
		<path id="Tracé_396" d="M1519.4,649.4l-9.8,42.2h-16.1c1.6-7.1,3.7-14,6.6-20.8c3.2-7.4,6.9-14.5,11.1-21.4H1519.4z"/>
	</g>
	<g>
		<path d="M112,120.6H21.5c-4.1,0-7.4-3.3-7.4-7.4V22.7c0-4.1,3.3-7.4,7.4-7.4H112c4.1,0,7.4,3.3,7.4,7.4v90.5
			C119.4,117.3,116.1,120.6,112,120.6z M27.5,110.6h78.4c1.9,0,3.5-1.6,3.5-3.5V28.7c0-1.9-1.6-3.5-3.5-3.5H27.5
			c-1.9,0-3.5,1.6-3.5,3.5v78.4C24,109.1,25.6,110.6,27.5,110.6z"/>
	</g>
	<rect x="0.5" y="0.5" class="st3" width="134.6" height="134.6"/>
</g>
</svg>
