<?xml version="1.0" encoding="utf-8"?>
<!-- Generator: Adobe Illustrator 27.2.0, SVG Export Plug-In . SVG Version: 6.00 Build 0)  -->
<svg version="1.1" id="Layer_1" xmlns="http://www.w3.org/2000/svg" xmlns:xlink="http://www.w3.org/1999/xlink" x="0px" y="0px"
	 viewBox="0 0 36 36" style="enable-background:new 0 0 36 36;" xml:space="preserve">
<style type="text/css">
	.st0{fill:#A3A3A3;}
	.st1{fill:#FFFFFF;}
</style>
<circle class="st0" cx="18" cy="18" r="18"/>
<path class="st1" d="M18.3,6.4c-0.2-0.1-0.4-0.1-0.6,0l-10,4l4,1.6L22,7.9L18.3,6.4z M24.3,8.8L14,12.9l4,1.6l10.3-4.1L24.3,8.8z
	 M29.8,11.6L18.8,16v13.3l10.9-4.4V11.6L29.8,11.6z M17.2,29.3V16L6.2,11.6v13.3L17.2,29.3z M17.1,4.8c0.6-0.2,1.3-0.2,1.9,0l12,4.8
	c0.3,0.1,0.5,0.4,0.5,0.8v14.5c0,0.7-0.4,1.3-1.1,1.6l-12.1,4.8c-0.2,0.1-0.4,0.1-0.6,0L5.6,26.5c-0.6-0.3-1.1-0.9-1.1-1.6V10.4
	c0-0.3,0.2-0.7,0.5-0.8L17.1,4.8z"/>
</svg>
