<?xml version="1.0" encoding="utf-8"?>
<!-- Generator: Adobe Illustrator 27.2.0, SVG Export Plug-In . SVG Version: 6.00 Build 0)  -->
<svg version="1.1" id="Layer_1" xmlns="http://www.w3.org/2000/svg" xmlns:xlink="http://www.w3.org/1999/xlink" x="0px" y="0px"
	 viewBox="0 0 36 36" style="enable-background:new 0 0 36 36;" xml:space="preserve">
<style type="text/css">
	.st0{fill:#A3A3A3;}
	.st1{fill:#FFFFFF;}
</style>
<circle class="st0" cx="18" cy="18" r="18"/>
<g>
	<path class="st1" d="M14.6,14.8v17.5c0,0.8,0.6,1.4,1.4,1.4c0.8,0,1.4-0.6,1.4-1.4v-9.2c0-0.5,0.4-1,1-1c0.5,0,1,0.4,1,1v9.2
		c0,0.8,0.6,1.4,1.4,1.4s1.4-0.6,1.4-1.4V15.9c0-0.3,0.2-0.5,0.5-0.5s0.5,0.2,0.5,0.5v4.8c0,0.8,0.6,1.4,1.4,1.4s1.4-0.6,1.4-1.4
		v-5.3c0-3.2-2.6-5.8-5.8-5.8h-5.3c-0.3,0-0.6-0.1-0.9-0.2l-0.6-0.3c-0.5-0.3-0.9-0.8-0.9-1.4V4.3c0-0.8-0.6-1.4-1.4-1.4
		S9.8,3.5,9.8,4.3v4c0,1.4,0.8,2.6,2,3.3l1.8,0.9C14.3,13.1,14.6,14,14.6,14.8"/>
	<path class="st1" d="M18.5,8.7c1.6,0,2.9-1.3,2.9-2.9s-1.3-2.9-2.9-2.9s-2.9,1.3-2.9,2.9S16.9,8.7,18.5,8.7"/>
</g>
</svg>
