<?xml version="1.0" encoding="utf-8"?>
<!-- Generator: Adobe Illustrator 27.2.0, SVG Export Plug-In . SVG Version: 6.00 Build 0)  -->
<svg version="1.1" id="Layer_1" xmlns="http://www.w3.org/2000/svg" xmlns:xlink="http://www.w3.org/1999/xlink" x="0px" y="0px"
	 viewBox="0 0 36 36" style="enable-background:new 0 0 36 36;" xml:space="preserve">
<style type="text/css">
	.st0{fill:#A3A3A3;}
	.st1{fill:#FFFFFF;}
</style>
<circle class="st0" cx="18" cy="18" r="18"/>
<g>
	<path class="st1" d="M10.2,23c0.3,3.3,3,5.6,7.1,5.9v2.4h2.1v-2.4c4.5-0.4,7.3-2.8,7.3-6.5c0-3.1-1.9-4.9-5.8-6l-1.4-0.4V8.6
		c2.2,0.2,3.7,1.4,4.1,3.2h2.9c-0.3-3.2-3-5.4-7-5.7V3.7h-2.1v2.4c-3.8,0.5-6.4,2.9-6.4,6.2c0,2.9,1.9,4.9,5.2,5.8l1.2,0.3v7.9
		c-2.3-0.3-3.8-1.6-4.2-3.4L10.2,23z M16.9,15.4c-2.1-0.5-3.2-1.6-3.2-3.2c0-1.9,1.4-3.2,3.5-3.6v6.9L16.9,15.4L16.9,15.4z M20,19.1
		c2.5,0.6,3.7,1.7,3.7,3.5c0,2.2-1.6,3.6-4.3,3.8V19L20,19.1z"/>
</g>
</svg>
