<?xml version="1.0" encoding="utf-8"?>
<!-- Generator: Adobe Illustrator 25.4.1, SVG Export Plug-In . SVG Version: 6.00 Build 0)  -->
<svg version="1.1" xmlns="http://www.w3.org/2000/svg" xmlns:xlink="http://www.w3.org/1999/xlink" x="0px" y="0px"
	 viewBox="0 0 135.6 135.6" style="enable-background:new 0 0 135.6 135.6;" xml:space="preserve">
<style type="text/css">
	.st0{display:none;fill:none;stroke:#000000;stroke-miterlimit:10;}
	.st1{fill:none;stroke:#000000;stroke-width:10;stroke-miterlimit:10;}
	.st2{fill:none;}
	.st3{fill:none;stroke:#000000;stroke-miterlimit:10;}
</style>
<g id="likes">
	<rect x="-314.1" y="0.5" class="st0" width="134.6" height="134.6"/>
	<g>
		<g>
			<path d="M-199.3,32.2c-12.3-12.3-32.3-12.3-44.7,0l-2.9,2.9l-2.9-2.9c-12.3-12.3-32.3-12.3-44.7,0c-12.1,12.1-12.1,31.2-0.2,44.5
				c10.9,12.1,43.1,38.3,44.4,39.4c0.9,0.8,2,1.1,3.1,1.1c0,0,0.1,0,0.1,0c1.1,0.1,2.3-0.3,3.3-1.1c1.4-1.1,33.5-27.3,44.4-39.4
				C-187.2,63.4-187.2,44.3-199.3,32.2z M-206.5,70c-8.5,9.4-31.9,28.9-40.3,35.8c-8.4-6.9-31.8-26.4-40.3-35.8
				c-8.3-9.3-8.4-22.5-0.2-30.7c4.2-4.2,9.7-6.3,15.3-6.3s11.1,2.1,15.3,6.3l6.3,6.3c0.7,0.7,1.7,1.2,2.7,1.4
				c1.6,0.3,3.3-0.1,4.6-1.3l6.3-6.3c8.4-8.4,22.1-8.4,30.5,0C-198.1,47.5-198.2,60.8-206.5,70z"/>
		</g>
		<g>
		</g>
		<g>
		</g>
		<g>
		</g>
		<g>
		</g>
		<g>
		</g>
		<g>
		</g>
		<g>
		</g>
		<g>
		</g>
		<g>
		</g>
		<g>
		</g>
		<g>
		</g>
		<g>
		</g>
		<g>
		</g>
		<g>
		</g>
		<g>
		</g>
	</g>
</g>
<g id="views">
	<rect x="-156.8" y="0.5" class="st0" width="134.6" height="134.6"/>
	<g id="Layer_6">
		<g>
			<path class="st1" d="M-149.6,64.7c20.5-25.7,68.5-71,120.4,0.2c1,1.4,1.2,3.2,0.1,4.5c-9.8,11.9-59.3,71.4-120.4,0.1
				C-150.8,68.1-150.8,66.1-149.6,64.7z"/>
			<circle cx="-89.5" cy="65.3" r="17"/>
		</g>
	</g>
</g>
<g id="copy">
	<rect x="0.5" y="0.5" class="st0" width="134.6" height="134.6"/>
	<g>
		<g>
			<path d="M83.7,95.6H23.6C16.7,95.6,11,90,11,83.1V23c0-6.9,5.6-12.6,12.6-12.6h60.1c6.9,0,12.6,5.6,12.6,12.6v60.1
				C96.3,90,90.6,95.6,83.7,95.6z M23.6,19.6c-1.9,0-3.4,1.5-3.4,3.4v60.1c0,1.9,1.5,3.4,3.4,3.4h60.1c1.9,0,3.4-1.5,3.4-3.4V23
				c0-1.9-1.5-3.4-3.4-3.4H23.6z"/>
		</g>
		<g>
			<g>
				<path class="st2" d="M49.8,89.6v19.8c0,2.2,1.8,3.9,3.9,3.9h57.5c2.2,0,3.9-1.8,3.9-3.9V51.8c0-2.2-1.8-3.9-3.9-3.9H94.9v41.6
					H49.8z"/>
			</g>
			<g>
				<path d="M111.2,37.2H94.9v10.7h16.3c2.2,0,3.9,1.8,3.9,3.9v57.5c0,2.2-1.8,3.9-3.9,3.9H53.7c-2.2,0-3.9-1.8-3.9-3.9V89.6H39.1
					v19.8c0,8,6.5,14.6,14.6,14.6h57.5c8,0,14.6-6.5,14.6-14.6V51.8C125.8,43.8,119.2,37.2,111.2,37.2z"/>
			</g>
		</g>
	</g>
</g>
<g id="comment">
	<path class="st1" d="M181.5,74.4v49c0,0.8,1,1.2,1.6,0.6l18.7-18.7c1.9-1.9,4.4-2.9,7-2.9h56.9c4.7,0,8.5-3.8,8.5-8.5V28
		c0-4.7-3.8-8.5-8.5-8.5H190c-4.7,0-8.5,3.8-8.5,8.5V74.4z"/>
	<rect x="160.4" y="0.5" class="st3" width="134.6" height="134.6"/>
</g>
</svg>
