<?xml version="1.0" encoding="utf-8"?>
<!-- Generator: Adobe Illustrator 26.0.1, SVG Export Plug-In . SVG Version: 6.00 Build 0)  -->
<svg version="1.1" xmlns="http://www.w3.org/2000/svg" xmlns:xlink="http://www.w3.org/1999/xlink" x="0px" y="0px"
	 viewBox="0 0 135.6 135.6" style="enable-background:new 0 0 135.6 135.6;" xml:space="preserve">
<style type="text/css">
	.st0{fill:none;stroke:#000000;stroke-miterlimit:10;}
	.st1{fill:none;stroke:#000000;stroke-width:10;stroke-miterlimit:10;}
	.st2{fill:none;}
	.st3{display:none;fill:none;stroke:#000000;stroke-miterlimit:10;}
</style>
<g id="likes">
	<rect x="-474" y="-161" class="st0" width="134.6" height="134.6"/>
	<g>
		<g>
			<path d="M-359.2-129.2c-12.3-12.3-32.3-12.3-44.7,0l-2.9,2.9l-2.9-2.9c-12.3-12.3-32.3-12.3-44.7,0
				c-12.1,12.1-12.1,31.2-0.2,44.5c10.9,12.1,43.1,38.3,44.4,39.4c0.9,0.8,2,1.1,3.1,1.1c0,0,0.1,0,0.1,0c1.1,0.1,2.3-0.3,3.3-1.1
				c1.4-1.1,33.5-27.3,44.4-39.4C-347.1-98-347.1-117.2-359.2-129.2z M-366.5-91.4c-8.5,9.4-31.9,28.9-40.3,35.8
				c-8.4-6.9-31.8-26.4-40.3-35.8c-8.3-9.3-8.4-22.5-0.2-30.7c4.2-4.2,9.7-6.3,15.3-6.3s11.1,2.1,15.3,6.3l6.3,6.3
				c0.7,0.7,1.7,1.2,2.7,1.4c1.6,0.3,3.3-0.1,4.6-1.3l6.3-6.3c8.4-8.4,22.1-8.4,30.5,0C-358-113.9-358.1-100.7-366.5-91.4z"/>
		</g>
	</g>
</g>
<g id="views">
	<rect x="-316.7" y="-161" class="st0" width="134.6" height="134.6"/>
	<g id="Layer_6">
		<g>
			<path class="st1" d="M-307-96.8c19.6-24.6,65.6-67.9,115.2,0.2c1,1.3,1.1,3.1,0.1,4.3c-9.4,11.3-56.8,68.4-115.2,0.1
				C-308.1-93.5-308.1-95.4-307-96.8z"/>
			<circle class="st1" cx="-248.1" cy="-95.9" r="16.3"/>
		</g>
	</g>
</g>
<g id="copy">
	<rect x="-159.4" y="-161" class="st0" width="134.6" height="134.6"/>
	<g>
		<g>
			<path d="M-76.2-65.8h-60.1c-6.9,0-12.6-5.6-12.6-12.6v-60.1c0-6.9,5.6-12.6,12.6-12.6h60.1c6.9,0,12.6,5.6,12.6,12.6v60.1
				C-63.7-71.5-69.3-65.8-76.2-65.8z M-136.3-141.8c-1.9,0-3.4,1.5-3.4,3.4v60.1c0,1.9,1.5,3.4,3.4,3.4h60.1c1.9,0,3.4-1.5,3.4-3.4
				v-60.1c0-1.9-1.5-3.4-3.4-3.4H-136.3z"/>
		</g>
		<g>
			<g>
				<path class="st2" d="M-110.2-71.9v19.8c0,2.2,1.8,3.9,3.9,3.9h57.5c2.2,0,3.9-1.8,3.9-3.9v-57.5c0-2.2-1.8-3.9-3.9-3.9H-65v41.6
					H-110.2z"/>
			</g>
			<g>
				<path d="M-48.7-124.2H-65v10.7h16.3c2.2,0,3.9,1.8,3.9,3.9v57.5c0,2.2-1.8,3.9-3.9,3.9h-57.5c-2.2,0-3.9-1.8-3.9-3.9v-19.8
					h-10.7v19.8c0,8,6.5,14.6,14.6,14.6h57.5c8,0,14.6-6.5,14.6-14.6v-57.5C-34.1-117.7-40.7-124.2-48.7-124.2z"/>
			</g>
		</g>
	</g>
</g>
<g id="comment">
	<path class="st1" d="M21.5-87v49c0,0.8,1,1.2,1.6,0.6l18.7-18.7c1.9-1.9,4.4-2.9,7-2.9h56.9c4.7,0,8.5-3.8,8.5-8.5v-66
		c0-4.7-3.8-8.5-8.5-8.5H30.1c-4.7,0-8.5,3.8-8.5,8.5V-87z"/>
	<rect x="0.5" y="-161" class="st0" width="134.6" height="134.6"/>
	<rect x="0.5" y="0.5" class="st3" width="134.6" height="134.6"/>
</g>
<g id="filter">
	<rect x="-474" y="0.3" class="st0" width="134.6" height="134.6"/>
	<g>
		<g>
			<g>
				<path d="M-359.8,39.8h-91.8c-3.6,0-6.5-2.9-6.5-6.5v0c0-3.6,2.9-6.5,6.5-6.5h91.8c3.6,0,6.5,2.9,6.5,6.5v0
					C-353.3,36.8-356.2,39.8-359.8,39.8z"/>
			</g>
			<g>
				<path d="M-392.6,74.3h-59.1c-3.6,0-6.5-2.9-6.5-6.5v0c0-3.6,2.9-6.5,6.5-6.5h59.1c3.6,0,6.5,2.9,6.5,6.5v0
					C-386,71.4-389,74.3-392.6,74.3z"/>
			</g>
		</g>
		<g>
			<path d="M-421.9,108.9h-29.7c-3.6,0-6.5-2.9-6.5-6.5v0c0-3.6,2.9-6.5,6.5-6.5h29.7c3.6,0,6.5,2.9,6.5,6.5v0
				C-415.4,105.9-418.3,108.9-421.9,108.9z"/>
		</g>
	</g>
</g>
<g id="location">
	<rect x="-316.7" y="0.5" class="st0" width="134.6" height="134.6"/>
	<path class="st1" d="M-202.7,30.8l-47.8,82.4c-1.3,2.2-4.5,1.5-4.8-1l-3.2-27.1c-0.6-4.6-3.9-8.5-8.4-9.7l-27.6-7.3
		c-2.2-0.6-2.4-3.7-0.3-4.5l89.9-35.4C-203.4,27.5-201.9,29.3-202.7,30.8z"/>
</g>
<g id="date">
	<rect x="-159.4" y="0.3" class="st0" width="134.6" height="134.6"/>
	<g>
		<g id="date_00000124871504792413206830000004614131980362513820_">
			<path d="M-49.2,23.9h-19.1l0-4.8c0-2.6-2.1-4.8-4.8-4.8s-4.8,2.1-4.8,4.8l0,4.8h-28.6l0-4.8c0-2.6-2.1-4.8-4.8-4.8
				s-4.8,2.1-4.8,4.8l0,4.8H-135c-2.6,0-4.8,2.1-4.8,4.8v85.8c0,2.6,2.1,4.8,4.8,4.8c0,0,0,0,0,0h85.8c2.6,0,4.8-2.1,4.8-4.8
				c0,0,0,0,0,0V28.7C-44.4,26-46.6,23.9-49.2,23.9z M-116,33.4l0,4.8c0,2.6,2.1,4.8,4.8,4.8s4.8-2.1,4.8-4.8l0-4.8h28.6l0,4.8
				c0,2.6,2.1,4.8,4.8,4.8c2.6,0,4.8-2.1,4.8-4.8l0-4.8H-54v19.1h-76.3V33.4H-116z M-130.3,109.7V62H-54v47.7H-130.3z"/>
		</g>
	</g>
</g>
<g id="Doc">
	<path class="st1" d="M21.5,28v82.7c0,4.7,3.8,8.5,8.5,8.5h75.6c4.7,0,8.5-3.8,8.5-8.5v-60c0-2.3-0.9-4.4-2.5-6L88.3,21.3
		c-1.6-1.6-3.8-2.5-6.1-2.5L30,19.5C25.3,19.5,21.5,23.3,21.5,28z"/>
	<g>
		<path d="M87.9,70.3H47.8c-3.6,0-6.5-2.9-6.5-6.5v0c0-3.6,2.9-6.5,6.5-6.5h40.1c3.6,0,6.5,2.9,6.5,6.5v0
			C94.4,67.4,91.5,70.3,87.9,70.3z"/>
	</g>
	<g>
		<path d="M87.9,94.9H47.8c-3.6,0-6.5-2.9-6.5-6.5v0c0-3.6,2.9-6.5,6.5-6.5h40.1c3.6,0,6.5,2.9,6.5,6.5v0
			C94.4,92,91.5,94.9,87.9,94.9z"/>
	</g>
</g>
</svg>
