<svg id="Layer_1" data-name="Layer 1" xmlns="http://www.w3.org/2000/svg" xmlns:xlink="http://www.w3.org/1999/xlink" width="236.57" height="53.66" viewBox="0 0 236.57 53.66">
  <defs>
    <style>
      .cls-1 {
        fill: url(#linear-gradient);
      }

      .cls-2 {
        fill: url(#linear-gradient-2);
      }

      .cls-3 {
        isolation: isolate;
      }

      .cls-4 {
        fill: #989898;
      }
    </style>
    <linearGradient id="linear-gradient" x1="59.24" y1="492.17" x2="238.82" y2="492.17" gradientTransform="translate(-2.25 -473.51)" gradientUnits="userSpaceOnUse">
      <stop offset="0" stop-color="#6ca943"/>
      <stop offset="1" stop-color="#03783d"/>
    </linearGradient>
    <linearGradient id="linear-gradient-2" x1="2.17" y1="500.34" x2="41.97" y2="500.34" xlink:href="#linear-gradient"/>
  </defs>
  <g id="Layer_2" data-name="Layer 2">
    <g id="Layer_1-2" data-name="Layer 1-2">
      <path class="cls-1" d="M76.23,26.73a5.75,5.75,0,0,1-1.74,1.59,9,9,0,0,1-3,1.32,15.42,15.42,0,0,1-3.77.37q-5.18,0-7.95-3C57.91,25,57,22.18,57,18.51s1-6.31,2.85-8.25,4.6-2.91,8.1-2.91a11.74,11.74,0,0,1,3.81.57,8.71,8.71,0,0,1,2.93,1.63,1.12,1.12,0,0,1,.44.75c0,.24-.25.61-.74,1.11H74a7.53,7.53,0,0,0-2.7-1.78A9.35,9.35,0,0,0,67.83,9q-4.22,0-6.38,2.42T59.29,18.5c0,3.16.74,5.59,2.22,7.31a8,8,0,0,0,6.41,2.63,10.72,10.72,0,0,0,3.72-.57,5.8,5.8,0,0,0,2.46-1.61V20H68.42V18.41h7.81Zm21.69-13.2a5.58,5.58,0,0,1-1.57,4.1,8.09,8.09,0,0,1-4.49,2.1l7.21,9.89a3,3,0,0,1-1.11.2,2.24,2.24,0,0,1-1.21-.32,4.11,4.11,0,0,1-1.11-1.09L89.48,20h-4v9.54H83.26V7.8c2.22-.17,4-.26,5.47-.26,3.2,0,5.54.48,7,1.43A5.08,5.08,0,0,1,97.92,13.53Zm-2.29.1A3.86,3.86,0,0,0,94,10.19q-1.59-1-5.4-1a23.06,23.06,0,0,0-3.22.13v9.14H88.6c4.68,0,7-1.59,7-4.78Zm9.21,15.92V7.73h13.73a.38.38,0,0,1,0,.15V8c0,.89-.57,1.34-1.7,1.34H107v7.87h8.76V18.9H107v9h10.33a2.16,2.16,0,0,1,1.33.36,1.16,1.16,0,0,1,.48,1v.15a.38.38,0,0,1,0,.15Zm19.72,0V7.73h13.72a.38.38,0,0,1,0,.15V8c0,.89-.57,1.34-1.7,1.34h-9.83v7.87h8.73V18.9h-8.73v9h10.36a2.23,2.23,0,0,1,1.33.36,1.16,1.16,0,0,1,.48,1v.15a.38.38,0,0,1,0,.15Zm37.88,0h-2.26L146.29,11.06V29.55h-2V7.83a3.35,3.35,0,0,1,1-.13,2,2,0,0,1,.89.18,2.79,2.79,0,0,1,.7.67l13.5,18.3V7.73h.48c1,0,1.56.56,1.56,1.66Zm24.85-1.24a5.18,5.18,0,0,1-1.64.91,11.93,11.93,0,0,1-2.41.65,15.74,15.74,0,0,1-2.83.23c-3.69,0-6.53-1-8.54-3s-3-4.79-3-8.37a12.63,12.63,0,0,1,1.41-6.15,9.42,9.42,0,0,1,4-4,13.34,13.34,0,0,1,6.18-1.35,13.9,13.9,0,0,1,4,.56,8.83,8.83,0,0,1,3,1.43,1.85,1.85,0,0,1,.81,1.4c0,.67-.59,1.51-1.78,2.51a9.35,9.35,0,0,0-2.74-1.73,8.54,8.54,0,0,0-3-.52,6.08,6.08,0,0,0-5,2.12A8.45,8.45,0,0,0,174,18.63a8.38,8.38,0,0,0,1.78,5.76,6.39,6.39,0,0,0,5.1,2,8,8,0,0,0,4.26-1.23c.49-.33.88-.61,1.18-.85,1.13,1.19,1.7,2.06,1.7,2.6a1.49,1.49,0,0,1-.16.69,3,3,0,0,1-.62.71Zm21.63,1.24-2.1-5.34h-8.55l-2,5.34h-5l8.58-21.49a8.47,8.47,0,0,1,3-.45c1.82,0,3,.67,3.47,2l8,19.92ZM202.6,11.73l-3.38,9.32h6.62Zm32.54,2.32a6.44,6.44,0,0,1-1.22,4,6.69,6.69,0,0,1-3.46,2.37l6.11,9a8.1,8.1,0,0,1-3,.55,4.6,4.6,0,0,1-2.3-.52,5.09,5.09,0,0,1-1.7-1.69l-4.21-6.32h-2v8.21h-5.1V7.87a65,65,0,0,1,6.54-.33q5.28,0,7.83,1.58A5.33,5.33,0,0,1,235.14,14Zm-5.33.42a3.44,3.44,0,0,0-1.11-2.8,5.32,5.32,0,0,0-3.44-.91h-1.14l-.82.07v7.52H225a5.51,5.51,0,0,0,3.54-1,3.55,3.55,0,0,0,1.23-2.89Z" transform="translate(0 0)"/>
      <path class="cls-2" d="M39.75,31.73A17.91,17.91,0,0,1,38,39.44c-.13.31-.3.59-.45.88l-.24.44c-.08.14-.18.28-.27.42s-.34.56-.53.83l-.58.79a23.07,23.07,0,0,1-2.66,2.93c-.46.46-1,.86-1.45,1.28-.24.21-.5.39-.75.59l-.77.58c-.52.36-1,.73-1.57,1.07l-.81.51c-.27.16-.53.33-.81.48a51.44,51.44,0,0,1-6.76,3.29h0a1.5,1.5,0,0,1-2-.75l0,0a1.55,1.55,0,0,1-.11-.56h0V38.73l-6.71-4.36A1.49,1.49,0,0,1,11,32.31v0a1.51,1.51,0,0,1,2.08-.44l5.07,3.3V27.8l-6.71-4.35A1.49,1.49,0,0,1,11,21.39v0a1.51,1.51,0,0,1,2.08-.44l5.07,3.29V16a1.5,1.5,0,1,1,3,0v8.1L26,21a1.5,1.5,0,1,1,1.63,2.52h0l-6.4,4.23v7.32L26,31.93a1.5,1.5,0,0,1,1.63,2.52l-6.44,4.18v11.2l1.19-.56c1.07-.51,2.11-1.06,3.13-1.65.26-.14.5-.3.75-.45l.75-.44c.49-.31,1-.66,1.44-1l.7-.53c.22-.18.46-.34.68-.54.44-.37.89-.73,1.29-1.13A22.81,22.81,0,0,0,33.47,41l.5-.68c.16-.23.3-.47.45-.71s.16-.23.23-.35l.2-.37a7.39,7.39,0,0,0,.38-.74,15,15,0,0,0,1.52-6.45A21.74,21.74,0,0,0,35,23.44a41,41,0,0,0-4.35-7.65,66,66,0,0,0-5.74-6.86c-1-1.09-2.11-2.14-3.19-3.2-.8-.75-1.62-1.49-2.46-2.2l-.72.76-.74.84c-.13.14-.27.27-.39.41L17,6l-1.5,1.67c-.24.28-.5.55-.74.84L14,9.37c-.47.57-1,1.14-1.42,1.72l-1.36,1.77c-.22.3-.46.58-.66.89l-.64.91-.63.91c-.11.15-.22.3-.32.46l-.29.46a42.9,42.9,0,0,0-4.07,7.77A22.45,22.45,0,0,0,3,32.51,13.77,13.77,0,0,0,4.51,38.8a12.2,12.2,0,0,0,1.11,1.74l2-2a1.79,1.79,0,0,1,2.5,0l2.35,2.35A1.86,1.86,0,0,1,13,42.15a1.81,1.81,0,0,1-.52,1.25l-.71.71,1.63,1.62a1.07,1.07,0,0,1,0,1.51h0a1.12,1.12,0,0,1-.76.32,1,1,0,0,1-.76-.32l-1.65-1.67-2,2,1.7,1.66a1.09,1.09,0,0,1,0,1.53,1.06,1.06,0,0,1-.73.3,1,1,0,0,1-.76-.32L6.75,49.13l-.51.51a1.77,1.77,0,0,1-2.5,0h0L1.34,47.29a1.76,1.76,0,0,1,0-2.49h0l2.11-2.07a15.45,15.45,0,0,1-1.62-2.47A15.16,15.16,0,0,1,.42,36.53c-.07-.33-.15-.65-.22-1l-.14-1c0-.16,0-.33-.06-.49V32.5a25.56,25.56,0,0,1,1.88-9.42L2.25,22c.16-.36.29-.74.48-1.08l.51-1.06.26-.53c.09-.18.17-.36.27-.52l1.15-2,1.24-2,.31-.49c.1-.16.22-.32.33-.48l.66-.95.67-1c.21-.32.46-.62.69-.93l1.4-1.77c.48-.6,1-1.19,1.47-1.78l.73-.89c.25-.3.51-.57.76-.86l1.57-1.73.38-.43.4-.42.79-.83L17.57,1a2.73,2.73,0,0,1,.35-.47,1.47,1.47,0,0,1,.73-.47,1.52,1.52,0,0,1,1.47.36l.09.09c1.22,1,2.36,2,3.48,3.06S25.92,5.73,27,6.86a68.64,68.64,0,0,1,6,7.19,42.62,42.62,0,0,1,4.68,8.23A24.4,24.4,0,0,1,39.75,31.73Z" transform="translate(0 0)"/>
    </g>
  </g>
  <g class="cls-3">
    <path class="cls-4" d="M61.09,38.35a1,1,0,0,1,.57.16,1.05,1.05,0,0,1,.39.51l1.82,4.3,1.84-4.25a1.06,1.06,0,0,1,1-.72,2.41,2.41,0,0,1,.82.11l.58,8H66.55l-.37-5.33-1.63,3.65H63.17l-1.59-3.49-.35,5.17H59.66l.59-8A2.9,2.9,0,0,1,61.09,38.35Z" transform="translate(0 0)"/>
    <path class="cls-4" d="M84.38,46.44l-.68-2H80.93l-.66,2H78.63l2.79-7.92a2.39,2.39,0,0,1,1-.17,1.06,1.06,0,0,1,1.13.75l2.58,7.34Zm-2-6.59-1.09,3.42h2.15Z" transform="translate(0 0)"/>
    <path class="cls-4" d="M102.25,40.7a2.61,2.61,0,0,1-.4,1.47,2.17,2.17,0,0,1-1.12.87l2,3.32a2.54,2.54,0,0,1-1,.2,1.35,1.35,0,0,1-.75-.19,1.83,1.83,0,0,1-.55-.63l-1.37-2.32h-.66v3H96.77v-8a18.18,18.18,0,0,1,2.12-.12,4.44,4.44,0,0,1,2.54.58A2,2,0,0,1,102.25,40.7Zm-1.73.16a1.34,1.34,0,0,0-.36-1,1.55,1.55,0,0,0-1.11-.34h-.38l-.26,0V42.3H99a1.62,1.62,0,0,0,1.15-.37A1.39,1.39,0,0,0,100.52,40.86Z" transform="translate(0 0)"/>
    <path class="cls-4" d="M113.45,38.41a3.92,3.92,0,0,1,.57-.06c.71,0,1.07.31,1.07.94v2.93a1.5,1.5,0,0,1,.14-.5,2.63,2.63,0,0,1,.35-.56L117.23,39a1.84,1.84,0,0,1,.53-.49,1.13,1.13,0,0,1,.61-.16,1.4,1.4,0,0,1,.54.1,1.15,1.15,0,0,1,.43.26l-2.65,3.54,3,4a1.85,1.85,0,0,1-.94.27,1.56,1.56,0,0,1-1.29-.62l-1.76-2.28a2.52,2.52,0,0,1-.59-1.31v4.08h-1.64Z" transform="translate(0 0)"/>
    <path class="cls-4" d="M134.57,45.17a1.06,1.06,0,0,1,.73.22.77.77,0,0,1,.26.63v.22c0,.06,0,.13,0,.2h-5.2v-8h5a2.76,2.76,0,0,1,0,.44.81.81,0,0,1-.23.65,1.26,1.26,0,0,1-.79.19H132v2h2.54V43H132v2.22Z" transform="translate(0 0)"/>
    <path class="cls-4" d="M148.27,39.74h-2.51a3.43,3.43,0,0,1,0-.48.8.8,0,0,1,.27-.63,1.16,1.16,0,0,1,.75-.23h5.64a4.41,4.41,0,0,1,0,.52.73.73,0,0,1-.26.6,1.05,1.05,0,0,1-.72.22h-1.51v6.7h-1.66Z" transform="translate(0 0)"/>
    <path class="cls-4" d="M168.61,40.76a2.57,2.57,0,0,1-.85,2.09,3.67,3.67,0,0,1-2.43.72h-.57v2.87H163.1v-8a18.49,18.49,0,0,1,2.13-.12,4.39,4.39,0,0,1,2.54.6A2.1,2.1,0,0,1,168.61,40.76Zm-1.68.09a1.26,1.26,0,0,0-.4-1,1.72,1.72,0,0,0-1.14-.34,4.06,4.06,0,0,0-.64,0v2.88h.39a2.1,2.1,0,0,0,1.37-.37A1.52,1.52,0,0,0,166.93,40.85Z" transform="translate(0 0)"/>
    <path class="cls-4" d="M181.17,45.11h2.34c.65,0,1,.28,1,.85a1.79,1.79,0,0,1,0,.48h-4.94v-8a3.92,3.92,0,0,1,.57-.06,1.21,1.21,0,0,1,.81.24.88.88,0,0,1,.27.7Z" transform="translate(0 0)"/>
    <path class="cls-4" d="M200.4,46.44l-.68-2h-2.78l-.66,2h-1.63l2.79-7.92a2.39,2.39,0,0,1,1-.17,1,1,0,0,1,1.12.75l2.58,7.34Zm-2.05-6.59-1.09,3.42h2.14Z" transform="translate(0 0)"/>
    <path class="cls-4" d="M218.09,46a1.62,1.62,0,0,1-.53.34,4.12,4.12,0,0,1-1.7.32,3.51,3.51,0,0,1-2.77-1.09,4.46,4.46,0,0,1-1-3.08,5.31,5.31,0,0,1,.45-2.27,3.31,3.31,0,0,1,1.3-1.46,4.2,4.2,0,0,1,3.3-.29,2.59,2.59,0,0,1,1,.53.67.67,0,0,1,.26.51,1.51,1.51,0,0,1-.57.93,2.91,2.91,0,0,0-.89-.64,2.4,2.4,0,0,0-1-.19,1.86,1.86,0,0,0-1.6.75,4.19,4.19,0,0,0,0,4.2,2,2,0,0,0,1.66.75,2.42,2.42,0,0,0,.8-.15,2.12,2.12,0,0,0,.58-.31,3.77,3.77,0,0,0,.38-.31,2,2,0,0,1,.56,1,.49.49,0,0,1-.06.25A.8.8,0,0,1,218.09,46Z" transform="translate(0 0)"/>
    <path class="cls-4" d="M233.71,45.17a1.06,1.06,0,0,1,.73.22.77.77,0,0,1,.26.63v.22c0,.06,0,.13,0,.2h-5.2v-8h5a2.76,2.76,0,0,1,0,.44.81.81,0,0,1-.23.65,1.26,1.26,0,0,1-.79.19h-2.36v2h2.54V43h-2.54v2.22Z" transform="translate(0 0)"/>
  </g>
</svg>
