<svg width="32" height="32" viewBox="0 0 32 32" fill="none" xmlns="http://www.w3.org/2000/svg">
<rect x="0.25" y="0.25" width="31.5" height="31.5" rx="4.75" stroke="white" stroke-opacity="0.5" stroke-width="0.5"/>
<path d="M23.114 9.63589C23.9497 10.4716 24.6127 11.4638 25.065 12.5557C25.5173 13.6476 25.7501 14.818 25.7501 15.9999C25.7501 17.1818 25.5173 18.3521 25.065 19.4441C24.6127 20.536 23.9497 21.5282 23.114 22.3639M20.463 12.2879C21.4474 13.2724 22.0004 14.6077 22.0004 15.9999C22.0004 17.3921 21.4474 18.7273 20.463 19.7119M10.75 12.2499L15.47 7.52989C15.5749 7.42513 15.7085 7.35381 15.8539 7.32492C15.9993 7.29604 16.15 7.31089 16.2869 7.3676C16.4239 7.42431 16.541 7.52034 16.6234 7.64356C16.7058 7.76677 16.7499 7.91165 16.75 8.05989V23.9399C16.7499 24.0881 16.7058 24.233 16.6234 24.3562C16.541 24.4794 16.4239 24.5755 16.2869 24.6322C16.15 24.6889 15.9993 24.7037 15.8539 24.6749C15.7085 24.646 15.5749 24.5746 15.47 24.4699L10.75 19.7499H8.51C7.63 19.7499 6.806 19.2429 6.572 18.3959C6.35751 17.6153 6.2492 16.8094 6.25 15.9999C6.25 15.1699 6.362 14.3669 6.572 13.6039C6.806 12.7559 7.63 12.2499 8.51 12.2499H10.75Z" stroke="white" stroke-opacity="0.3" stroke-linecap="round" stroke-linejoin="round"/>
<line x1="7.35355" y1="7.64645" x2="24.3536" y2="24.6464" stroke="white"/>
</svg>
