<?xml version="1.0" encoding="utf-8"?>
<!-- Generator: Adobe Illustrator 25.4.1, SVG Export Plug-In . SVG Version: 6.00 Build 0)  -->
<svg version="1.1" id="Layer_1" xmlns="http://www.w3.org/2000/svg" xmlns:xlink="http://www.w3.org/1999/xlink" x="0px" y="0px"
	 viewBox="0 0 164.7 49.3" style="enable-background:new 0 0 164.7 49.3;" xml:space="preserve">
<style type="text/css">
	.st0{fill:none;}
	.st1{fill:#B9FD00;}
	.st2{fill:#FFFFFF;}
</style>
<g id="Groupe_2313" transform="translate(-80 -34.872)">
	<g id="Attributes_-_logo_white" transform="translate(-16562 -8147.908)">
		<g id="shadow-box" transform="translate(16648.08 8187.756)">
			<path class="st0" d="M9.1,3h143.5c3.4,0,6.1,2.7,6.1,6.1v29.1c0,3.4-2.7,6.1-6.1,6.1H9.1c-3.4,0-6.1-2.7-6.1-6.1c0,0,0,0,0,0V9.1
				C3,5.7,5.7,3,9.1,3C9.1,3,9.1,3,9.1,3z"/>
			<path class="st1" d="M9.1,4C6.3,4,4,6.3,4,9.1v29.1c0,2.8,2.3,5.1,5.1,5.1h143.5c2.8,0,5.1-2.3,5.1-5.1V9.1
				c0-2.8-2.3-5.1-5.1-5.1H9.1 M9.1,3h143.5c3.4,0,6.1,2.7,6.1,6.1v29.1c0,3.4-2.7,6.1-6.1,6.1H9.1c-3.4,0-6.1-2.7-6.1-6.1V9.1
				C3,5.7,5.7,3,9.1,3z"/>
		</g>
		<path id="main-box" class="st2" d="M16648.1,8182.8h145.1c3.4,0,6.1,2.7,6.1,6.1v30c0,3.4-2.7,6.1-6.1,6.1h-145.1
			c-3.4,0-6.1-2.7-6.1-6.1v-30C16642,8185.5,16644.7,8182.8,16648.1,8182.8C16648.1,8182.8,16648.1,8182.8,16648.1,8182.8z"/>
		<path id="in-square" d="M16649.5,8184.8h27.2c3,0,5.5,2.5,5.5,5.5v27.2c0,3-2.5,5.5-5.5,5.5h-27.2c-3,0-5.5-2.5-5.5-5.5v-27.2
			C16644,8187.3,16646.5,8184.8,16649.5,8184.8z"/>
		<path id="attributes" d="M16690.7,8210.7h2.6l1.2-3.7h5.6l1.2,3.7h2.8l-4.9-14.8h-3.6L16690.7,8210.7z M16697.2,8198.2l2.2,6.9
			h-4.4L16697.2,8198.2z M16709.5,8210.9c0.6,0,1.2-0.1,1.7-0.3v-2c-0.4,0.2-0.8,0.2-1.2,0.2c-0.8,0-1.2-0.4-1.2-1.4v-5.7h2.4v-1.9
			h-2.4v-2.4h-2.5v2.4h-1.4v1.9h1.4v5.9c-0.2,1.6,1,3,2.6,3.2C16709,8210.9,16709.2,8210.9,16709.5,8210.9z M16717.1,8210.9
			c0.6,0,1.1-0.1,1.7-0.3v-2c-0.4,0.2-0.8,0.2-1.2,0.2c-0.8,0-1.2-0.4-1.2-1.4v-5.7h2.4v-1.9h-2.4v-2.4h-2.5v2.4h-1.4v1.9h1.4v5.9
			c-0.2,1.6,1,3,2.6,3.2C16716.6,8210.9,16716.9,8210.9,16717.1,8210.9z M16721,8210.7h2.5v-5.6c0-2.3,1.3-3,3.5-3v-2.3
			c-1.5-0.1-2.9,0.8-3.5,2.2v-2h-2.5V8210.7z M16729.3,8210.7h2.5v-10.8h-2.5V8210.7z M16730.5,8198.1c0.8,0,1.5-0.6,1.5-1.4
			c0,0,0,0,0,0c0-0.8-0.6-1.4-1.4-1.4c0,0,0,0,0,0c-0.8,0-1.5,0.6-1.5,1.4c0,0,0,0,0,0C16729,8197.5,16729.7,8198.1,16730.5,8198.1
			C16730.5,8198.1,16730.5,8198.1,16730.5,8198.1L16730.5,8198.1z M16740.9,8210.9c2.8,0,4.8-2.1,4.8-5.6v-0.2
			c0-3.5-2.1-5.5-4.8-5.5c-1.4,0-2.8,0.7-3.5,2v-6.7h-2.5v15.8h2.5v-1.7C16738,8210.2,16739.4,8211,16740.9,8210.9z M16740.2,8208.9
			c-1.8,0-3-1.1-3-3.5v-0.2c0-2.4,1.2-3.6,3-3.6c1.6,0,2.9,1.2,2.9,3.6v0.2C16743.1,8207.7,16742.1,8208.9,16740.2,8208.9z
			 M16751.5,8210.9c1.4,0.1,2.8-0.7,3.4-1.9v1.7h2.5v-10.8h-2.5v6.4c0.1,1.3-0.9,2.5-2.2,2.6c-0.1,0-0.2,0-0.3,0
			c-1.4,0-2.1-0.7-2.1-2.4v-6.6h-2.5v6.9C16747.8,8209.7,16749.4,8210.9,16751.5,8210.9z M16764.1,8210.9c0.6,0,1.1-0.1,1.7-0.3v-2
			c-0.4,0.2-0.8,0.2-1.2,0.2c-0.8,0-1.2-0.4-1.2-1.4v-5.7h2.4v-1.9h-2.4v-2.4h-2.5v2.4h-1.4v1.9h1.4v5.9c-0.2,1.6,1,3,2.6,3.2
			C16763.6,8210.9,16763.8,8210.9,16764.1,8210.9z M16772.7,8210.9c2.8,0,4.6-1.2,5-3.5h-2.4c-0.2,1.1-1,1.7-2.5,1.7
			c-1.9,0-2.9-1.2-3-3.2h7.9v-0.7c0-3.9-2.4-5.4-5.1-5.4c-2.9-0.1-5.3,2.2-5.4,5.1c0,0.2,0,0.3,0,0.5v0.2c-0.2,2.9,2,5.3,4.8,5.5
			C16772.3,8210.9,16772.5,8210.9,16772.7,8210.9L16772.7,8210.9z M16769.9,8204.2c0-1.5,1.3-2.7,2.8-2.7c1.5,0,2.5,0.8,2.6,2.7
			L16769.9,8204.2z M16783.8,8210.9c2.8,0,4.3-1.3,4.3-3.4c0-2.3-1.5-2.9-4-3.3c-1.7-0.3-2.2-0.6-2.2-1.4c0-0.8,0.6-1.3,1.7-1.3
			c0.9-0.1,1.8,0.5,1.9,1.4c0,0,0,0,0,0.1h2.3c-0.3-2.4-2-3.3-4.2-3.3c-2,0-4,1.1-4,3.2c0,2,1.1,2.8,3.9,3.3
			c1.6,0.3,2.3,0.6,2.3,1.5c0,0.9-0.6,1.4-1.9,1.4c-1.5,0-2-0.6-2.1-1.7h-2.4C16779.3,8209.6,16781,8210.9,16783.8,8210.9z"/>
	</g>
	<g id="Groupe_149" transform="translate(-1428.311 -602.583)">
		<path id="Tracé_395" class="st2" d="M1529.3,649.6l-3.7,16h-6.1c0.6-2.7,1.4-5.3,2.5-7.9c1.2-2.8,2.6-5.5,4.2-8.1L1529.3,649.6z"
			/>
		<path id="Tracé_396" class="st2" d="M1538,649.6l-3.7,16h-6.1c0.6-2.7,1.4-5.3,2.5-7.9c1.2-2.8,2.6-5.5,4.2-8.1L1538,649.6z"/>
	</g>
</g>
</svg>
