<svg width="170" height="35" viewBox="0 0 170 35" fill="none" xmlns="http://www.w3.org/2000/svg">
<path d="M17.5 34C26.6127 34 34 26.6127 34 17.5C34 8.3873 26.6127 1 17.5 1C8.3873 1 1 8.3873 1 17.5C1 26.6127 8.3873 34 17.5 34Z" stroke="url(#paint0_linear_266_174)" stroke-miterlimit="10"/>
<path d="M25.9647 23.1542L26.4622 21.5832L7.80922 15.6824L7.31169 17.2549L6.17448 16.8951L4.79886 21.2426L25.7648 27.8749L27.1404 23.5274L25.9647 23.1542Z" stroke="url(#paint1_linear_266_174)" stroke-linecap="round" stroke-linejoin="round"/>
<path d="M28.6156 18.9664C29.9157 14.5879 26.3945 9.59328 20.6773 7.75567C14.9601 5.91806 9.18669 7.92448 7.69409 12.2409L28.6156 18.9664Z" stroke="url(#paint2_linear_266_174)" stroke-linecap="round" stroke-linejoin="round"/>
<path d="M53.2163 21.7H49.1913V28H45.9913V9.725H53.2163C56.8913 9.725 59.2663 12.125 59.2663 15.7C59.2663 19.225 56.8663 21.7 53.2163 21.7ZM52.5913 12.575H49.1913V18.85H52.5413C54.7413 18.85 55.9163 17.675 55.9163 15.675C55.9163 13.675 54.7163 12.575 52.5913 12.575ZM66.4228 28.325C62.7478 28.325 60.1728 25.65 60.1728 21.825C60.1728 17.95 62.6978 15.275 66.3228 15.275C70.0228 15.275 72.3728 17.75 72.3728 21.6V22.525L63.0728 22.55C63.2978 24.725 64.4478 25.825 66.4728 25.825C68.1478 25.825 69.2478 25.175 69.5978 24H72.4228C71.8978 26.7 69.6478 28.325 66.4228 28.325ZM66.3478 17.775C64.5478 17.775 63.4478 18.75 63.1478 20.6H69.3478C69.3478 18.9 68.1728 17.775 66.3478 17.775ZM78.8917 28H75.8417V18.2H73.4667V15.65H75.8417V11.8H78.8917V15.65H81.2917V18.2H78.8917V28ZM84.7128 13.175C83.6628 13.175 82.8378 12.35 82.8378 11.325C82.8378 10.3 83.6628 9.5 84.7128 9.5C85.7128 9.5 86.5378 10.3 86.5378 11.325C86.5378 12.35 85.7128 13.175 84.7128 13.175ZM83.1878 28V15.65H86.2378V28H83.1878ZM93.589 28H90.539V18.2H88.164V15.65H90.539V11.8H93.589V15.65H95.989V18.2H93.589V28ZM108.273 28H105.073V9.725H108.273V17.275H116.373V9.725H119.573V28H116.373V20.25H108.273V28ZM126.853 28.325C124.228 28.325 122.628 26.8 122.628 24.475C122.628 22.2 124.278 20.775 127.203 20.55L130.903 20.275V20C130.903 18.325 129.903 17.65 128.353 17.65C126.553 17.65 125.553 18.4 125.553 19.7H122.953C122.953 17.025 125.153 15.275 128.503 15.275C131.828 15.275 133.878 17.075 133.878 20.5V28H131.203L130.978 26.175C130.453 27.45 128.778 28.325 126.853 28.325ZM127.853 26.025C129.728 26.025 130.928 24.9 130.928 23V22.35L128.353 22.55C126.453 22.725 125.728 23.35 125.728 24.35C125.728 25.475 126.478 26.025 127.853 26.025ZM136.149 21.8C136.149 17.975 138.674 15.275 142.324 15.275C145.699 15.275 147.999 17.15 148.324 20.125H145.274C144.924 18.725 143.899 18 142.449 18C140.499 18 139.199 19.475 139.199 21.8C139.199 24.125 140.399 25.575 142.349 25.575C143.874 25.575 144.949 24.825 145.274 23.475H148.349C147.974 26.35 145.574 28.325 142.349 28.325C138.599 28.325 136.149 25.725 136.149 21.8ZM153.694 28H150.669V9.4H153.694V20.825L158.494 15.65H162.319L157.619 20.55L162.219 28H158.719L155.494 22.8L153.694 24.675V28ZM166.122 28.3C165.022 28.3 164.097 27.4 164.097 26.325C164.097 25.225 165.022 24.325 166.122 24.325C167.222 24.325 168.147 25.225 168.147 26.325C168.147 27.4 167.222 28.3 166.122 28.3Z" fill="white"/>
<defs>
<linearGradient id="paint0_linear_266_174" x1="34.4727" y1="-4.84383" x2="22.5532" y2="-4.69288" gradientUnits="userSpaceOnUse">
<stop stop-color="#64F6EF"/>
<stop offset="1" stop-color="#D9FF00"/>
</linearGradient>
<linearGradient id="paint1_linear_266_174" x1="27.4604" y1="13.5233" x2="19.3938" y2="13.7104" gradientUnits="userSpaceOnUse">
<stop stop-color="#64F6EF"/>
<stop offset="1" stop-color="#D9FF00"/>
</linearGradient>
<linearGradient id="paint2_linear_266_174" x1="29.1889" y1="4.96828" x2="21.5374" y2="5.14095" gradientUnits="userSpaceOnUse">
<stop stop-color="#64F6EF"/>
<stop offset="1" stop-color="#D9FF00"/>
</linearGradient>
</defs>
</svg>
