<?xml version="1.0" encoding="utf-8"?>
<!-- Generator: Adobe Illustrator 28.2.0, SVG Export Plug-In . SVG Version: 6.00 Build 0)  -->
<svg version="1.1" id="Layer_1" xmlns="http://www.w3.org/2000/svg" xmlns:xlink="http://www.w3.org/1999/xlink" x="0px" y="0px"
	 viewBox="0 0 206.6 206.6" style="enable-background:new 0 0 206.6 206.6;" xml:space="preserve">
<style type="text/css">
	.st0{fill:none;stroke:#A3A3A3;stroke-width:0.75;stroke-miterlimit:10;}
	.st1{fill:#A3A3A3;}
	.st2{font-family:'MyriadPro-Regular';}
	.st3{font-size:4.0062px;}
	.st4{font-size:3.0046px;}
	.st5{font-size:4.6739px;}
	.st6{font-size:3.7489px;}
	.st7{font-size:2.6708px;}
	.st8{font-size:8.8785px;}
	.st9{font-size:7px;}
</style>
<circle class="st0" cx="104.1" cy="176.2" r="25.9"/>
<text transform="matrix(1 0 0 1 98.0839 167.6227)" class="st1 st2 st3">partner</text>
<text transform="matrix(1 0 0 1 92.1024 171.1637)" class="st1 st2 st4">Head of Production</text>
<text transform="matrix(1 0 0 1 85.7665 190.3424)" class="st1 st2 st4">Press Operator</text>
<text transform="matrix(1 0 0 1 104.8734 190.3424)" class="st1 st2 st4">Press Operator</text>
<text transform="matrix(1 0 0 1 89.222 162.1618)" class="st1 st2 st5">Screen Printing</text>
<text transform="matrix(1 0 0 1 108.515 186.9333)" class="st1 st2 st6">partner</text>
<text transform="matrix(1 0 0 1 89.4628 186.4098)" class="st1 st2 st6">partner</text>
<polyline class="st0" points="113.7,182.3 113.7,177.6 104.1,177.6 "/>
<polyline class="st0" points="94.7,182.3 94.7,177.6 104.1,177.6 104.1,173 "/>
<circle class="st0" cx="103.8" cy="29.3" r="25.9"/>
<text transform="matrix(1 0 0 1 97.7489 20.7125)" class="st1 st2 st3">partner</text>
<text transform="matrix(1 0 0 1 96.4818 24.2516)" class="st1 st2 st4">Screen Prep</text>
<text transform="matrix(1 0 0 1 86.0692 43.4303)" class="st1 st2 st7">Custom Ink Mix</text>
<text transform="matrix(1 0 0 1 105.7401 43.4303)" class="st1 st2 st7">Screen Expose</text>
<text transform="matrix(1 0 0 1 90.8915 13.2448)" class="st1 st2 st5">Screen Room</text>
<text transform="matrix(1 0 0 1 108.1805 40.0221)" class="st1 st2 st6">partner</text>
<text transform="matrix(1 0 0 1 89.1278 39.4997)" class="st1 st2 st6">partner</text>
<polyline class="st0" points="113.4,35.4 113.4,30.7 103.8,30.7 "/>
<polyline class="st0" points="94.4,35.4 94.4,30.7 103.8,30.7 103.8,26.1 "/>
<circle class="st0" cx="176.2" cy="105" r="25.9"/>
<text transform="matrix(1 0 0 1 170.1766 96.3913)" class="st1 st2 st3">partner</text>
<text transform="matrix(1 0 0 1 164.1952 99.9313)" class="st1 st2 st4">Head of Production</text>
<text transform="matrix(1 0 0 1 161.411 119.109)" class="st1 st2 st4">Operator</text>
<text transform="matrix(1 0 0 1 180.5175 119.109)" class="st1 st2 st4">Operator</text>
<text transform="matrix(1 0 0 1 164.8104 88.9235)" class="st1 st2 st5">Embroidery</text>
<text transform="matrix(1 0 0 1 180.6073 115.7018)" class="st1 st2 st6">partner</text>
<text transform="matrix(1 0 0 1 161.5546 115.1784)" class="st1 st2 st6">partner</text>
<polyline class="st0" points="185.8,111 185.8,106.4 176.2,106.4 "/>
<polyline class="st0" points="166.8,111 166.8,106.4 176.2,106.4 176.2,101.8 "/>
<circle class="st0" cx="30.6" cy="105" r="25.9"/>
<text transform="matrix(1 0 0 1 24.5673 93.36)" class="st1 st2 st3">partner</text>
<text transform="matrix(1 0 0 1 18.5966 96.901)"><tspan x="0" y="0" class="st1 st2 st4">Head of Operations </tspan><tspan x="0.6" y="3" class="st1 st2 st4">&amp; Project Manager</tspan></text>
<text transform="matrix(1 0 0 1 24.1366 86.943)" class="st1 st2 st5">Events</text>
<text transform="matrix(1 0 0 1 12.8534 119.2086)" class="st1 st2 st4">Staffing Agcy.</text>
<text transform="matrix(1 0 0 1 36.6434 115.319)" class="st1 st2 st6">partner</text>
<text transform="matrix(1 0 0 1 14.3192 115.278)" class="st1 st2 st6">partner</text>
<polyline class="st0" points="41.9,111.1 41.9,106.5 30.6,106.5 "/>
<polyline class="st0" points="19.6,111.1 19.6,106.5 30.6,106.5 30.6,101.9 "/>
<circle id="full_circle_00000030451553959008348480000015969677405684671145_" class="st0" cx="103.3" cy="103.3" r="102.9"/>
<text transform="matrix(1 0 0 1 75.7201 85.8987)"><tspan x="0" y="0" class="st1 st2 st8">RBC Outsource</tspan><tspan x="14" y="10.7" class="st1 st2 st8">Partner</tspan></text>
<text transform="matrix(1 0 0 1 77.8129 110.0327)" class="st1 st2 st9">services provided</text>
<text transform="matrix(1 0 0 1 78.6459 119.8725)"><tspan x="0" y="0" class="st1 st2 st9">contract printing</tspan><tspan x="-5.3" y="8.4" class="st1 st2 st9">contract embroidery</tspan></text>
<circle class="st0" cx="103.3" cy="103.3" r="43.7"/>
</svg>
