<?xml version="1.0" encoding="utf-8"?>
<!-- Generator: Adobe Illustrator 28.2.0, SVG Export Plug-In . SVG Version: 6.00 Build 0)  -->
<svg version="1.1" id="Layer_1" xmlns="http://www.w3.org/2000/svg" xmlns:xlink="http://www.w3.org/1999/xlink" x="0px" y="0px"
	 viewBox="0 0 206.9 206.9" style="enable-background:new 0 0 206.9 206.9;" xml:space="preserve">
<style type="text/css">
	.st0{fill:none;stroke:#A3A3A3;stroke-width:0.75;stroke-miterlimit:10;}
	.st1{fill:#A3A3A3;}
</style>
<circle class="st0" cx="104.2" cy="176.4" r="25.9"/>
<g>
	<path class="st1" d="M97.8,165h1.5v0.3h-1.1v0.9h1v0.3h-1v1.2h-0.3V165z"/>
	<path class="st1" d="M100,165.3c0,0.1-0.1,0.2-0.2,0.2c-0.1,0-0.2-0.1-0.2-0.2c0-0.1,0.1-0.2,0.2-0.2C99.9,165,100,165.1,100,165.3
		z M99.6,167.7v-1.9h0.4v1.9H99.6z"/>
	<path class="st1" d="M100.5,164.9h0.4v2.8h-0.4V164.9z"/>
	<path class="st1" d="M101.9,165.3c0,0.1-0.1,0.2-0.2,0.2c-0.1,0-0.2-0.1-0.2-0.2c0-0.1,0.1-0.2,0.2-0.2
		C101.8,165,101.9,165.1,101.9,165.3z M101.5,167.7v-1.9h0.4v1.9H101.5z"/>
	<path class="st1" d="M102.4,167.7c0-0.1,0-0.3,0-0.5v-2.3h0.3v1.2h0c0.1-0.2,0.3-0.4,0.7-0.4c0.5,0,0.8,0.4,0.8,1
		c0,0.7-0.4,1-0.9,1c-0.3,0-0.5-0.1-0.7-0.4h0l0,0.3H102.4z M102.8,167c0,0,0,0.1,0,0.1c0.1,0.2,0.3,0.4,0.5,0.4
		c0.4,0,0.6-0.3,0.6-0.7c0-0.4-0.2-0.7-0.6-0.7c-0.2,0-0.5,0.2-0.5,0.4c0,0,0,0.1,0,0.1V167z"/>
	<path class="st1" d="M104.9,166.8c0,0.5,0.3,0.7,0.7,0.7c0.3,0,0.4,0,0.5-0.1l0.1,0.3c-0.1,0.1-0.3,0.1-0.6,0.1c-0.6,0-1-0.4-1-1
		s0.3-1,0.9-1c0.6,0,0.8,0.6,0.8,0.9c0,0.1,0,0.1,0,0.2H104.9z M105.9,166.6c0-0.2-0.1-0.6-0.5-0.6c-0.4,0-0.5,0.3-0.5,0.6H105.9z"
		/>
	<path class="st1" d="M106.7,166.4c0-0.2,0-0.4,0-0.6h0.3l0,0.4h0c0.1-0.3,0.3-0.4,0.5-0.4c0,0,0.1,0,0.1,0v0.3c0,0-0.1,0-0.1,0
		c-0.2,0-0.4,0.2-0.5,0.5c0,0,0,0.1,0,0.2v1h-0.3V166.4z"/>
	<path class="st1" d="M108.5,165.2v0.6h0.5v0.3h-0.5v1c0,0.2,0.1,0.4,0.3,0.4c0.1,0,0.2,0,0.2,0l0,0.3c-0.1,0-0.2,0-0.3,0
		c-0.2,0-0.3-0.1-0.4-0.1c-0.1-0.1-0.1-0.3-0.1-0.5v-1.1h-0.3v-0.3h0.3v-0.5L108.5,165.2z"/>
	<path class="st1" d="M111.2,166.8c0,0.7-0.5,1-1,1c-0.5,0-0.9-0.4-0.9-1c0-0.7,0.4-1,1-1C110.8,165.8,111.2,166.2,111.2,166.8z
		 M109.6,166.8c0,0.4,0.2,0.7,0.6,0.7c0.3,0,0.6-0.3,0.6-0.8c0-0.3-0.2-0.7-0.6-0.7S109.6,166.4,109.6,166.8z"/>
</g>
<g>
	<path class="st1" d="M92.7,169.3v0.8h1v-0.8H94v2h-0.3v-1h-1v1h-0.3v-2H92.7z"/>
	<path class="st1" d="M94.6,170.6c0,0.4,0.2,0.5,0.5,0.5c0.2,0,0.3,0,0.4-0.1l0,0.2c-0.1,0-0.3,0.1-0.5,0.1c-0.4,0-0.7-0.3-0.7-0.7
		c0-0.4,0.3-0.8,0.7-0.8c0.5,0,0.6,0.4,0.6,0.7c0,0.1,0,0.1,0,0.1H94.6z M95.3,170.4c0-0.2-0.1-0.4-0.4-0.4c-0.3,0-0.4,0.2-0.4,0.4
		H95.3z"/>
	<path class="st1" d="M96.7,171.3l0-0.2h0c-0.1,0.1-0.2,0.2-0.4,0.2c-0.3,0-0.4-0.2-0.4-0.4c0-0.4,0.3-0.5,0.9-0.5v0
		c0-0.1,0-0.3-0.3-0.3c-0.1,0-0.3,0-0.4,0.1l-0.1-0.2c0.1-0.1,0.3-0.1,0.5-0.1c0.4,0,0.6,0.3,0.6,0.6v0.5c0,0.1,0,0.2,0,0.3H96.7z
		 M96.7,170.5c-0.3,0-0.6,0-0.6,0.3c0,0.2,0.1,0.3,0.2,0.3c0.2,0,0.3-0.1,0.4-0.2c0,0,0-0.1,0-0.1V170.5z"/>
	<path class="st1" d="M98.6,169.2v1.8c0,0.1,0,0.3,0,0.4h-0.2l0-0.3h0c-0.1,0.2-0.3,0.3-0.5,0.3c-0.4,0-0.6-0.3-0.6-0.7
		c0-0.5,0.3-0.8,0.7-0.8c0.2,0,0.4,0.1,0.4,0.2h0v-0.9H98.6z M98.4,170.4c0,0,0-0.1,0-0.1c0-0.2-0.2-0.3-0.4-0.3
		c-0.3,0-0.4,0.2-0.4,0.6c0,0.3,0.1,0.5,0.4,0.5c0.2,0,0.3-0.1,0.4-0.3c0,0,0-0.1,0-0.1V170.4z"/>
	<path class="st1" d="M101,170.5c0,0.5-0.4,0.8-0.7,0.8c-0.4,0-0.7-0.3-0.7-0.7c0-0.5,0.3-0.8,0.7-0.8
		C100.7,169.8,101,170.1,101,170.5z M99.9,170.6c0,0.3,0.2,0.6,0.4,0.6c0.3,0,0.4-0.2,0.4-0.6c0-0.2-0.1-0.6-0.4-0.6
		S99.9,170.3,99.9,170.6z"/>
	<path class="st1" d="M101.4,171.3V170h-0.2v-0.2h0.2v-0.1c0-0.2,0-0.4,0.2-0.5c0.1-0.1,0.2-0.1,0.4-0.1c0.1,0,0.2,0,0.2,0l0,0.2
		c0,0-0.1,0-0.2,0c-0.2,0-0.3,0.2-0.3,0.4v0.1h0.4v0.2h-0.4v1.3H101.4z"/>
	<path class="st1" d="M102.9,169.3c0.1,0,0.3,0,0.5,0c0.3,0,0.4,0.1,0.6,0.2c0.1,0.1,0.2,0.2,0.2,0.4c0,0.2-0.1,0.3-0.2,0.4
		c-0.1,0.1-0.4,0.2-0.6,0.2c-0.1,0-0.1,0-0.2,0v0.8h-0.3V169.3z M103.1,170.3c0.1,0,0.1,0,0.2,0c0.3,0,0.5-0.2,0.5-0.4
		c0-0.3-0.2-0.4-0.5-0.4c-0.1,0-0.2,0-0.2,0V170.3z"/>
	<path class="st1" d="M104.4,170.3c0-0.2,0-0.3,0-0.5h0.2l0,0.3h0c0.1-0.2,0.2-0.3,0.4-0.3c0,0,0.1,0,0.1,0v0.2c0,0-0.1,0-0.1,0
		c-0.2,0-0.3,0.1-0.4,0.3c0,0,0,0.1,0,0.1v0.8h-0.3V170.3z"/>
	<path class="st1" d="M106.7,170.5c0,0.5-0.4,0.8-0.7,0.8c-0.4,0-0.7-0.3-0.7-0.7c0-0.5,0.3-0.8,0.7-0.8
		C106.4,169.8,106.7,170.1,106.7,170.5z M105.5,170.6c0,0.3,0.2,0.6,0.4,0.6c0.3,0,0.4-0.2,0.4-0.6c0-0.2-0.1-0.6-0.4-0.6
		S105.5,170.3,105.5,170.6z"/>
	<path class="st1" d="M108.3,169.2v1.8c0,0.1,0,0.3,0,0.4h-0.2l0-0.3h0c-0.1,0.2-0.3,0.3-0.5,0.3c-0.4,0-0.6-0.3-0.6-0.7
		c0-0.5,0.3-0.8,0.7-0.8c0.2,0,0.4,0.1,0.4,0.2h0v-0.9H108.3z M108,170.4c0,0,0-0.1,0-0.1c0-0.2-0.2-0.3-0.4-0.3
		c-0.3,0-0.4,0.2-0.4,0.6c0,0.3,0.1,0.5,0.4,0.5c0.2,0,0.3-0.1,0.4-0.3c0,0,0-0.1,0-0.1V170.4z"/>
	<path class="st1" d="M109.9,170.9c0,0.2,0,0.3,0,0.4h-0.2l0-0.2h0c-0.1,0.1-0.2,0.3-0.5,0.3c-0.2,0-0.5-0.1-0.5-0.6v-0.9h0.3v0.8
		c0,0.3,0.1,0.5,0.3,0.5c0.2,0,0.3-0.1,0.3-0.2c0,0,0-0.1,0-0.1v-0.9h0.3V170.9z"/>
	<path class="st1" d="M111.4,171.2c-0.1,0-0.2,0.1-0.4,0.1c-0.4,0-0.7-0.3-0.7-0.7c0-0.4,0.3-0.8,0.8-0.8c0.2,0,0.3,0,0.4,0.1
		l-0.1,0.2c-0.1,0-0.2-0.1-0.3-0.1c-0.3,0-0.5,0.2-0.5,0.5c0,0.3,0.2,0.5,0.5,0.5c0.2,0,0.2,0,0.3-0.1L111.4,171.2z"/>
	<path class="st1" d="M112.1,169.4v0.4h0.4v0.2h-0.4v0.8c0,0.2,0.1,0.3,0.2,0.3c0.1,0,0.1,0,0.2,0l0,0.2c-0.1,0-0.1,0-0.2,0
		c-0.1,0-0.2,0-0.3-0.1c-0.1-0.1-0.1-0.2-0.1-0.4V170h-0.2v-0.2h0.2v-0.3L112.1,169.4z"/>
	<path class="st1" d="M113.1,169.4c0,0.1-0.1,0.2-0.2,0.2c-0.1,0-0.2-0.1-0.2-0.2c0-0.1,0.1-0.2,0.2-0.2
		C113,169.3,113.1,169.3,113.1,169.4z M112.8,171.3v-1.5h0.3v1.5H112.8z"/>
	<path class="st1" d="M114.8,170.5c0,0.5-0.4,0.8-0.7,0.8c-0.4,0-0.7-0.3-0.7-0.7c0-0.5,0.3-0.8,0.7-0.8
		C114.5,169.8,114.8,170.1,114.8,170.5z M113.6,170.6c0,0.3,0.2,0.6,0.4,0.6c0.3,0,0.4-0.2,0.4-0.6c0-0.2-0.1-0.6-0.4-0.6
		S113.6,170.3,113.6,170.6z"/>
	<path class="st1" d="M115.1,170.2c0-0.1,0-0.3,0-0.4h0.2l0,0.2h0c0.1-0.1,0.2-0.3,0.5-0.3c0.2,0,0.5,0.1,0.5,0.6v0.9h-0.3v-0.8
		c0-0.2-0.1-0.4-0.3-0.4c-0.2,0-0.3,0.1-0.4,0.3c0,0,0,0.1,0,0.1v0.9h-0.3V170.2z"/>
</g>
<g>
	<path class="st1" d="M86.2,188.5c0.1,0,0.3,0,0.5,0c0.3,0,0.4,0.1,0.6,0.2c0.1,0.1,0.2,0.2,0.2,0.4c0,0.2-0.1,0.3-0.2,0.4
		c-0.1,0.1-0.4,0.2-0.6,0.2c-0.1,0-0.1,0-0.2,0v0.8h-0.3V188.5z M86.4,189.4c0.1,0,0.1,0,0.2,0c0.3,0,0.5-0.2,0.5-0.4
		c0-0.3-0.2-0.4-0.5-0.4c-0.1,0-0.2,0-0.2,0V189.4z"/>
	<path class="st1" d="M87.7,189.5c0-0.2,0-0.3,0-0.5h0.2l0,0.3h0c0.1-0.2,0.2-0.3,0.4-0.3c0,0,0.1,0,0.1,0v0.2c0,0-0.1,0-0.1,0
		c-0.2,0-0.3,0.1-0.4,0.3c0,0,0,0.1,0,0.1v0.8h-0.3V189.5z"/>
	<path class="st1" d="M88.8,189.8c0,0.4,0.2,0.5,0.5,0.5c0.2,0,0.3,0,0.4-0.1l0,0.2c-0.1,0-0.3,0.1-0.5,0.1c-0.4,0-0.7-0.3-0.7-0.7
		c0-0.4,0.3-0.8,0.7-0.8c0.5,0,0.6,0.4,0.6,0.7c0,0.1,0,0.1,0,0.1H88.8z M89.6,189.6c0-0.2-0.1-0.4-0.4-0.4c-0.3,0-0.4,0.2-0.4,0.4
		H89.6z"/>
	<path class="st1" d="M90.1,190.2c0.1,0.1,0.2,0.1,0.3,0.1c0.2,0,0.3-0.1,0.3-0.2c0-0.1-0.1-0.2-0.3-0.3c-0.3-0.1-0.4-0.2-0.4-0.4
		c0-0.2,0.2-0.4,0.5-0.4c0.1,0,0.3,0,0.4,0.1l-0.1,0.2c-0.1,0-0.2-0.1-0.3-0.1c-0.2,0-0.2,0.1-0.2,0.2c0,0.1,0.1,0.2,0.3,0.2
		c0.3,0.1,0.4,0.2,0.4,0.4c0,0.3-0.2,0.4-0.5,0.4c-0.2,0-0.3,0-0.4-0.1L90.1,190.2z"/>
	<path class="st1" d="M91.3,190.2c0.1,0.1,0.2,0.1,0.3,0.1c0.2,0,0.3-0.1,0.3-0.2c0-0.1-0.1-0.2-0.3-0.3c-0.3-0.1-0.4-0.2-0.4-0.4
		c0-0.2,0.2-0.4,0.5-0.4c0.1,0,0.3,0,0.4,0.1l-0.1,0.2c-0.1,0-0.2-0.1-0.3-0.1c-0.2,0-0.2,0.1-0.2,0.2c0,0.1,0.1,0.2,0.3,0.2
		c0.3,0.1,0.4,0.2,0.4,0.4c0,0.3-0.2,0.4-0.5,0.4c-0.2,0-0.3,0-0.4-0.1L91.3,190.2z"/>
	<path class="st1" d="M94.9,189.4c0,0.7-0.4,1.1-0.9,1.1c-0.5,0-0.9-0.4-0.9-1c0-0.6,0.4-1.1,0.9-1.1
		C94.6,188.4,94.9,188.8,94.9,189.4z M93.4,189.5c0,0.4,0.2,0.8,0.6,0.8c0.4,0,0.6-0.4,0.6-0.8c0-0.4-0.2-0.8-0.6-0.8
		C93.6,188.6,93.4,189,93.4,189.5z"/>
	<path class="st1" d="M95.3,189.5c0-0.2,0-0.3,0-0.5h0.2l0,0.2h0c0.1-0.2,0.3-0.3,0.5-0.3c0.4,0,0.6,0.3,0.6,0.7
		c0,0.5-0.3,0.8-0.7,0.8c-0.2,0-0.4-0.1-0.4-0.2h0v0.8h-0.3V189.5z M95.5,189.9c0,0,0,0.1,0,0.1c0,0.2,0.2,0.3,0.4,0.3
		c0.3,0,0.4-0.2,0.4-0.6c0-0.3-0.2-0.5-0.4-0.5c-0.2,0-0.3,0.1-0.4,0.3c0,0,0,0.1,0,0.1V189.9z"/>
	<path class="st1" d="M97.1,189.8c0,0.4,0.2,0.5,0.5,0.5c0.2,0,0.3,0,0.4-0.1l0,0.2c-0.1,0-0.3,0.1-0.5,0.1c-0.4,0-0.7-0.3-0.7-0.7
		c0-0.4,0.3-0.8,0.7-0.8c0.5,0,0.6,0.4,0.6,0.7c0,0.1,0,0.1,0,0.1H97.1z M97.9,189.6c0-0.2-0.1-0.4-0.4-0.4c-0.3,0-0.4,0.2-0.4,0.4
		H97.9z"/>
	<path class="st1" d="M98.5,189.5c0-0.2,0-0.3,0-0.5h0.2l0,0.3h0c0.1-0.2,0.2-0.3,0.4-0.3c0,0,0.1,0,0.1,0v0.2c0,0-0.1,0-0.1,0
		c-0.2,0-0.3,0.1-0.4,0.3c0,0,0,0.1,0,0.1v0.8h-0.3V189.5z"/>
	<path class="st1" d="M100.3,190.5l0-0.2h0c-0.1,0.1-0.2,0.2-0.4,0.2c-0.3,0-0.4-0.2-0.4-0.4c0-0.4,0.3-0.5,0.9-0.5v0
		c0-0.1,0-0.3-0.3-0.3c-0.1,0-0.3,0-0.4,0.1l-0.1-0.2c0.1-0.1,0.3-0.1,0.5-0.1c0.4,0,0.6,0.3,0.6,0.6v0.5c0,0.1,0,0.2,0,0.3H100.3z
		 M100.2,189.7c-0.3,0-0.6,0-0.6,0.3c0,0.2,0.1,0.3,0.2,0.3c0.2,0,0.3-0.1,0.4-0.2c0,0,0-0.1,0-0.1V189.7z"/>
	<path class="st1" d="M101.2,188.6v0.4h0.4v0.2h-0.4v0.8c0,0.2,0.1,0.3,0.2,0.3c0.1,0,0.1,0,0.2,0l0,0.2c-0.1,0-0.1,0-0.2,0
		c-0.1,0-0.2,0-0.3-0.1c-0.1-0.1-0.1-0.2-0.1-0.4v-0.8h-0.2V189h0.2v-0.3L101.2,188.6z"/>
	<path class="st1" d="M103.2,189.7c0,0.5-0.4,0.8-0.7,0.8c-0.4,0-0.7-0.3-0.7-0.7c0-0.5,0.3-0.8,0.7-0.8
		C102.9,189,103.2,189.3,103.2,189.7z M102,189.7c0,0.3,0.2,0.6,0.4,0.6c0.3,0,0.4-0.2,0.4-0.6c0-0.2-0.1-0.6-0.4-0.6
		S102,189.5,102,189.7z"/>
	<path class="st1" d="M103.5,189.5c0-0.2,0-0.3,0-0.5h0.2l0,0.3h0c0.1-0.2,0.2-0.3,0.4-0.3c0,0,0.1,0,0.1,0v0.2c0,0-0.1,0-0.1,0
		c-0.2,0-0.3,0.1-0.4,0.3c0,0,0,0.1,0,0.1v0.8h-0.3V189.5z"/>
</g>
<g>
	<path class="st1" d="M105.3,188.5c0.1,0,0.3,0,0.5,0c0.3,0,0.4,0.1,0.6,0.2c0.1,0.1,0.2,0.2,0.2,0.4c0,0.2-0.1,0.3-0.2,0.4
		c-0.1,0.1-0.4,0.2-0.6,0.2c-0.1,0-0.2,0-0.2,0v0.8h-0.3V188.5z M105.5,189.4c0.1,0,0.1,0,0.2,0c0.3,0,0.5-0.2,0.5-0.4
		c0-0.3-0.2-0.4-0.5-0.4c-0.1,0-0.2,0-0.2,0V189.4z"/>
	<path class="st1" d="M106.8,189.5c0-0.2,0-0.3,0-0.5h0.2l0,0.3h0c0.1-0.2,0.2-0.3,0.4-0.3c0,0,0.1,0,0.1,0v0.2c0,0-0.1,0-0.1,0
		c-0.2,0-0.3,0.1-0.4,0.3c0,0,0,0.1,0,0.1v0.8h-0.3V189.5z"/>
	<path class="st1" d="M107.9,189.8c0,0.4,0.2,0.5,0.5,0.5c0.2,0,0.3,0,0.4-0.1l0,0.2c-0.1,0-0.3,0.1-0.5,0.1c-0.4,0-0.7-0.3-0.7-0.7
		c0-0.4,0.3-0.8,0.7-0.8c0.5,0,0.6,0.4,0.6,0.7c0,0.1,0,0.1,0,0.1H107.9z M108.7,189.6c0-0.2-0.1-0.4-0.4-0.4
		c-0.3,0-0.4,0.2-0.4,0.4H108.7z"/>
	<path class="st1" d="M109.3,190.2c0.1,0.1,0.2,0.1,0.3,0.1c0.2,0,0.3-0.1,0.3-0.2c0-0.1-0.1-0.2-0.3-0.3c-0.3-0.1-0.4-0.2-0.4-0.4
		c0-0.2,0.2-0.4,0.5-0.4c0.1,0,0.3,0,0.4,0.1l-0.1,0.2c-0.1,0-0.2-0.1-0.3-0.1c-0.2,0-0.2,0.1-0.2,0.2c0,0.1,0.1,0.2,0.3,0.2
		c0.3,0.1,0.4,0.2,0.4,0.4c0,0.3-0.2,0.4-0.5,0.4c-0.2,0-0.3,0-0.4-0.1L109.3,190.2z"/>
	<path class="st1" d="M110.4,190.2c0.1,0.1,0.2,0.1,0.3,0.1c0.2,0,0.3-0.1,0.3-0.2c0-0.1-0.1-0.2-0.3-0.3c-0.3-0.1-0.4-0.2-0.4-0.4
		c0-0.2,0.2-0.4,0.5-0.4c0.1,0,0.3,0,0.4,0.1l-0.1,0.2c-0.1,0-0.2-0.1-0.3-0.1c-0.2,0-0.2,0.1-0.2,0.2c0,0.1,0.1,0.2,0.3,0.2
		c0.3,0.1,0.4,0.2,0.4,0.4c0,0.3-0.2,0.4-0.5,0.4c-0.2,0-0.3,0-0.4-0.1L110.4,190.2z"/>
	<path class="st1" d="M114,189.4c0,0.7-0.4,1.1-0.9,1.1c-0.5,0-0.9-0.4-0.9-1c0-0.6,0.4-1.1,0.9-1.1
		C113.7,188.4,114,188.8,114,189.4z M112.5,189.5c0,0.4,0.2,0.8,0.6,0.8c0.4,0,0.6-0.4,0.6-0.8c0-0.4-0.2-0.8-0.6-0.8
		C112.7,188.6,112.5,189,112.5,189.5z"/>
	<path class="st1" d="M114.4,189.5c0-0.2,0-0.3,0-0.5h0.2l0,0.2h0c0.1-0.2,0.3-0.3,0.5-0.3c0.4,0,0.6,0.3,0.6,0.7
		c0,0.5-0.3,0.8-0.7,0.8c-0.2,0-0.4-0.1-0.4-0.2h0v0.8h-0.3V189.5z M114.6,189.9c0,0,0,0.1,0,0.1c0,0.2,0.2,0.3,0.4,0.3
		c0.3,0,0.4-0.2,0.4-0.6c0-0.3-0.2-0.5-0.4-0.5c-0.2,0-0.3,0.1-0.4,0.3c0,0,0,0.1,0,0.1V189.9z"/>
	<path class="st1" d="M116.2,189.8c0,0.4,0.2,0.5,0.5,0.5c0.2,0,0.3,0,0.4-0.1l0,0.2c-0.1,0-0.3,0.1-0.5,0.1c-0.4,0-0.7-0.3-0.7-0.7
		c0-0.4,0.3-0.8,0.7-0.8c0.5,0,0.6,0.4,0.6,0.7c0,0.1,0,0.1,0,0.1H116.2z M117,189.6c0-0.2-0.1-0.4-0.4-0.4c-0.3,0-0.4,0.2-0.4,0.4
		H117z"/>
	<path class="st1" d="M117.6,189.5c0-0.2,0-0.3,0-0.5h0.2l0,0.3h0c0.1-0.2,0.2-0.3,0.4-0.3c0,0,0.1,0,0.1,0v0.2c0,0-0.1,0-0.1,0
		c-0.2,0-0.3,0.1-0.4,0.3c0,0,0,0.1,0,0.1v0.8h-0.3V189.5z"/>
	<path class="st1" d="M119.4,190.5l0-0.2h0c-0.1,0.1-0.2,0.2-0.4,0.2c-0.3,0-0.4-0.2-0.4-0.4c0-0.4,0.3-0.5,0.9-0.5v0
		c0-0.1,0-0.3-0.3-0.3c-0.1,0-0.3,0-0.4,0.1l-0.1-0.2c0.1-0.1,0.3-0.1,0.5-0.1c0.4,0,0.6,0.3,0.6,0.6v0.5c0,0.1,0,0.2,0,0.3H119.4z
		 M119.3,189.7c-0.3,0-0.6,0-0.6,0.3c0,0.2,0.1,0.3,0.2,0.3c0.2,0,0.3-0.1,0.4-0.2c0,0,0-0.1,0-0.1V189.7z"/>
	<path class="st1" d="M120.3,188.6v0.4h0.4v0.2h-0.4v0.8c0,0.2,0.1,0.3,0.2,0.3c0.1,0,0.1,0,0.2,0l0,0.2c-0.1,0-0.1,0-0.2,0
		c-0.1,0-0.2,0-0.3-0.1c-0.1-0.1-0.1-0.2-0.1-0.4v-0.8h-0.2V189h0.2v-0.3L120.3,188.6z"/>
	<path class="st1" d="M122.3,189.7c0,0.5-0.4,0.8-0.7,0.8c-0.4,0-0.7-0.3-0.7-0.7c0-0.5,0.3-0.8,0.7-0.8
		C122,189,122.3,189.3,122.3,189.7z M121.1,189.7c0,0.3,0.2,0.6,0.4,0.6c0.3,0,0.4-0.2,0.4-0.6c0-0.2-0.1-0.6-0.4-0.6
		S121.1,189.5,121.1,189.7z"/>
	<path class="st1" d="M122.6,189.5c0-0.2,0-0.3,0-0.5h0.2l0,0.3h0c0.1-0.2,0.2-0.3,0.4-0.3c0,0,0.1,0,0.1,0v0.2c0,0-0.1,0-0.1,0
		c-0.2,0-0.3,0.1-0.4,0.3c0,0,0,0.1,0,0.1v0.8h-0.3V189.5z"/>
</g>
<g>
	<path class="st1" d="M89.7,161.8c0.2,0.1,0.4,0.2,0.7,0.2c0.4,0,0.7-0.2,0.7-0.5c0-0.3-0.2-0.5-0.6-0.6c-0.5-0.2-0.8-0.4-0.8-0.9
		c0-0.5,0.4-0.9,1-0.9c0.3,0,0.6,0.1,0.7,0.2l-0.1,0.3c-0.1-0.1-0.3-0.1-0.6-0.1c-0.4,0-0.6,0.3-0.6,0.5c0,0.3,0.2,0.4,0.6,0.6
		c0.5,0.2,0.8,0.5,0.8,0.9c0,0.5-0.4,0.9-1.1,0.9c-0.3,0-0.6-0.1-0.8-0.2L89.7,161.8z"/>
	<path class="st1" d="M93.7,162.2c-0.1,0.1-0.3,0.1-0.6,0.1c-0.7,0-1.1-0.5-1.1-1.2c0-0.7,0.5-1.2,1.2-1.2c0.2,0,0.5,0.1,0.6,0.1
		l-0.1,0.3c-0.1-0.1-0.3-0.1-0.5-0.1c-0.5,0-0.8,0.4-0.8,0.9c0,0.5,0.3,0.8,0.8,0.8c0.2,0,0.4-0.1,0.5-0.1L93.7,162.2z"/>
	<path class="st1" d="M94.2,160.7c0-0.3,0-0.5,0-0.7h0.4l0,0.4h0c0.1-0.3,0.4-0.5,0.6-0.5c0,0,0.1,0,0.1,0v0.4c0,0-0.1,0-0.1,0
		c-0.3,0-0.5,0.2-0.6,0.5c0,0.1,0,0.1,0,0.2v1.2h-0.4V160.7z"/>
	<path class="st1" d="M95.9,161.2c0,0.6,0.4,0.8,0.8,0.8c0.3,0,0.5-0.1,0.6-0.1l0.1,0.3c-0.1,0.1-0.4,0.1-0.8,0.1
		c-0.7,0-1.1-0.5-1.1-1.1s0.4-1.2,1.1-1.2c0.7,0,0.9,0.6,0.9,1.1c0,0.1,0,0.1,0,0.2H95.9z M97.1,160.9c0-0.3-0.1-0.7-0.6-0.7
		c-0.4,0-0.6,0.4-0.6,0.7H97.1z"/>
	<path class="st1" d="M98.2,161.2c0,0.6,0.4,0.8,0.8,0.8c0.3,0,0.5-0.1,0.6-0.1l0.1,0.3c-0.1,0.1-0.4,0.1-0.8,0.1
		c-0.7,0-1.1-0.5-1.1-1.1s0.4-1.2,1.1-1.2c0.7,0,0.9,0.6,0.9,1.1c0,0.1,0,0.1,0,0.2H98.2z M99.4,160.9c0-0.3-0.1-0.7-0.6-0.7
		c-0.4,0-0.6,0.4-0.6,0.7H99.4z"/>
	<path class="st1" d="M100.3,160.6c0-0.2,0-0.4,0-0.6h0.4l0,0.4h0c0.1-0.2,0.4-0.4,0.7-0.4c0.3,0,0.8,0.2,0.8,1v1.3h-0.4V161
		c0-0.4-0.1-0.7-0.5-0.7c-0.3,0-0.5,0.2-0.6,0.4c0,0.1,0,0.1,0,0.2v1.4h-0.4V160.6z"/>
	<path class="st1" d="M103.9,159.2c0.2,0,0.5-0.1,0.8-0.1c0.4,0,0.7,0.1,0.9,0.3c0.2,0.1,0.3,0.4,0.3,0.7c0,0.3-0.1,0.5-0.2,0.7
		c-0.2,0.2-0.6,0.3-1,0.3c-0.1,0-0.2,0-0.3,0v1.3h-0.4V159.2z M104.3,160.7c0.1,0,0.2,0,0.3,0c0.5,0,0.8-0.2,0.8-0.7
		c0-0.4-0.3-0.6-0.7-0.6c-0.2,0-0.3,0-0.4,0V160.7z"/>
	<path class="st1" d="M106.3,160.7c0-0.3,0-0.5,0-0.7h0.4l0,0.4h0c0.1-0.3,0.3-0.5,0.6-0.5c0,0,0.1,0,0.1,0v0.4c0,0-0.1,0-0.1,0
		c-0.3,0-0.5,0.2-0.6,0.5c0,0.1,0,0.1,0,0.2v1.2h-0.4V160.7z"/>
	<path class="st1" d="M108.3,159.4c0,0.1-0.1,0.3-0.3,0.3c-0.1,0-0.2-0.1-0.2-0.3c0-0.1,0.1-0.3,0.3-0.3
		C108.2,159.1,108.3,159.2,108.3,159.4z M107.9,162.3V160h0.4v2.3H107.9z"/>
	<path class="st1" d="M109,160.6c0-0.2,0-0.4,0-0.6h0.4l0,0.4h0c0.1-0.2,0.4-0.4,0.7-0.4c0.3,0,0.8,0.2,0.8,1v1.3h-0.4V161
		c0-0.4-0.1-0.7-0.5-0.7c-0.3,0-0.5,0.2-0.6,0.4c0,0.1,0,0.1,0,0.2v1.4H109V160.6z"/>
	<path class="st1" d="M112,159.4v0.6h0.6v0.3H112v1.2c0,0.3,0.1,0.4,0.3,0.4c0.1,0,0.2,0,0.2,0l0,0.3c-0.1,0-0.2,0.1-0.4,0.1
		c-0.2,0-0.3-0.1-0.4-0.2c-0.1-0.1-0.2-0.3-0.2-0.6v-1.2h-0.4V160h0.4v-0.5L112,159.4z"/>
	<path class="st1" d="M113.5,159.4c0,0.1-0.1,0.3-0.3,0.3c-0.1,0-0.2-0.1-0.2-0.3c0-0.1,0.1-0.3,0.3-0.3
		C113.4,159.1,113.5,159.2,113.5,159.4z M113.1,162.3V160h0.4v2.3H113.1z"/>
	<path class="st1" d="M114.2,160.6c0-0.2,0-0.4,0-0.6h0.4l0,0.4h0c0.1-0.2,0.4-0.4,0.7-0.4c0.3,0,0.8,0.2,0.8,1v1.3h-0.4V161
		c0-0.4-0.1-0.7-0.5-0.7c-0.3,0-0.5,0.2-0.6,0.4c0,0.1,0,0.1,0,0.2v1.4h-0.4V160.6z"/>
	<path class="st1" d="M118.7,160c0,0.2,0,0.3,0,0.6v1.3c0,0.5-0.1,0.8-0.3,1c-0.2,0.2-0.5,0.3-0.8,0.3c-0.3,0-0.6-0.1-0.8-0.2
		l0.1-0.3c0.1,0.1,0.4,0.2,0.7,0.2c0.4,0,0.7-0.2,0.7-0.8v-0.3h0c-0.1,0.2-0.4,0.4-0.7,0.4c-0.6,0-1-0.5-1-1.1c0-0.8,0.5-1.2,1-1.2
		c0.4,0,0.6,0.2,0.7,0.4h0l0-0.3H118.7z M118.3,160.9c0-0.1,0-0.1,0-0.2c-0.1-0.2-0.3-0.4-0.6-0.4c-0.4,0-0.7,0.3-0.7,0.9
		c0,0.4,0.2,0.8,0.7,0.8c0.3,0,0.5-0.2,0.6-0.4c0-0.1,0-0.1,0-0.2V160.9z"/>
</g>
<g>
	<path class="st1" d="M111,184.5h1.4v0.3h-1v0.8h1v0.3h-1v1.1H111V184.5z"/>
	<path class="st1" d="M113.1,184.7c0,0.1-0.1,0.2-0.2,0.2c-0.1,0-0.2-0.1-0.2-0.2c0-0.1,0.1-0.2,0.2-0.2
		C113,184.5,113.1,184.6,113.1,184.7z M112.7,187.1v-1.8h0.3v1.8H112.7z"/>
	<path class="st1" d="M115.1,184.4v2.2c0,0.2,0,0.3,0,0.5h-0.3l0-0.3h0c-0.1,0.2-0.3,0.4-0.6,0.4c-0.4,0-0.8-0.4-0.8-0.9
		c0-0.6,0.4-1,0.8-1c0.3,0,0.5,0.1,0.5,0.3h0v-1.1H115.1z M114.8,186c0,0,0-0.1,0-0.1c0-0.2-0.2-0.4-0.5-0.4c-0.3,0-0.5,0.3-0.5,0.7
		c0,0.4,0.2,0.7,0.5,0.7c0.2,0,0.4-0.1,0.5-0.4c0,0,0-0.1,0-0.1V186z"/>
	<path class="st1" d="M115.9,186.2c0,0.4,0.3,0.6,0.6,0.6c0.2,0,0.4,0,0.5-0.1l0.1,0.2c-0.1,0.1-0.3,0.1-0.6,0.1
		c-0.6,0-0.9-0.4-0.9-0.9c0-0.5,0.3-1,0.9-1c0.6,0,0.8,0.5,0.8,0.9c0,0.1,0,0.1,0,0.2H115.9z M116.8,186c0-0.2-0.1-0.5-0.5-0.5
		c-0.3,0-0.5,0.3-0.5,0.5H116.8z"/>
	<path class="st1" d="M117.6,184.4h0.3v2.7h-0.3V184.4z"/>
</g>
<g>
	<path class="st1" d="M91.7,184v1.1h1.2V184h0.3v2.5h-0.3v-1.2h-1.2v1.2h-0.3V184H91.7z"/>
	<path class="st1" d="M95.3,186c0,0.2,0,0.4,0,0.5H95l0-0.3h0c-0.1,0.1-0.3,0.3-0.6,0.3c-0.3,0-0.6-0.2-0.6-0.8v-1.1h0.3v1
		c0,0.3,0.1,0.6,0.4,0.6c0.2,0,0.4-0.2,0.4-0.3c0,0,0-0.1,0-0.2v-1.1h0.3V186z"/>
	<path class="st1" d="M97.4,184.7c0,0.1,0,0.3,0,0.5v1.1c0,0.4-0.1,0.7-0.3,0.8c-0.2,0.2-0.4,0.2-0.7,0.2c-0.2,0-0.5-0.1-0.6-0.1
		l0.1-0.3c0.1,0.1,0.3,0.1,0.5,0.1c0.3,0,0.6-0.2,0.6-0.6v-0.2h0c-0.1,0.2-0.3,0.3-0.6,0.3c-0.5,0-0.8-0.4-0.8-0.9
		c0-0.6,0.4-1,0.8-1c0.3,0,0.5,0.2,0.6,0.3h0l0-0.3H97.4z M97.1,185.4c0-0.1,0-0.1,0-0.2c-0.1-0.2-0.2-0.3-0.5-0.3
		c-0.3,0-0.5,0.3-0.5,0.7c0,0.4,0.2,0.7,0.5,0.7c0.2,0,0.4-0.1,0.5-0.3c0-0.1,0-0.1,0-0.2V185.4z"/>
	<path class="st1" d="M99.6,185.6c0,0.7-0.5,1-0.9,1c-0.5,0-0.9-0.4-0.9-0.9c0-0.6,0.4-1,0.9-1C99.2,184.7,99.6,185.1,99.6,185.6z
		 M98.1,185.6c0,0.4,0.2,0.7,0.6,0.7c0.3,0,0.6-0.3,0.6-0.7c0-0.3-0.2-0.7-0.5-0.7C98.3,184.9,98.1,185.3,98.1,185.6z"/>
</g>
<polyline class="st0" points="113.9,182.4 113.9,177.8 104.2,177.8 "/>
<polyline class="st0" points="94.9,182.4 94.9,177.8 104.2,177.8 104.2,173.2 "/>
<circle class="st0" cx="103.9" cy="29.4" r="25.9"/>
<g>
	<path class="st1" d="M98.5,20l-0.3,0.9h-0.4l0.9-2.7h0.4l0.9,2.7h-0.4L99.5,20H98.5z M99.4,19.7l-0.3-0.8c-0.1-0.2-0.1-0.3-0.1-0.5
		h0c0,0.2-0.1,0.3-0.1,0.5l-0.3,0.8H99.4z"/>
	<path class="st1" d="M100.5,18h0.4v2.8h-0.4V18z"/>
	<path class="st1" d="M101.4,20.8c0-0.1,0-0.3,0-0.5V18h0.3v1.2h0c0.1-0.2,0.3-0.4,0.7-0.4c0.5,0,0.8,0.4,0.8,1c0,0.7-0.4,1-0.9,1
		c-0.3,0-0.5-0.1-0.7-0.4h0l0,0.3H101.4z M101.8,20.1c0,0,0,0.1,0,0.1c0.1,0.2,0.3,0.4,0.5,0.4c0.4,0,0.6-0.3,0.6-0.7
		c0-0.4-0.2-0.7-0.6-0.7c-0.2,0-0.5,0.2-0.5,0.4c0,0,0,0.1,0,0.1V20.1z"/>
	<path class="st1" d="M103.9,19.9c0,0.5,0.3,0.7,0.7,0.7c0.3,0,0.4,0,0.5-0.1l0.1,0.3c-0.1,0.1-0.3,0.1-0.6,0.1c-0.6,0-1-0.4-1-1
		s0.3-1,0.9-1c0.6,0,0.8,0.6,0.8,0.9c0,0.1,0,0.1,0,0.2H103.9z M105,19.7c0-0.2-0.1-0.6-0.5-0.6c-0.4,0-0.5,0.3-0.5,0.6H105z"/>
	<path class="st1" d="M105.7,19.5c0-0.2,0-0.4,0-0.6h0.3l0,0.4h0c0.1-0.3,0.3-0.4,0.5-0.4c0,0,0.1,0,0.1,0v0.3c0,0-0.1,0-0.1,0
		c-0.2,0-0.4,0.2-0.5,0.5c0,0,0,0.1,0,0.2v1h-0.3V19.5z"/>
	<path class="st1" d="M107.6,18.3v0.6h0.5v0.3h-0.5v1c0,0.2,0.1,0.4,0.3,0.4c0.1,0,0.2,0,0.2,0l0,0.3c-0.1,0-0.2,0-0.3,0
		c-0.2,0-0.3-0.1-0.4-0.1c-0.1-0.1-0.1-0.3-0.1-0.5v-1.1h-0.3v-0.3h0.3v-0.5L107.6,18.3z"/>
	<path class="st1" d="M110.2,19.9c0,0.7-0.5,1-1,1c-0.5,0-0.9-0.4-0.9-1c0-0.7,0.4-1,1-1C109.8,18.9,110.2,19.3,110.2,19.9z
		 M108.7,19.9c0,0.4,0.2,0.7,0.6,0.7c0.3,0,0.6-0.3,0.6-0.8c0-0.3-0.2-0.7-0.6-0.7S108.7,19.5,108.7,19.9z"/>
</g>
<g>
	<path class="st1" d="M96.8,24.1c0.1,0.1,0.3,0.1,0.5,0.1c0.3,0,0.4-0.1,0.4-0.3c0-0.2-0.1-0.3-0.4-0.4c-0.3-0.1-0.5-0.3-0.5-0.6
		c0-0.3,0.3-0.6,0.7-0.6c0.2,0,0.4,0,0.4,0.1l-0.1,0.2c-0.1,0-0.2-0.1-0.4-0.1c-0.3,0-0.4,0.2-0.4,0.3c0,0.2,0.1,0.3,0.4,0.4
		c0.3,0.1,0.5,0.3,0.5,0.6c0,0.3-0.2,0.6-0.7,0.6c-0.2,0-0.4-0.1-0.5-0.1L96.8,24.1z"/>
	<path class="st1" d="M99.4,24.3c-0.1,0-0.2,0.1-0.4,0.1c-0.4,0-0.7-0.3-0.7-0.7c0-0.4,0.3-0.8,0.8-0.8c0.2,0,0.3,0,0.4,0.1
		l-0.1,0.2c-0.1,0-0.2-0.1-0.3-0.1c-0.3,0-0.5,0.2-0.5,0.5c0,0.3,0.2,0.5,0.5,0.5c0.2,0,0.2,0,0.3-0.1L99.4,24.3z"/>
	<path class="st1" d="M99.7,23.4c0-0.2,0-0.3,0-0.5h0.2l0,0.3h0c0.1-0.2,0.2-0.3,0.4-0.3c0,0,0.1,0,0.1,0v0.2c0,0-0.1,0-0.1,0
		c-0.2,0-0.3,0.1-0.4,0.3c0,0,0,0.1,0,0.1v0.8h-0.3V23.4z"/>
	<path class="st1" d="M100.8,23.7c0,0.4,0.2,0.5,0.5,0.5c0.2,0,0.3,0,0.4-0.1l0,0.2c-0.1,0-0.3,0.1-0.5,0.1c-0.4,0-0.7-0.3-0.7-0.7
		c0-0.4,0.3-0.8,0.7-0.8c0.5,0,0.6,0.4,0.6,0.7c0,0.1,0,0.1,0,0.1H100.8z M101.6,23.5c0-0.2-0.1-0.4-0.4-0.4c-0.3,0-0.4,0.2-0.4,0.4
		H101.6z"/>
	<path class="st1" d="M102.3,23.7c0,0.4,0.2,0.5,0.5,0.5c0.2,0,0.3,0,0.4-0.1l0,0.2c-0.1,0-0.3,0.1-0.5,0.1c-0.4,0-0.7-0.3-0.7-0.7
		c0-0.4,0.3-0.8,0.7-0.8c0.5,0,0.6,0.4,0.6,0.7c0,0.1,0,0.1,0,0.1H102.3z M103.1,23.5c0-0.2-0.1-0.4-0.4-0.4c-0.3,0-0.4,0.2-0.4,0.4
		H103.1z"/>
	<path class="st1" d="M103.7,23.3c0-0.1,0-0.3,0-0.4h0.2l0,0.2h0c0.1-0.1,0.2-0.3,0.5-0.3c0.2,0,0.5,0.1,0.5,0.6v0.9h-0.3v-0.8
		c0-0.2-0.1-0.4-0.3-0.4c-0.2,0-0.3,0.1-0.4,0.3c0,0,0,0.1,0,0.1v0.9h-0.3V23.3z"/>
	<path class="st1" d="M106,22.4c0.1,0,0.3,0,0.5,0c0.3,0,0.4,0.1,0.6,0.2c0.1,0.1,0.2,0.2,0.2,0.4c0,0.2-0.1,0.3-0.2,0.4
		c-0.1,0.1-0.4,0.2-0.6,0.2c-0.1,0-0.1,0-0.2,0v0.8H106V22.4z M106.3,23.4c0.1,0,0.1,0,0.2,0c0.3,0,0.5-0.2,0.5-0.4
		c0-0.3-0.2-0.4-0.5-0.4c-0.1,0-0.2,0-0.2,0V23.4z"/>
	<path class="st1" d="M107.5,23.4c0-0.2,0-0.3,0-0.5h0.2l0,0.3h0c0.1-0.2,0.2-0.3,0.4-0.3c0,0,0.1,0,0.1,0v0.2c0,0-0.1,0-0.1,0
		c-0.2,0-0.3,0.1-0.4,0.3c0,0,0,0.1,0,0.1v0.8h-0.3V23.4z"/>
	<path class="st1" d="M108.6,23.7c0,0.4,0.2,0.5,0.5,0.5c0.2,0,0.3,0,0.4-0.1l0,0.2c-0.1,0-0.3,0.1-0.5,0.1c-0.4,0-0.7-0.3-0.7-0.7
		c0-0.4,0.3-0.8,0.7-0.8c0.5,0,0.6,0.4,0.6,0.7c0,0.1,0,0.1,0,0.1H108.6z M109.4,23.5c0-0.2-0.1-0.4-0.4-0.4c-0.3,0-0.4,0.2-0.4,0.4
		H109.4z"/>
	<path class="st1" d="M110,23.4c0-0.2,0-0.3,0-0.5h0.2l0,0.2h0c0.1-0.2,0.3-0.3,0.5-0.3c0.4,0,0.6,0.3,0.6,0.7
		c0,0.5-0.3,0.8-0.7,0.8c-0.2,0-0.4-0.1-0.4-0.2h0V25H110V23.4z M110.3,23.8c0,0,0,0.1,0,0.1c0,0.2,0.2,0.3,0.4,0.3
		c0.3,0,0.4-0.2,0.4-0.6c0-0.3-0.2-0.5-0.4-0.5c-0.2,0-0.3,0.1-0.4,0.3c0,0,0,0.1,0,0.1V23.8z"/>
</g>
<g>
	<path class="st1" d="M87.6,43.5c-0.1,0-0.3,0.1-0.5,0.1c-0.5,0-0.9-0.3-0.9-0.9c0-0.6,0.4-0.9,0.9-0.9c0.2,0,0.4,0,0.4,0.1L87.6,42
		c-0.1,0-0.2-0.1-0.4-0.1c-0.4,0-0.7,0.3-0.7,0.7c0,0.4,0.3,0.7,0.7,0.7c0.1,0,0.3,0,0.4-0.1L87.6,43.5z"/>
	<path class="st1" d="M89,43.2c0,0.1,0,0.3,0,0.4h-0.2l0-0.2h0c-0.1,0.1-0.2,0.2-0.4,0.2c-0.2,0-0.4-0.1-0.4-0.6v-0.8h0.2V43
		c0,0.2,0.1,0.4,0.3,0.4c0.2,0,0.3-0.1,0.3-0.2c0,0,0-0.1,0-0.1v-0.8H89V43.2z"/>
	<path class="st1" d="M89.3,43.3c0.1,0,0.2,0.1,0.3,0.1c0.2,0,0.3-0.1,0.3-0.2c0-0.1-0.1-0.2-0.2-0.2c-0.2-0.1-0.3-0.2-0.3-0.4
		c0-0.2,0.2-0.4,0.4-0.4c0.1,0,0.2,0,0.3,0.1L90,42.5c-0.1,0-0.1-0.1-0.3-0.1c-0.1,0-0.2,0.1-0.2,0.2c0,0.1,0.1,0.2,0.2,0.2
		c0.2,0.1,0.3,0.2,0.3,0.4c0,0.2-0.2,0.4-0.5,0.4c-0.1,0-0.3,0-0.4-0.1L89.3,43.3z"/>
	<path class="st1" d="M90.7,41.9v0.4H91v0.2h-0.3v0.7c0,0.2,0,0.3,0.2,0.3c0.1,0,0.1,0,0.1,0l0,0.2c0,0-0.1,0-0.2,0
		c-0.1,0-0.2,0-0.3-0.1c-0.1-0.1-0.1-0.2-0.1-0.3v-0.7h-0.2v-0.2h0.2V42L90.7,41.9z"/>
	<path class="st1" d="M92.5,42.9c0,0.5-0.3,0.7-0.6,0.7c-0.4,0-0.6-0.3-0.6-0.7c0-0.4,0.3-0.7,0.6-0.7
		C92.2,42.2,92.5,42.5,92.5,42.9z M91.4,42.9c0,0.3,0.2,0.5,0.4,0.5c0.2,0,0.4-0.2,0.4-0.5c0-0.2-0.1-0.5-0.4-0.5
		C91.6,42.4,91.4,42.7,91.4,42.9z"/>
	<path class="st1" d="M92.8,42.6c0-0.1,0-0.2,0-0.3H93l0,0.2h0c0.1-0.1,0.2-0.2,0.4-0.2c0.2,0,0.3,0.1,0.4,0.3h0
		c0-0.1,0.1-0.1,0.1-0.2c0.1-0.1,0.2-0.1,0.3-0.1c0.2,0,0.4,0.1,0.4,0.6v0.8h-0.2v-0.7c0-0.2-0.1-0.4-0.3-0.4
		c-0.1,0-0.2,0.1-0.3,0.2c0,0,0,0.1,0,0.1v0.8h-0.2v-0.8c0-0.2-0.1-0.4-0.3-0.4c-0.1,0-0.3,0.1-0.3,0.2c0,0,0,0.1,0,0.1v0.8h-0.2
		V42.6z"/>
	<path class="st1" d="M95.8,41.8v1.8h-0.2v-1.8H95.8z"/>
	<path class="st1" d="M96.2,42.6c0-0.1,0-0.2,0-0.3h0.2l0,0.2h0c0.1-0.1,0.2-0.2,0.4-0.2c0.2,0,0.5,0.1,0.5,0.6v0.8h-0.2v-0.7
		c0-0.2-0.1-0.4-0.3-0.4c-0.2,0-0.3,0.1-0.3,0.2c0,0,0,0.1,0,0.1v0.8h-0.2V42.6z"/>
	<path class="st1" d="M97.9,42.9L97.9,42.9c0,0,0.1-0.1,0.1-0.1l0.4-0.4h0.3l-0.5,0.5l0.6,0.8h-0.3l-0.4-0.6l-0.1,0.1v0.5h-0.2v-1.9
		h0.2V42.9z"/>
	<path class="st1" d="M101,42.8c0-0.3,0-0.6,0-0.8h0c-0.1,0.2-0.1,0.4-0.2,0.7l-0.3,0.9h-0.2l-0.3-0.9c-0.1-0.3-0.2-0.5-0.2-0.7h0
		c0,0.2,0,0.5,0,0.8l0,0.8h-0.2l0.1-1.8h0.3l0.3,0.9c0.1,0.2,0.1,0.4,0.2,0.6h0c0-0.2,0.1-0.4,0.2-0.6l0.3-0.9h0.3l0.1,1.8h-0.2
		L101,42.8z"/>
	<path class="st1" d="M102,41.9c0,0.1-0.1,0.1-0.1,0.1c-0.1,0-0.1-0.1-0.1-0.1c0-0.1,0.1-0.1,0.1-0.1C101.9,41.8,102,41.8,102,41.9z
		 M101.7,43.6v-1.3h0.2v1.3H101.7z"/>
	<path class="st1" d="M102.4,42.3l0.2,0.3c0,0.1,0.1,0.1,0.1,0.2h0c0-0.1,0.1-0.1,0.1-0.2l0.2-0.3h0.3l-0.4,0.6l0.5,0.7h-0.3
		l-0.2-0.3c-0.1-0.1-0.1-0.1-0.1-0.2h0c0,0.1-0.1,0.1-0.1,0.2l-0.2,0.3h-0.3l0.5-0.7l-0.4-0.6H102.4z"/>
</g>
<g>
	<path class="st1" d="M106,43.3c0.1,0.1,0.3,0.1,0.4,0.1c0.2,0,0.4-0.1,0.4-0.3c0-0.2-0.1-0.3-0.3-0.4c-0.3-0.1-0.5-0.3-0.5-0.5
		c0-0.3,0.2-0.5,0.6-0.5c0.2,0,0.3,0,0.4,0.1l-0.1,0.2c-0.1,0-0.2-0.1-0.3-0.1c-0.2,0-0.3,0.1-0.3,0.3c0,0.2,0.1,0.3,0.4,0.3
		c0.3,0.1,0.5,0.3,0.5,0.5c0,0.3-0.2,0.5-0.6,0.5c-0.2,0-0.4-0.1-0.5-0.1L106,43.3z"/>
	<path class="st1" d="M108.3,43.5c-0.1,0-0.2,0.1-0.4,0.1c-0.4,0-0.6-0.3-0.6-0.7c0-0.4,0.3-0.7,0.7-0.7c0.1,0,0.3,0,0.3,0.1
		l-0.1,0.2c-0.1,0-0.1-0.1-0.3-0.1c-0.3,0-0.5,0.2-0.5,0.5c0,0.3,0.2,0.5,0.4,0.5c0.1,0,0.2,0,0.3-0.1L108.3,43.5z"/>
	<path class="st1" d="M108.6,42.7c0-0.2,0-0.3,0-0.4h0.2l0,0.3h0c0.1-0.2,0.2-0.3,0.4-0.3c0,0,0,0,0.1,0v0.2c0,0,0,0-0.1,0
		c-0.2,0-0.3,0.1-0.3,0.3c0,0,0,0.1,0,0.1v0.7h-0.2V42.7z"/>
	<path class="st1" d="M109.6,43c0,0.3,0.2,0.4,0.4,0.4c0.2,0,0.3,0,0.4-0.1l0,0.2c-0.1,0-0.2,0.1-0.4,0.1c-0.4,0-0.6-0.3-0.6-0.7
		s0.2-0.7,0.6-0.7c0.4,0,0.5,0.4,0.5,0.6c0,0,0,0.1,0,0.1H109.6z M110.3,42.8c0-0.1-0.1-0.4-0.3-0.4c-0.2,0-0.3,0.2-0.4,0.4H110.3z"
		/>
	<path class="st1" d="M110.9,43c0,0.3,0.2,0.4,0.4,0.4c0.2,0,0.3,0,0.4-0.1l0,0.2c-0.1,0-0.2,0.1-0.4,0.1c-0.4,0-0.6-0.3-0.6-0.7
		s0.2-0.7,0.6-0.7c0.4,0,0.5,0.4,0.5,0.6c0,0,0,0.1,0,0.1H110.9z M111.6,42.8c0-0.1-0.1-0.4-0.3-0.4c-0.2,0-0.3,0.2-0.4,0.4H111.6z"
		/>
	<path class="st1" d="M112.1,42.6c0-0.1,0-0.2,0-0.3h0.2l0,0.2h0c0.1-0.1,0.2-0.2,0.4-0.2c0.2,0,0.5,0.1,0.5,0.6v0.8H113v-0.7
		c0-0.2-0.1-0.4-0.3-0.4c-0.2,0-0.3,0.1-0.3,0.2c0,0,0,0.1,0,0.1v0.8h-0.2V42.6z"/>
	<path class="st1" d="M115.1,42.7h-0.7v0.6h0.8v0.2h-1v-1.8h1V42h-0.7v0.6h0.7V42.7z"/>
	<path class="st1" d="M115.6,42.3l0.2,0.3c0,0.1,0.1,0.1,0.1,0.2h0c0-0.1,0.1-0.1,0.1-0.2l0.2-0.3h0.3l-0.4,0.6l0.5,0.7h-0.3
		l-0.2-0.3c-0.1-0.1-0.1-0.1-0.1-0.2h0c0,0.1-0.1,0.1-0.1,0.2l-0.2,0.3h-0.3l0.5-0.7l-0.4-0.6H115.6z"/>
	<path class="st1" d="M116.7,42.7c0-0.2,0-0.3,0-0.4h0.2l0,0.2h0c0.1-0.2,0.2-0.3,0.5-0.3c0.3,0,0.5,0.3,0.5,0.7
		c0,0.5-0.3,0.7-0.6,0.7c-0.2,0-0.3-0.1-0.4-0.2h0v0.7h-0.2V42.7z M116.9,43C116.9,43.1,117,43.1,116.9,43c0.1,0.3,0.2,0.4,0.4,0.4
		c0.2,0,0.4-0.2,0.4-0.5c0-0.3-0.1-0.5-0.4-0.5c-0.2,0-0.3,0.1-0.4,0.3c0,0,0,0.1,0,0.1V43z"/>
	<path class="st1" d="M119.4,42.9c0,0.5-0.3,0.7-0.6,0.7c-0.4,0-0.6-0.3-0.6-0.7c0-0.4,0.3-0.7,0.6-0.7
		C119.2,42.2,119.4,42.5,119.4,42.9z M118.4,42.9c0,0.3,0.2,0.5,0.4,0.5c0.2,0,0.4-0.2,0.4-0.5c0-0.2-0.1-0.5-0.4-0.5
		S118.4,42.7,118.4,42.9z"/>
	<path class="st1" d="M119.7,43.3c0.1,0,0.2,0.1,0.3,0.1c0.2,0,0.3-0.1,0.3-0.2c0-0.1-0.1-0.2-0.2-0.2c-0.2-0.1-0.3-0.2-0.3-0.4
		c0-0.2,0.2-0.4,0.4-0.4c0.1,0,0.2,0,0.3,0.1l-0.1,0.2c-0.1,0-0.1-0.1-0.3-0.1c-0.1,0-0.2,0.1-0.2,0.2c0,0.1,0.1,0.2,0.2,0.2
		c0.2,0.1,0.3,0.2,0.3,0.4c0,0.2-0.2,0.4-0.5,0.4c-0.1,0-0.3,0-0.4-0.1L119.7,43.3z"/>
	<path class="st1" d="M120.9,43c0,0.3,0.2,0.4,0.4,0.4c0.2,0,0.3,0,0.4-0.1l0,0.2c-0.1,0-0.2,0.1-0.4,0.1c-0.4,0-0.6-0.3-0.6-0.7
		s0.2-0.7,0.6-0.7c0.4,0,0.5,0.4,0.5,0.6c0,0,0,0.1,0,0.1H120.9z M121.6,42.8c0-0.1-0.1-0.4-0.3-0.4c-0.2,0-0.3,0.2-0.4,0.4H121.6z"
		/>
</g>
<g>
	<path class="st1" d="M91.3,12.9c0.2,0.1,0.4,0.2,0.7,0.2c0.4,0,0.7-0.2,0.7-0.5c0-0.3-0.2-0.5-0.6-0.6c-0.5-0.2-0.8-0.4-0.8-0.9
		c0-0.5,0.4-0.9,1-0.9c0.3,0,0.6,0.1,0.7,0.2l-0.1,0.3c-0.1-0.1-0.3-0.1-0.6-0.1c-0.4,0-0.6,0.3-0.6,0.5c0,0.3,0.2,0.4,0.6,0.6
		c0.5,0.2,0.8,0.5,0.8,0.9c0,0.5-0.4,0.9-1.1,0.9c-0.3,0-0.6-0.1-0.8-0.2L91.3,12.9z"/>
	<path class="st1" d="M95.3,13.3c-0.1,0.1-0.3,0.1-0.6,0.1c-0.7,0-1.1-0.5-1.1-1.2c0-0.7,0.5-1.2,1.2-1.2c0.2,0,0.5,0.1,0.6,0.1
		l-0.1,0.3c-0.1-0.1-0.3-0.1-0.5-0.1c-0.5,0-0.8,0.4-0.8,0.9c0,0.5,0.3,0.8,0.8,0.8c0.2,0,0.4-0.1,0.5-0.1L95.3,13.3z"/>
	<path class="st1" d="M95.8,11.8c0-0.3,0-0.5,0-0.7h0.4l0,0.4h0c0.1-0.3,0.4-0.5,0.6-0.5c0,0,0.1,0,0.1,0v0.4c0,0-0.1,0-0.1,0
		c-0.3,0-0.5,0.2-0.6,0.5c0,0.1,0,0.1,0,0.2v1.2h-0.4V11.8z"/>
	<path class="st1" d="M97.5,12.3c0,0.6,0.4,0.8,0.8,0.8c0.3,0,0.5-0.1,0.6-0.1l0.1,0.3c-0.1,0.1-0.4,0.1-0.8,0.1
		c-0.7,0-1.1-0.5-1.1-1.1s0.4-1.2,1.1-1.2c0.7,0,0.9,0.6,0.9,1.1c0,0.1,0,0.1,0,0.2H97.5z M98.7,12c0-0.3-0.1-0.7-0.6-0.7
		c-0.4,0-0.6,0.4-0.6,0.7H98.7z"/>
	<path class="st1" d="M99.8,12.3c0,0.6,0.4,0.8,0.8,0.8c0.3,0,0.5-0.1,0.6-0.1l0.1,0.3c-0.1,0.1-0.4,0.1-0.8,0.1
		c-0.7,0-1.1-0.5-1.1-1.1s0.4-1.2,1.1-1.2c0.7,0,0.9,0.6,0.9,1.1c0,0.1,0,0.1,0,0.2H99.8z M101,12c0-0.3-0.1-0.7-0.6-0.7
		c-0.4,0-0.6,0.4-0.6,0.7H101z"/>
	<path class="st1" d="M101.9,11.7c0-0.2,0-0.4,0-0.6h0.4l0,0.4h0c0.1-0.2,0.4-0.4,0.7-0.4c0.3,0,0.8,0.2,0.8,1v1.3h-0.4v-1.3
		c0-0.4-0.1-0.7-0.5-0.7c-0.3,0-0.5,0.2-0.6,0.4c0,0.1,0,0.1,0,0.2v1.4h-0.4V11.7z"/>
	<path class="st1" d="M105.5,10.3c0.2,0,0.5-0.1,0.8-0.1c0.4,0,0.7,0.1,0.9,0.3c0.2,0.1,0.2,0.4,0.2,0.6c0,0.4-0.3,0.7-0.6,0.8v0
		c0.2,0.1,0.4,0.3,0.5,0.6c0.1,0.4,0.2,0.7,0.2,0.9h-0.4c-0.1-0.1-0.1-0.4-0.2-0.8c-0.1-0.4-0.3-0.6-0.6-0.6H106v1.4h-0.4V10.3z
		 M106,11.7h0.4c0.4,0,0.7-0.2,0.7-0.6c0-0.4-0.3-0.6-0.7-0.6c-0.2,0-0.3,0-0.4,0V11.7z"/>
	<path class="st1" d="M110.1,12.2c0,0.8-0.6,1.2-1.1,1.2c-0.6,0-1.1-0.4-1.1-1.2c0-0.8,0.5-1.2,1.1-1.2
		C109.7,11.1,110.1,11.5,110.1,12.2z M108.3,12.2c0,0.5,0.3,0.9,0.7,0.9c0.4,0,0.7-0.4,0.7-0.9c0-0.4-0.2-0.9-0.7-0.9
		S108.3,11.8,108.3,12.2z"/>
	<path class="st1" d="M112.7,12.2c0,0.8-0.6,1.2-1.1,1.2c-0.6,0-1.1-0.4-1.1-1.2c0-0.8,0.5-1.2,1.1-1.2
		C112.2,11.1,112.7,11.5,112.7,12.2z M110.9,12.2c0,0.5,0.3,0.9,0.7,0.9c0.4,0,0.7-0.4,0.7-0.9c0-0.4-0.2-0.9-0.7-0.9
		C111.1,11.4,110.9,11.8,110.9,12.2z"/>
	<path class="st1" d="M113.2,11.7c0-0.2,0-0.4,0-0.6h0.4l0,0.4h0c0.1-0.2,0.3-0.4,0.7-0.4c0.3,0,0.5,0.2,0.6,0.5h0
		c0.1-0.1,0.2-0.2,0.3-0.3c0.1-0.1,0.3-0.2,0.5-0.2c0.3,0,0.7,0.2,0.7,1v1.3H116v-1.3c0-0.4-0.2-0.7-0.5-0.7c-0.2,0-0.4,0.2-0.5,0.4
		c0,0.1,0,0.1,0,0.2v1.4h-0.4V12c0-0.4-0.2-0.6-0.5-0.6c-0.3,0-0.4,0.2-0.5,0.4c0,0.1,0,0.1,0,0.2v1.4h-0.4V11.7z"/>
</g>
<g>
	<path class="st1" d="M108.9,39.4l-0.3,0.8h-0.3l0.9-2.5h0.4l0.9,2.5h-0.3l-0.3-0.8H108.9z M109.7,39.1l-0.2-0.7
		c-0.1-0.2-0.1-0.3-0.1-0.5h0c0,0.2-0.1,0.3-0.1,0.5l-0.2,0.7H109.7z"/>
	<path class="st1" d="M110.8,37.5h0.3v2.7h-0.3V37.5z"/>
	<path class="st1" d="M111.6,40.1c0-0.1,0-0.3,0-0.5v-2.2h0.3v1.1h0c0.1-0.2,0.3-0.3,0.6-0.3c0.5,0,0.8,0.4,0.8,0.9
		c0,0.6-0.4,1-0.8,1c-0.3,0-0.5-0.1-0.6-0.3h0l0,0.3H111.6z M112,39.4c0,0,0,0.1,0,0.1c0.1,0.2,0.3,0.4,0.5,0.4
		c0.3,0,0.6-0.3,0.6-0.7c0-0.4-0.2-0.7-0.5-0.7c-0.2,0-0.4,0.2-0.5,0.4c0,0,0,0.1,0,0.1V39.4z"/>
	<path class="st1" d="M114,39.3c0,0.4,0.3,0.6,0.6,0.6c0.2,0,0.4,0,0.5-0.1l0.1,0.2c-0.1,0.1-0.3,0.1-0.6,0.1
		c-0.6,0-0.9-0.4-0.9-0.9c0-0.5,0.3-1,0.9-1c0.6,0,0.8,0.5,0.8,0.9c0,0.1,0,0.1,0,0.2H114z M114.9,39.1c0-0.2-0.1-0.5-0.5-0.5
		c-0.3,0-0.5,0.3-0.5,0.5H114.9z"/>
	<path class="st1" d="M115.7,38.9c0-0.2,0-0.4,0-0.6h0.3l0,0.4h0c0.1-0.2,0.3-0.4,0.5-0.4c0,0,0.1,0,0.1,0v0.3c0,0-0.1,0-0.1,0
		c-0.2,0-0.4,0.2-0.4,0.4c0,0,0,0.1,0,0.2v1h-0.3V38.9z"/>
	<path class="st1" d="M117.4,37.8v0.5h0.5v0.3h-0.5v1c0,0.2,0.1,0.4,0.2,0.4c0.1,0,0.2,0,0.2,0l0,0.2c-0.1,0-0.2,0-0.3,0
		c-0.2,0-0.3,0-0.4-0.1c-0.1-0.1-0.1-0.3-0.1-0.5v-1h-0.3v-0.3h0.3v-0.4L117.4,37.8z"/>
	<path class="st1" d="M119.8,39.2c0,0.7-0.5,1-0.9,1c-0.5,0-0.9-0.4-0.9-0.9c0-0.6,0.4-1,0.9-1C119.5,38.3,119.8,38.7,119.8,39.2z
		 M118.4,39.2c0,0.4,0.2,0.7,0.6,0.7c0.3,0,0.6-0.3,0.6-0.7c0-0.3-0.2-0.7-0.5-0.7C118.6,38.5,118.4,38.9,118.4,39.2z"/>
</g>
<g>
	<path class="st1" d="M92.1,39.5c-0.1,0.1-0.4,0.1-0.7,0.1c-0.7,0-1.2-0.5-1.2-1.3c0-0.8,0.5-1.3,1.3-1.3c0.3,0,0.5,0.1,0.6,0.1
		L92,37.4c-0.1-0.1-0.3-0.1-0.5-0.1c-0.6,0-1,0.4-1,1c0,0.6,0.4,1,1,1c0.2,0,0.4,0,0.5-0.1L92.1,39.5z"/>
	<path class="st1" d="M93.5,39.6l0-0.2h0c-0.1,0.1-0.3,0.3-0.6,0.3c-0.4,0-0.6-0.3-0.6-0.5c0-0.4,0.4-0.7,1.1-0.7v0
		c0-0.2,0-0.4-0.4-0.4c-0.2,0-0.3,0.1-0.5,0.1l-0.1-0.2c0.2-0.1,0.4-0.2,0.6-0.2c0.6,0,0.7,0.4,0.7,0.7v0.7c0,0.2,0,0.3,0,0.4H93.5z
		 M93.4,38.7c-0.4,0-0.8,0.1-0.8,0.4c0,0.2,0.1,0.3,0.3,0.3c0.2,0,0.4-0.1,0.4-0.3c0,0,0-0.1,0-0.1V38.7z"/>
	<path class="st1" d="M94.3,38.4c0-0.2,0-0.4,0-0.6h0.3l0,0.4h0c0.1-0.2,0.3-0.4,0.5-0.4c0,0,0.1,0,0.1,0v0.3c0,0-0.1,0-0.1,0
		c-0.2,0-0.4,0.2-0.4,0.4c0,0,0,0.1,0,0.2v1h-0.3V38.4z"/>
	<path class="st1" d="M95.9,37.3c0,0.1-0.1,0.2-0.2,0.2c-0.1,0-0.2-0.1-0.2-0.2c0-0.1,0.1-0.2,0.2-0.2
		C95.8,37.1,95.9,37.2,95.9,37.3z M95.5,39.6v-1.8h0.3v1.8H95.5z"/>
	<path class="st1" d="M96.4,38.3c0-0.2,0-0.3,0-0.5h0.3l0,0.3h0c0.1-0.2,0.3-0.3,0.6-0.3c0.3,0,0.6,0.2,0.6,0.8v1.1h-0.3v-1
		c0-0.3-0.1-0.5-0.4-0.5c-0.2,0-0.4,0.2-0.4,0.3c0,0,0,0.1,0,0.2v1.1h-0.3V38.3z"/>
	<path class="st1" d="M99.5,39.6l0-0.2h0c-0.1,0.1-0.3,0.3-0.6,0.3c-0.4,0-0.6-0.3-0.6-0.5c0-0.4,0.4-0.7,1.1-0.7v0
		c0-0.2,0-0.4-0.4-0.4c-0.2,0-0.3,0.1-0.5,0.1l-0.1-0.2c0.2-0.1,0.4-0.2,0.6-0.2c0.6,0,0.7,0.4,0.7,0.7v0.7c0,0.2,0,0.3,0,0.4H99.5z
		 M99.5,38.7c-0.4,0-0.8,0.1-0.8,0.4c0,0.2,0.1,0.3,0.3,0.3c0.2,0,0.4-0.1,0.4-0.3c0,0,0-0.1,0-0.1V38.7z"/>
</g>
<polyline class="st0" points="113.5,35.5 113.5,30.9 103.9,30.9 "/>
<polyline class="st0" points="94.5,35.5 94.5,30.9 103.9,30.9 103.9,26.2 "/>
<circle class="st0" cx="176.3" cy="105.1" r="25.9"/>
<g>
	<path class="st1" d="M169.9,93.8h1.5v0.3h-1.1V95h1v0.3h-1v1.2h-0.3V93.8z"/>
	<path class="st1" d="M172.1,94c0,0.1-0.1,0.2-0.2,0.2c-0.1,0-0.2-0.1-0.2-0.2c0-0.1,0.1-0.2,0.2-0.2C172,93.8,172.1,93.9,172.1,94z
		 M171.7,96.5v-1.9h0.4v1.9H171.7z"/>
	<path class="st1" d="M172.6,93.7h0.4v2.8h-0.4V93.7z"/>
	<path class="st1" d="M174,94c0,0.1-0.1,0.2-0.2,0.2c-0.1,0-0.2-0.1-0.2-0.2c0-0.1,0.1-0.2,0.2-0.2C173.9,93.8,174,93.9,174,94z
		 M173.6,96.5v-1.9h0.4v1.9H173.6z"/>
	<path class="st1" d="M174.5,96.5c0-0.1,0-0.3,0-0.5v-2.3h0.3v1.2h0c0.1-0.2,0.3-0.4,0.7-0.4c0.5,0,0.8,0.4,0.8,1c0,0.7-0.4,1-0.9,1
		c-0.3,0-0.5-0.1-0.6-0.4h0l0,0.3H174.5z M174.9,95.7c0,0,0,0.1,0,0.1c0.1,0.2,0.3,0.4,0.5,0.4c0.4,0,0.6-0.3,0.6-0.7
		c0-0.4-0.2-0.7-0.6-0.7c-0.2,0-0.5,0.2-0.5,0.4c0,0,0,0.1,0,0.1V95.7z"/>
	<path class="st1" d="M177,95.6c0,0.5,0.3,0.7,0.7,0.7c0.3,0,0.4,0,0.5-0.1l0.1,0.3c-0.1,0.1-0.3,0.1-0.6,0.1c-0.6,0-1-0.4-1-1
		s0.3-1,0.9-1c0.6,0,0.8,0.6,0.8,0.9c0,0.1,0,0.1,0,0.2H177z M178,95.4c0-0.2-0.1-0.6-0.5-0.6c-0.4,0-0.5,0.3-0.5,0.6H178z"/>
	<path class="st1" d="M178.8,95.2c0-0.2,0-0.4,0-0.6h0.3l0,0.4h0c0.1-0.3,0.3-0.4,0.5-0.4c0,0,0.1,0,0.1,0v0.3c0,0-0.1,0-0.1,0
		c-0.2,0-0.4,0.2-0.5,0.5c0,0,0,0.1,0,0.2v1h-0.3V95.2z"/>
	<path class="st1" d="M180.6,94v0.6h0.5v0.3h-0.5v1c0,0.2,0.1,0.4,0.3,0.4c0.1,0,0.2,0,0.2,0l0,0.3c-0.1,0-0.2,0-0.3,0
		c-0.2,0-0.3-0.1-0.4-0.1c-0.1-0.1-0.1-0.3-0.1-0.5v-1.1H180v-0.3h0.3v-0.5L180.6,94z"/>
	<path class="st1" d="M183.3,95.5c0,0.7-0.5,1-1,1c-0.5,0-0.9-0.4-0.9-1c0-0.7,0.4-1,1-1C182.9,94.5,183.3,94.9,183.3,95.5z
		 M181.7,95.5c0,0.4,0.2,0.7,0.6,0.7c0.3,0,0.6-0.3,0.6-0.8c0-0.3-0.2-0.7-0.6-0.7C181.9,94.8,181.7,95.2,181.7,95.5z"/>
</g>
<g>
	<path class="st1" d="M164.8,98v0.8h1V98h0.3v2h-0.3v-1h-1v1h-0.3v-2H164.8z"/>
	<path class="st1" d="M166.7,99.4c0,0.4,0.2,0.5,0.5,0.5c0.2,0,0.3,0,0.4-0.1l0,0.2c-0.1,0-0.3,0.1-0.5,0.1c-0.4,0-0.7-0.3-0.7-0.7
		c0-0.4,0.3-0.8,0.7-0.8c0.5,0,0.6,0.4,0.6,0.7c0,0.1,0,0.1,0,0.1H166.7z M167.4,99.2c0-0.2-0.1-0.4-0.4-0.4c-0.3,0-0.4,0.2-0.4,0.4
		H167.4z"/>
	<path class="st1" d="M168.8,100.1l0-0.2h0c-0.1,0.1-0.2,0.2-0.4,0.2c-0.3,0-0.4-0.2-0.4-0.4c0-0.4,0.3-0.5,0.9-0.5v0
		c0-0.1,0-0.3-0.3-0.3c-0.1,0-0.3,0-0.4,0.1l-0.1-0.2c0.1-0.1,0.3-0.1,0.5-0.1c0.4,0,0.6,0.3,0.6,0.6v0.5c0,0.1,0,0.2,0,0.3H168.8z
		 M168.8,99.3c-0.3,0-0.6,0-0.6,0.3c0,0.2,0.1,0.3,0.2,0.3c0.2,0,0.3-0.1,0.4-0.2c0,0,0-0.1,0-0.1V99.3z"/>
	<path class="st1" d="M170.7,97.9v1.8c0,0.1,0,0.3,0,0.4h-0.2l0-0.3h0c-0.1,0.2-0.3,0.3-0.5,0.3c-0.4,0-0.6-0.3-0.6-0.7
		c0-0.5,0.3-0.8,0.7-0.8c0.2,0,0.4,0.1,0.4,0.2h0v-0.9H170.7z M170.5,99.2c0,0,0-0.1,0-0.1c0-0.2-0.2-0.3-0.4-0.3
		c-0.3,0-0.4,0.2-0.4,0.6c0,0.3,0.1,0.5,0.4,0.5c0.2,0,0.3-0.1,0.4-0.3c0,0,0-0.1,0-0.1V99.2z"/>
	<path class="st1" d="M173.1,99.3c0,0.5-0.4,0.8-0.7,0.8c-0.4,0-0.7-0.3-0.7-0.7c0-0.5,0.3-0.8,0.7-0.8
		C172.8,98.6,173.1,98.9,173.1,99.3z M172,99.3c0,0.3,0.2,0.6,0.4,0.6c0.3,0,0.4-0.2,0.4-0.6c0-0.2-0.1-0.6-0.4-0.6
		C172.1,98.8,172,99.1,172,99.3z"/>
	<path class="st1" d="M173.5,100.1v-1.3h-0.2v-0.2h0.2v-0.1c0-0.2,0-0.4,0.2-0.5c0.1-0.1,0.2-0.1,0.4-0.1c0.1,0,0.2,0,0.2,0l0,0.2
		c0,0-0.1,0-0.2,0c-0.2,0-0.3,0.2-0.3,0.4v0.1h0.4v0.2h-0.4v1.3H173.5z"/>
	<path class="st1" d="M175,98.1c0.1,0,0.3,0,0.5,0c0.3,0,0.4,0.1,0.6,0.2c0.1,0.1,0.2,0.2,0.2,0.4c0,0.2-0.1,0.3-0.2,0.4
		c-0.1,0.1-0.4,0.2-0.6,0.2c-0.1,0-0.2,0-0.2,0v0.8H175V98.1z M175.2,99c0.1,0,0.1,0,0.2,0c0.3,0,0.5-0.2,0.5-0.4
		c0-0.3-0.2-0.4-0.5-0.4c-0.1,0-0.2,0-0.2,0V99z"/>
	<path class="st1" d="M176.5,99.1c0-0.2,0-0.3,0-0.5h0.2l0,0.3h0c0.1-0.2,0.2-0.3,0.4-0.3c0,0,0.1,0,0.1,0v0.2c0,0-0.1,0-0.1,0
		c-0.2,0-0.3,0.1-0.4,0.3c0,0,0,0.1,0,0.1v0.8h-0.3V99.1z"/>
	<path class="st1" d="M178.8,99.3c0,0.5-0.4,0.8-0.7,0.8c-0.4,0-0.7-0.3-0.7-0.7c0-0.5,0.3-0.8,0.7-0.8
		C178.5,98.6,178.8,98.9,178.8,99.3z M177.6,99.3c0,0.3,0.2,0.6,0.4,0.6c0.3,0,0.4-0.2,0.4-0.6c0-0.2-0.1-0.6-0.4-0.6
		C177.8,98.8,177.6,99.1,177.6,99.3z"/>
	<path class="st1" d="M180.4,97.9v1.8c0,0.1,0,0.3,0,0.4h-0.2l0-0.3h0c-0.1,0.2-0.3,0.3-0.5,0.3c-0.4,0-0.6-0.3-0.6-0.7
		c0-0.5,0.3-0.8,0.7-0.8c0.2,0,0.4,0.1,0.4,0.2h0v-0.9H180.4z M180.1,99.2c0,0,0-0.1,0-0.1c0-0.2-0.2-0.3-0.4-0.3
		c-0.3,0-0.4,0.2-0.4,0.6c0,0.3,0.1,0.5,0.4,0.5c0.2,0,0.3-0.1,0.4-0.3c0,0,0-0.1,0-0.1V99.2z"/>
	<path class="st1" d="M182,99.7c0,0.2,0,0.3,0,0.4h-0.2l0-0.2h0c-0.1,0.1-0.2,0.3-0.5,0.3c-0.2,0-0.5-0.1-0.5-0.6v-0.9h0.3v0.8
		c0,0.3,0.1,0.5,0.3,0.5c0.2,0,0.3-0.1,0.3-0.2c0,0,0-0.1,0-0.1v-0.9h0.3V99.7z"/>
	<path class="st1" d="M183.5,100c-0.1,0-0.2,0.1-0.4,0.1c-0.4,0-0.7-0.3-0.7-0.7c0-0.4,0.3-0.8,0.8-0.8c0.2,0,0.3,0,0.4,0.1
		l-0.1,0.2c-0.1,0-0.2-0.1-0.3-0.1c-0.3,0-0.5,0.2-0.5,0.5c0,0.3,0.2,0.5,0.5,0.5c0.2,0,0.2,0,0.3-0.1L183.5,100z"/>
	<path class="st1" d="M184.2,98.2v0.4h0.4v0.2h-0.4v0.8c0,0.2,0.1,0.3,0.2,0.3c0.1,0,0.1,0,0.2,0l0,0.2c-0.1,0-0.1,0-0.2,0
		c-0.1,0-0.2,0-0.3-0.1c-0.1-0.1-0.1-0.2-0.1-0.4v-0.8h-0.2v-0.2h0.2v-0.3L184.2,98.2z"/>
	<path class="st1" d="M185.1,98.2c0,0.1-0.1,0.2-0.2,0.2c-0.1,0-0.2-0.1-0.2-0.2c0-0.1,0.1-0.2,0.2-0.2
		C185.1,98,185.1,98.1,185.1,98.2z M184.8,100.1v-1.5h0.3v1.5H184.8z"/>
	<path class="st1" d="M186.9,99.3c0,0.5-0.4,0.8-0.7,0.8c-0.4,0-0.7-0.3-0.7-0.7c0-0.5,0.3-0.8,0.7-0.8
		C186.6,98.6,186.9,98.9,186.9,99.3z M185.7,99.3c0,0.3,0.2,0.6,0.4,0.6c0.3,0,0.4-0.2,0.4-0.6c0-0.2-0.1-0.6-0.4-0.6
		C185.8,98.8,185.7,99.1,185.7,99.3z"/>
	<path class="st1" d="M187.2,99c0-0.1,0-0.3,0-0.4h0.2l0,0.2h0c0.1-0.1,0.2-0.3,0.5-0.3c0.2,0,0.5,0.1,0.5,0.6v0.9h-0.3v-0.8
		c0-0.2-0.1-0.4-0.3-0.4c-0.2,0-0.3,0.1-0.4,0.3c0,0,0,0.1,0,0.1v0.9h-0.3V99z"/>
</g>
<g>
	<path class="st1" d="M163.5,118.2c0,0.7-0.4,1.1-0.9,1.1c-0.5,0-0.9-0.4-0.9-1c0-0.6,0.4-1.1,0.9-1.1
		C163.2,117.2,163.5,117.6,163.5,118.2z M161.9,118.2c0,0.4,0.2,0.8,0.6,0.8c0.4,0,0.6-0.4,0.6-0.8c0-0.4-0.2-0.8-0.6-0.8
		C162.2,117.4,161.9,117.8,161.9,118.2z"/>
	<path class="st1" d="M163.8,118.3c0-0.2,0-0.3,0-0.5h0.2l0,0.2h0c0.1-0.2,0.3-0.3,0.5-0.3c0.4,0,0.6,0.3,0.6,0.7
		c0,0.5-0.3,0.8-0.7,0.8c-0.2,0-0.4-0.1-0.4-0.2h0v0.8h-0.3V118.3z M164.1,118.6c0,0,0,0.1,0,0.1c0,0.2,0.2,0.3,0.4,0.3
		c0.3,0,0.4-0.2,0.4-0.6c0-0.3-0.2-0.5-0.4-0.5c-0.2,0-0.3,0.1-0.4,0.3c0,0,0,0.1,0,0.1V118.6z"/>
	<path class="st1" d="M165.7,118.6c0,0.4,0.2,0.5,0.5,0.5c0.2,0,0.3,0,0.4-0.1l0,0.2c-0.1,0-0.3,0.1-0.5,0.1c-0.4,0-0.7-0.3-0.7-0.7
		c0-0.4,0.3-0.8,0.7-0.8c0.5,0,0.6,0.4,0.6,0.7c0,0.1,0,0.1,0,0.1H165.7z M166.5,118.4c0-0.2-0.1-0.4-0.4-0.4
		c-0.3,0-0.4,0.2-0.4,0.4H166.5z"/>
	<path class="st1" d="M167.1,118.2c0-0.2,0-0.3,0-0.5h0.2l0,0.3h0c0.1-0.2,0.2-0.3,0.4-0.3c0,0,0.1,0,0.1,0v0.2c0,0-0.1,0-0.1,0
		c-0.2,0-0.3,0.1-0.4,0.3c0,0,0,0.1,0,0.1v0.8h-0.3V118.2z"/>
	<path class="st1" d="M168.8,119.2l0-0.2h0c-0.1,0.1-0.2,0.2-0.4,0.2c-0.3,0-0.4-0.2-0.4-0.4c0-0.4,0.3-0.5,0.9-0.5v0
		c0-0.1,0-0.3-0.3-0.3c-0.1,0-0.3,0-0.4,0.1l-0.1-0.2c0.1-0.1,0.3-0.1,0.5-0.1c0.4,0,0.6,0.3,0.6,0.6v0.5c0,0.1,0,0.2,0,0.3H168.8z
		 M168.8,118.5c-0.3,0-0.6,0-0.6,0.3c0,0.2,0.1,0.3,0.2,0.3c0.2,0,0.3-0.1,0.4-0.2c0,0,0-0.1,0-0.1V118.5z"/>
	<path class="st1" d="M169.8,117.4v0.4h0.4v0.2h-0.4v0.8c0,0.2,0.1,0.3,0.2,0.3c0.1,0,0.1,0,0.2,0l0,0.2c-0.1,0-0.1,0-0.2,0
		c-0.1,0-0.2,0-0.3-0.1c-0.1-0.1-0.1-0.2-0.1-0.4V118h-0.2v-0.2h0.2v-0.3L169.8,117.4z"/>
	<path class="st1" d="M171.8,118.5c0,0.5-0.4,0.8-0.7,0.8c-0.4,0-0.7-0.3-0.7-0.7c0-0.5,0.3-0.8,0.7-0.8
		C171.5,117.7,171.8,118,171.8,118.5z M170.6,118.5c0,0.3,0.2,0.6,0.4,0.6c0.3,0,0.4-0.2,0.4-0.6c0-0.2-0.1-0.6-0.4-0.6
		C170.7,117.9,170.6,118.2,170.6,118.5z"/>
	<path class="st1" d="M172.1,118.2c0-0.2,0-0.3,0-0.5h0.2l0,0.3h0c0.1-0.2,0.2-0.3,0.4-0.3c0,0,0.1,0,0.1,0v0.2c0,0-0.1,0-0.1,0
		c-0.2,0-0.3,0.1-0.4,0.3c0,0,0,0.1,0,0.1v0.8h-0.3V118.2z"/>
</g>
<g>
	<path class="st1" d="M182.6,118.2c0,0.7-0.4,1.1-0.9,1.1c-0.5,0-0.9-0.4-0.9-1c0-0.6,0.4-1.1,0.9-1.1
		C182.3,117.2,182.6,117.6,182.6,118.2z M181.1,118.2c0,0.4,0.2,0.8,0.6,0.8c0.4,0,0.6-0.4,0.6-0.8c0-0.4-0.2-0.8-0.6-0.8
		C181.3,117.4,181.1,117.8,181.1,118.2z"/>
	<path class="st1" d="M183,118.3c0-0.2,0-0.3,0-0.5h0.2l0,0.2h0c0.1-0.2,0.3-0.3,0.5-0.3c0.4,0,0.6,0.3,0.6,0.7
		c0,0.5-0.3,0.8-0.7,0.8c-0.2,0-0.4-0.1-0.4-0.2h0v0.8H183V118.3z M183.2,118.6c0,0,0,0.1,0,0.1c0,0.2,0.2,0.3,0.4,0.3
		c0.3,0,0.4-0.2,0.4-0.6c0-0.3-0.2-0.5-0.4-0.5c-0.2,0-0.3,0.1-0.4,0.3c0,0,0,0.1,0,0.1V118.6z"/>
	<path class="st1" d="M184.8,118.6c0,0.4,0.2,0.5,0.5,0.5c0.2,0,0.3,0,0.4-0.1l0,0.2c-0.1,0-0.3,0.1-0.5,0.1c-0.4,0-0.7-0.3-0.7-0.7
		c0-0.4,0.3-0.8,0.7-0.8c0.5,0,0.6,0.4,0.6,0.7c0,0.1,0,0.1,0,0.1H184.8z M185.6,118.4c0-0.2-0.1-0.4-0.4-0.4
		c-0.3,0-0.4,0.2-0.4,0.4H185.6z"/>
	<path class="st1" d="M186.2,118.2c0-0.2,0-0.3,0-0.5h0.2l0,0.3h0c0.1-0.2,0.2-0.3,0.4-0.3c0,0,0.1,0,0.1,0v0.2c0,0-0.1,0-0.1,0
		c-0.2,0-0.3,0.1-0.4,0.3c0,0,0,0.1,0,0.1v0.8h-0.3V118.2z"/>
	<path class="st1" d="M187.9,119.2l0-0.2h0c-0.1,0.1-0.2,0.2-0.4,0.2c-0.3,0-0.4-0.2-0.4-0.4c0-0.4,0.3-0.5,0.9-0.5v0
		c0-0.1,0-0.3-0.3-0.3c-0.1,0-0.3,0-0.4,0.1l-0.1-0.2c0.1-0.1,0.3-0.1,0.5-0.1c0.4,0,0.6,0.3,0.6,0.6v0.5c0,0.1,0,0.2,0,0.3H187.9z
		 M187.9,118.5c-0.3,0-0.6,0-0.6,0.3c0,0.2,0.1,0.3,0.2,0.3c0.2,0,0.3-0.1,0.4-0.2c0,0,0-0.1,0-0.1V118.5z"/>
	<path class="st1" d="M188.9,117.4v0.4h0.4v0.2h-0.4v0.8c0,0.2,0.1,0.3,0.2,0.3c0.1,0,0.1,0,0.2,0l0,0.2c-0.1,0-0.1,0-0.2,0
		c-0.1,0-0.2,0-0.3-0.1c-0.1-0.1-0.1-0.2-0.1-0.4V118h-0.2v-0.2h0.2v-0.3L188.9,117.4z"/>
	<path class="st1" d="M190.9,118.5c0,0.5-0.4,0.8-0.7,0.8c-0.4,0-0.7-0.3-0.7-0.7c0-0.5,0.3-0.8,0.7-0.8
		C190.6,117.7,190.9,118,190.9,118.5z M189.7,118.5c0,0.3,0.2,0.6,0.4,0.6c0.3,0,0.4-0.2,0.4-0.6c0-0.2-0.1-0.6-0.4-0.6
		C189.8,117.9,189.7,118.2,189.7,118.5z"/>
	<path class="st1" d="M191.2,118.2c0-0.2,0-0.3,0-0.5h0.2l0,0.3h0c0.1-0.2,0.2-0.3,0.4-0.3c0,0,0.1,0,0.1,0v0.2c0,0-0.1,0-0.1,0
		c-0.2,0-0.3,0.1-0.4,0.3c0,0,0,0.1,0,0.1v0.8h-0.3V118.2z"/>
</g>
<g>
	<path class="st1" d="M166.9,87.6h-1.2v1.1h1.4V89h-1.8v-3.1h1.7v0.3h-1.3v1h1.2V87.6z"/>
	<path class="st1" d="M167.5,87.4c0-0.2,0-0.4,0-0.6h0.4l0,0.4h0c0.1-0.2,0.3-0.4,0.7-0.4c0.3,0,0.5,0.2,0.6,0.5h0
		c0.1-0.1,0.2-0.2,0.3-0.3c0.1-0.1,0.3-0.2,0.5-0.2c0.3,0,0.7,0.2,0.7,1V89h-0.4v-1.3c0-0.4-0.2-0.7-0.5-0.7c-0.2,0-0.4,0.2-0.5,0.4
		c0,0.1,0,0.1,0,0.2V89H169v-1.4c0-0.4-0.2-0.6-0.5-0.6c-0.3,0-0.4,0.2-0.5,0.4c0,0.1,0,0.1,0,0.2V89h-0.4V87.4z"/>
	<path class="st1" d="M171.4,89c0-0.2,0-0.4,0-0.6v-2.7h0.4v1.4h0c0.1-0.3,0.4-0.4,0.8-0.4c0.6,0,1,0.5,1,1.2c0,0.8-0.5,1.2-1,1.2
		c-0.3,0-0.6-0.1-0.8-0.4h0l0,0.4H171.4z M171.8,88.1c0,0.1,0,0.1,0,0.1c0.1,0.3,0.3,0.5,0.6,0.5c0.4,0,0.7-0.4,0.7-0.9
		c0-0.5-0.2-0.8-0.7-0.8c-0.3,0-0.5,0.2-0.6,0.5c0,0,0,0.1,0,0.2V88.1z"/>
	<path class="st1" d="M174.1,87.5c0-0.3,0-0.5,0-0.7h0.4l0,0.4h0c0.1-0.3,0.3-0.5,0.6-0.5c0,0,0.1,0,0.1,0v0.4c0,0-0.1,0-0.1,0
		c-0.3,0-0.5,0.2-0.6,0.5c0,0.1,0,0.1,0,0.2V89h-0.4V87.5z"/>
	<path class="st1" d="M177.6,87.9c0,0.8-0.6,1.2-1.1,1.2c-0.6,0-1.1-0.4-1.1-1.2c0-0.8,0.5-1.2,1.1-1.2
		C177.2,86.7,177.6,87.2,177.6,87.9z M175.8,87.9c0,0.5,0.3,0.9,0.7,0.9c0.4,0,0.7-0.4,0.7-0.9c0-0.4-0.2-0.9-0.7-0.9
		C176,87,175.8,87.5,175.8,87.9z"/>
	<path class="st1" d="M178.6,86.2c0,0.1-0.1,0.3-0.3,0.3c-0.1,0-0.2-0.1-0.2-0.3c0-0.1,0.1-0.3,0.3-0.3
		C178.5,85.9,178.6,86,178.6,86.2z M178.1,89v-2.3h0.4V89H178.1z"/>
	<path class="st1" d="M181.2,85.7v2.7c0,0.2,0,0.4,0,0.6h-0.4l0-0.4h0c-0.1,0.3-0.4,0.4-0.8,0.4c-0.5,0-1-0.5-1-1.1
		c0-0.8,0.5-1.2,1-1.2c0.3,0,0.6,0.2,0.7,0.3h0v-1.3H181.2z M180.8,87.7c0-0.1,0-0.1,0-0.2c-0.1-0.3-0.3-0.5-0.6-0.5
		c-0.4,0-0.7,0.4-0.7,0.9c0,0.5,0.2,0.8,0.7,0.8c0.3,0,0.5-0.2,0.6-0.5c0-0.1,0-0.1,0-0.2V87.7z"/>
	<path class="st1" d="M182.1,88c0,0.6,0.4,0.8,0.8,0.8c0.3,0,0.5-0.1,0.6-0.1l0.1,0.3c-0.1,0.1-0.4,0.1-0.8,0.1
		c-0.7,0-1.1-0.5-1.1-1.1s0.4-1.2,1.1-1.2c0.7,0,0.9,0.6,0.9,1.1c0,0.1,0,0.1,0,0.2H182.1z M183.3,87.7c0-0.3-0.1-0.7-0.6-0.7
		c-0.4,0-0.6,0.4-0.6,0.7H183.3z"/>
	<path class="st1" d="M184.2,87.5c0-0.3,0-0.5,0-0.7h0.4l0,0.4h0c0.1-0.3,0.3-0.5,0.6-0.5c0,0,0.1,0,0.1,0v0.4c0,0-0.1,0-0.1,0
		c-0.3,0-0.5,0.2-0.6,0.5c0,0.1,0,0.1,0,0.2V89h-0.4V87.5z"/>
	<path class="st1" d="M186,86.8l0.5,1.3c0.1,0.1,0.1,0.3,0.1,0.5h0c0-0.1,0.1-0.3,0.1-0.5l0.4-1.3h0.4l-0.6,1.6
		c-0.3,0.8-0.5,1.2-0.8,1.4c-0.2,0.2-0.4,0.2-0.5,0.3l-0.1-0.3c0.1,0,0.2-0.1,0.4-0.2c0.1-0.1,0.3-0.2,0.3-0.5c0,0,0-0.1,0-0.1
		s0-0.1,0-0.1l-0.8-2.1H186z"/>
</g>
<g>
	<path class="st1" d="M183.3,114.7c0-0.4,0-0.8,0-1.1h0c-0.1,0.3-0.2,0.6-0.3,1l-0.4,1.2h-0.2l-0.4-1.2c-0.1-0.4-0.2-0.7-0.3-1h0
		c0,0.3,0,0.7,0,1.1l-0.1,1.1h-0.3l0.2-2.5h0.4l0.4,1.2c0.1,0.3,0.2,0.6,0.3,0.9h0c0.1-0.3,0.2-0.5,0.3-0.9l0.5-1.2h0.4l0.2,2.5
		h-0.3L183.3,114.7z"/>
	<path class="st1" d="M185.2,115.8l0-0.2h0c-0.1,0.1-0.3,0.3-0.6,0.3c-0.4,0-0.6-0.3-0.6-0.5c0-0.4,0.4-0.7,1.1-0.7v0
		c0-0.2,0-0.4-0.4-0.4c-0.2,0-0.3,0.1-0.5,0.1l-0.1-0.2c0.2-0.1,0.4-0.2,0.6-0.2c0.6,0,0.7,0.4,0.7,0.7v0.7c0,0.2,0,0.3,0,0.4H185.2
		z M185.1,114.9c-0.4,0-0.8,0.1-0.8,0.4c0,0.2,0.1,0.3,0.3,0.3c0.2,0,0.4-0.1,0.4-0.3c0,0,0-0.1,0-0.1V114.9z"/>
	<path class="st1" d="M186,114.6c0-0.2,0-0.4,0-0.6h0.3l0,0.4h0c0.1-0.2,0.3-0.4,0.5-0.4c0,0,0.1,0,0.1,0v0.3c0,0-0.1,0-0.1,0
		c-0.2,0-0.4,0.2-0.4,0.4c0,0,0,0.1,0,0.2v1H186V114.6z"/>
	<path class="st1" d="M187.6,113.5c0,0.1-0.1,0.2-0.2,0.2c-0.1,0-0.2-0.1-0.2-0.2c0-0.1,0.1-0.2,0.2-0.2
		C187.5,113.3,187.6,113.4,187.6,113.5z M187.2,115.8V114h0.3v1.8H187.2z"/>
	<path class="st1" d="M188,115.5c0.1,0.1,0.3,0.1,0.4,0.1c0.2,0,0.4-0.1,0.4-0.3c0-0.2-0.1-0.2-0.3-0.3c-0.3-0.1-0.5-0.3-0.5-0.5
		c0-0.3,0.2-0.5,0.6-0.5c0.2,0,0.3,0.1,0.4,0.1l-0.1,0.2c-0.1,0-0.2-0.1-0.4-0.1c-0.2,0-0.3,0.1-0.3,0.2c0,0.1,0.1,0.2,0.3,0.3
		c0.3,0.1,0.5,0.3,0.5,0.5c0,0.3-0.2,0.5-0.7,0.5c-0.2,0-0.4,0-0.5-0.1L188,115.5z"/>
	<path class="st1" d="M191.2,114.9c0,0.7-0.5,1-0.9,1c-0.5,0-0.9-0.4-0.9-0.9c0-0.6,0.4-1,0.9-1C190.8,114,191.2,114.3,191.2,114.9z
		 M189.8,114.9c0,0.4,0.2,0.7,0.6,0.7c0.3,0,0.6-0.3,0.6-0.7c0-0.3-0.2-0.7-0.5-0.7S189.8,114.6,189.8,114.9z"/>
	<path class="st1" d="M191.6,113.2h0.3v2.7h-0.3V113.2z"/>
</g>
<g>
	<path class="st1" d="M163.1,112.8h1.4v0.3h-1v0.8h1v0.3h-1v1.1h-0.3V112.8z"/>
	<path class="st1" d="M165,114.5c0,0.4,0.3,0.6,0.6,0.6c0.2,0,0.4,0,0.5-0.1l0.1,0.2c-0.1,0.1-0.3,0.1-0.6,0.1
		c-0.6,0-0.9-0.4-0.9-0.9c0-0.5,0.3-1,0.9-1c0.6,0,0.8,0.5,0.8,0.9c0,0.1,0,0.1,0,0.2H165z M165.9,114.2c0-0.2-0.1-0.5-0.5-0.5
		c-0.3,0-0.5,0.3-0.5,0.5H165.9z"/>
	<path class="st1" d="M166.7,112.6h0.3v2.7h-0.3V112.6z"/>
	<path class="st1" d="M167.9,113c0,0.1-0.1,0.2-0.2,0.2c-0.1,0-0.2-0.1-0.2-0.2c0-0.1,0.1-0.2,0.2-0.2
		C167.8,112.8,167.9,112.9,167.9,113z M167.5,115.3v-1.8h0.3v1.8H167.5z"/>
	<path class="st1" d="M168.4,114.1c0-0.2,0-0.4,0-0.6h0.3l0,0.3h0c0.1-0.2,0.3-0.4,0.6-0.4c0.4,0,0.8,0.4,0.8,0.9c0,0.7-0.4,1-0.8,1
		c-0.2,0-0.5-0.1-0.6-0.3h0v1h-0.3V114.1z M168.7,114.6c0,0,0,0.1,0,0.1c0.1,0.2,0.3,0.4,0.5,0.4c0.3,0,0.6-0.3,0.6-0.7
		c0-0.4-0.2-0.7-0.5-0.7c-0.2,0-0.4,0.2-0.5,0.4c0,0,0,0.1,0,0.1V114.6z"/>
	<path class="st1" d="M170.7,114.5c0,0.4,0.3,0.6,0.6,0.6c0.2,0,0.4,0,0.5-0.1l0.1,0.2c-0.1,0.1-0.3,0.1-0.6,0.1
		c-0.6,0-0.9-0.4-0.9-0.9c0-0.5,0.3-1,0.9-1c0.6,0,0.8,0.5,0.8,0.9c0,0.1,0,0.1,0,0.2H170.7z M171.7,114.2c0-0.2-0.1-0.5-0.5-0.5
		c-0.3,0-0.5,0.3-0.5,0.5H171.7z"/>
</g>
<polyline class="st0" points="186,111.2 186,106.5 176.3,106.5 "/>
<polyline class="st0" points="167,111.2 167,106.5 176.3,106.5 176.3,101.9 "/>
<circle class="st0" cx="30.7" cy="105.1" r="25.9"/>
<g>
	<path class="st1" d="M25.6,90.8c0.2,0,0.4-0.1,0.7-0.1c0.3,0,0.6,0.1,0.8,0.2c0.1,0.1,0.2,0.3,0.2,0.6c0,0.2-0.1,0.4-0.2,0.6
		c-0.2,0.2-0.5,0.3-0.8,0.3c-0.1,0-0.2,0-0.3,0v1.1h-0.3V90.8z M25.9,92.1c0.1,0,0.2,0,0.3,0c0.4,0,0.7-0.2,0.7-0.6
		c0-0.4-0.3-0.5-0.6-0.5c-0.2,0-0.3,0-0.3,0V92.1z"/>
	<path class="st1" d="M28.7,93.5l0-0.2h0c-0.1,0.2-0.3,0.3-0.6,0.3c-0.4,0-0.6-0.3-0.6-0.6c0-0.5,0.4-0.7,1.2-0.7v0
		c0-0.2,0-0.4-0.4-0.4c-0.2,0-0.4,0.1-0.5,0.1l-0.1-0.2c0.2-0.1,0.4-0.2,0.6-0.2c0.6,0,0.7,0.4,0.7,0.8V93c0,0.2,0,0.3,0,0.5H28.7z
		 M28.6,92.5c-0.4,0-0.8,0.1-0.8,0.4c0,0.2,0.2,0.3,0.3,0.3c0.3,0,0.4-0.2,0.5-0.3c0,0,0-0.1,0-0.1V92.5z"/>
	<path class="st1" d="M29.9,91v0.6h0.5v0.3h-0.5v1c0,0.2,0.1,0.4,0.3,0.4c0.1,0,0.2,0,0.2,0l0,0.3c-0.1,0-0.2,0-0.3,0
		c-0.2,0-0.3-0.1-0.4-0.1c-0.1-0.1-0.1-0.3-0.1-0.5v-1.1h-0.3v-0.3h0.3v-0.5L29.9,91z"/>
	<path class="st1" d="M30.8,92.1c0-0.2,0-0.4,0-0.6h0.3l0,0.4h0c0.1-0.3,0.3-0.4,0.5-0.4c0,0,0.1,0,0.1,0v0.3c0,0-0.1,0-0.1,0
		c-0.2,0-0.4,0.2-0.5,0.5c0,0,0,0.1,0,0.2v1h-0.3V92.1z"/>
	<path class="st1" d="M32.6,91c0,0.1-0.1,0.2-0.2,0.2c-0.1,0-0.2-0.1-0.2-0.2c0-0.1,0.1-0.2,0.2-0.2C32.5,90.8,32.6,90.9,32.6,91z
		 M32.2,93.5v-1.9h0.4v1.9H32.2z"/>
	<path class="st1" d="M34.5,93.4c-0.1,0-0.3,0.1-0.6,0.1c-0.6,0-1-0.4-1-1c0-0.6,0.4-1,1-1c0.2,0,0.4,0.1,0.5,0.1l-0.1,0.3
		c-0.1,0-0.2-0.1-0.4-0.1c-0.4,0-0.7,0.3-0.7,0.7c0,0.4,0.3,0.7,0.7,0.7c0.2,0,0.3-0.1,0.4-0.1L34.5,93.4z"/>
	<path class="st1" d="M35.3,92.4L35.3,92.4c0.1-0.1,0.1-0.2,0.2-0.2l0.6-0.7h0.4l-0.8,0.8l0.9,1.1h-0.4l-0.7-0.9l-0.2,0.2v0.7h-0.3
		v-2.8h0.3V92.4z"/>
</g>
<g>
	<path class="st1" d="M19.2,95v0.8h1V95h0.3v2h-0.3v-1h-1v1H19v-2H19.2z"/>
	<path class="st1" d="M21.1,96.3c0,0.4,0.2,0.5,0.5,0.5c0.2,0,0.3,0,0.4-0.1l0,0.2c-0.1,0-0.3,0.1-0.5,0.1c-0.4,0-0.7-0.3-0.7-0.7
		c0-0.4,0.3-0.8,0.7-0.8c0.5,0,0.6,0.4,0.6,0.7c0,0.1,0,0.1,0,0.1H21.1z M21.8,96.2c0-0.2-0.1-0.4-0.4-0.4c-0.3,0-0.4,0.2-0.4,0.4
		H21.8z"/>
	<path class="st1" d="M23.2,97l0-0.2h0c-0.1,0.1-0.2,0.2-0.4,0.2c-0.3,0-0.4-0.2-0.4-0.4c0-0.4,0.3-0.5,0.9-0.5v0
		c0-0.1,0-0.3-0.3-0.3c-0.1,0-0.3,0-0.4,0.1l-0.1-0.2c0.1-0.1,0.3-0.1,0.5-0.1c0.4,0,0.6,0.3,0.6,0.6v0.5c0,0.1,0,0.2,0,0.3H23.2z
		 M23.2,96.3c-0.3,0-0.6,0-0.6,0.3c0,0.2,0.1,0.3,0.2,0.3c0.2,0,0.3-0.1,0.4-0.2c0,0,0-0.1,0-0.1V96.3z"/>
	<path class="st1" d="M25.1,94.9v1.8c0,0.1,0,0.3,0,0.4h-0.2l0-0.3h0c-0.1,0.2-0.3,0.3-0.5,0.3c-0.4,0-0.6-0.3-0.6-0.7
		c0-0.5,0.3-0.8,0.7-0.8c0.2,0,0.4,0.1,0.4,0.2h0v-0.9H25.1z M24.9,96.2c0,0,0-0.1,0-0.1c0-0.2-0.2-0.3-0.4-0.3
		c-0.3,0-0.4,0.2-0.4,0.6c0,0.3,0.1,0.5,0.4,0.5c0.2,0,0.3-0.1,0.4-0.3c0,0,0-0.1,0-0.1V96.2z"/>
	<path class="st1" d="M27.5,96.3c0,0.5-0.4,0.8-0.7,0.8c-0.4,0-0.7-0.3-0.7-0.7c0-0.5,0.3-0.8,0.7-0.8
		C27.2,95.5,27.5,95.8,27.5,96.3z M26.4,96.3c0,0.3,0.2,0.6,0.4,0.6c0.3,0,0.4-0.2,0.4-0.6c0-0.2-0.1-0.6-0.4-0.6S26.4,96,26.4,96.3
		z"/>
	<path class="st1" d="M27.9,97v-1.3h-0.2v-0.2h0.2v-0.1c0-0.2,0-0.4,0.2-0.5c0.1-0.1,0.2-0.1,0.4-0.1c0.1,0,0.2,0,0.2,0l0,0.2
		c0,0-0.1,0-0.2,0c-0.2,0-0.3,0.2-0.3,0.4v0.1h0.4v0.2h-0.4V97H27.9z"/>
	<path class="st1" d="M31.1,96c0,0.7-0.4,1.1-0.9,1.1c-0.5,0-0.9-0.4-0.9-1c0-0.6,0.4-1.1,0.9-1.1C30.7,95,31.1,95.4,31.1,96z
		 M29.5,96c0,0.4,0.2,0.8,0.6,0.8c0.4,0,0.6-0.4,0.6-0.8c0-0.4-0.2-0.8-0.6-0.8C29.7,95.2,29.5,95.6,29.5,96z"/>
	<path class="st1" d="M31.4,96c0-0.2,0-0.3,0-0.5h0.2l0,0.2h0c0.1-0.2,0.3-0.3,0.5-0.3c0.4,0,0.6,0.3,0.6,0.7c0,0.5-0.3,0.8-0.7,0.8
		c-0.2,0-0.4-0.1-0.4-0.2h0v0.8h-0.3V96z M31.7,96.4c0,0,0,0.1,0,0.1c0,0.2,0.2,0.3,0.4,0.3c0.3,0,0.4-0.2,0.4-0.6
		c0-0.3-0.2-0.5-0.4-0.5c-0.2,0-0.3,0.1-0.4,0.3c0,0,0,0.1,0,0.1V96.4z"/>
	<path class="st1" d="M33.3,96.3c0,0.4,0.2,0.5,0.5,0.5c0.2,0,0.3,0,0.4-0.1l0,0.2c-0.1,0-0.3,0.1-0.5,0.1c-0.4,0-0.7-0.3-0.7-0.7
		c0-0.4,0.3-0.8,0.7-0.8c0.5,0,0.6,0.4,0.6,0.7c0,0.1,0,0.1,0,0.1H33.3z M34.1,96.2c0-0.2-0.1-0.4-0.4-0.4c-0.3,0-0.4,0.2-0.4,0.4
		H34.1z"/>
	<path class="st1" d="M34.6,96c0-0.2,0-0.3,0-0.5h0.2l0,0.3h0c0.1-0.2,0.2-0.3,0.4-0.3c0,0,0.1,0,0.1,0v0.2c0,0-0.1,0-0.1,0
		c-0.2,0-0.3,0.1-0.4,0.3c0,0,0,0.1,0,0.1V97h-0.3V96z"/>
	<path class="st1" d="M36.4,97l0-0.2h0c-0.1,0.1-0.2,0.2-0.4,0.2c-0.3,0-0.4-0.2-0.4-0.4c0-0.4,0.3-0.5,0.9-0.5v0
		c0-0.1,0-0.3-0.3-0.3c-0.1,0-0.3,0-0.4,0.1l-0.1-0.2c0.1-0.1,0.3-0.1,0.5-0.1c0.4,0,0.6,0.3,0.6,0.6v0.5c0,0.1,0,0.2,0,0.3H36.4z
		 M36.4,96.3c-0.3,0-0.6,0-0.6,0.3c0,0.2,0.1,0.3,0.2,0.3c0.2,0,0.3-0.1,0.4-0.2c0,0,0-0.1,0-0.1V96.3z"/>
	<path class="st1" d="M37.4,95.2v0.4h0.4v0.2h-0.4v0.8c0,0.2,0.1,0.3,0.2,0.3c0.1,0,0.1,0,0.2,0l0,0.2c-0.1,0-0.1,0-0.2,0
		c-0.1,0-0.2,0-0.3-0.1c-0.1-0.1-0.1-0.2-0.1-0.4v-0.8h-0.2v-0.2h0.2v-0.3L37.4,95.2z"/>
	<path class="st1" d="M38.3,95.2c0,0.1-0.1,0.2-0.2,0.2c-0.1,0-0.2-0.1-0.2-0.2c0-0.1,0.1-0.2,0.2-0.2C38.3,95,38.3,95.1,38.3,95.2z
		 M38,97v-1.5h0.3V97H38z"/>
	<path class="st1" d="M40.1,96.3c0,0.5-0.4,0.8-0.7,0.8c-0.4,0-0.7-0.3-0.7-0.7c0-0.5,0.3-0.8,0.7-0.8
		C39.8,95.5,40.1,95.8,40.1,96.3z M38.9,96.3c0,0.3,0.2,0.6,0.4,0.6c0.3,0,0.4-0.2,0.4-0.6c0-0.2-0.1-0.6-0.4-0.6S38.9,96,38.9,96.3
		z"/>
	<path class="st1" d="M40.4,96c0-0.1,0-0.3,0-0.4h0.2l0,0.2h0c0.1-0.1,0.2-0.3,0.5-0.3c0.2,0,0.5,0.1,0.5,0.6V97h-0.3v-0.8
		c0-0.2-0.1-0.4-0.3-0.4c-0.2,0-0.3,0.1-0.4,0.3c0,0,0,0.1,0,0.1V97h-0.3V96z"/>
	<path class="st1" d="M42,96.8c0.1,0.1,0.2,0.1,0.3,0.1c0.2,0,0.3-0.1,0.3-0.2c0-0.1-0.1-0.2-0.3-0.3C42.1,96.3,42,96.1,42,96
		c0-0.2,0.2-0.4,0.5-0.4c0.1,0,0.3,0,0.4,0.1l-0.1,0.2c-0.1,0-0.2-0.1-0.3-0.1c-0.2,0-0.2,0.1-0.2,0.2c0,0.1,0.1,0.2,0.3,0.2
		c0.3,0.1,0.4,0.2,0.4,0.4c0,0.3-0.2,0.4-0.5,0.4c-0.2,0-0.3,0-0.4-0.1L42,96.8z"/>
	<path class="st1" d="M20.9,100c-0.1-0.1-0.1-0.1-0.2-0.2c-0.2,0.2-0.4,0.2-0.6,0.2c-0.4,0-0.6-0.3-0.6-0.6c0-0.3,0.2-0.5,0.4-0.6v0
		c-0.1-0.1-0.2-0.3-0.2-0.4c0-0.2,0.2-0.5,0.5-0.5c0.3,0,0.4,0.2,0.4,0.4c0,0.2-0.1,0.4-0.4,0.5v0c0.2,0.2,0.4,0.4,0.5,0.6
		c0.1-0.1,0.2-0.3,0.2-0.6h0.2c-0.1,0.3-0.1,0.6-0.3,0.7c0.1,0.1,0.2,0.2,0.3,0.4H20.9z M20.6,99.7c-0.1-0.1-0.3-0.4-0.6-0.6
		c-0.1,0.1-0.3,0.2-0.3,0.4c0,0.2,0.2,0.4,0.4,0.4C20.3,99.9,20.5,99.8,20.6,99.7z M19.9,98.4c0,0.1,0.1,0.3,0.2,0.4
		c0.2-0.1,0.3-0.2,0.3-0.4c0-0.1-0.1-0.3-0.2-0.3C20,98.2,19.9,98.3,19.9,98.4z"/>
	<path class="st1" d="M22.1,98c0.1,0,0.3,0,0.5,0c0.3,0,0.4,0.1,0.6,0.2c0.1,0.1,0.2,0.2,0.2,0.4c0,0.2-0.1,0.3-0.2,0.4
		c-0.1,0.1-0.4,0.2-0.6,0.2c-0.1,0-0.1,0-0.2,0v0.8h-0.3V98z M22.3,99c0.1,0,0.1,0,0.2,0c0.3,0,0.5-0.2,0.5-0.4
		c0-0.3-0.2-0.4-0.5-0.4c-0.1,0-0.2,0-0.2,0V99z"/>
	<path class="st1" d="M23.6,99c0-0.2,0-0.3,0-0.5h0.2l0,0.3h0c0.1-0.2,0.2-0.3,0.4-0.3c0,0,0.1,0,0.1,0v0.2c0,0-0.1,0-0.1,0
		c-0.2,0-0.3,0.1-0.4,0.3c0,0,0,0.1,0,0.1v0.8h-0.3V99z"/>
	<path class="st1" d="M25.9,99.3c0,0.5-0.4,0.8-0.7,0.8c-0.4,0-0.7-0.3-0.7-0.7c0-0.5,0.3-0.8,0.7-0.8
		C25.6,98.5,25.9,98.8,25.9,99.3z M24.7,99.3c0,0.3,0.2,0.6,0.4,0.6c0.3,0,0.4-0.2,0.4-0.6c0-0.2-0.1-0.6-0.4-0.6S24.7,99,24.7,99.3
		z"/>
	<path class="st1" d="M25.8,100.5c0.1,0,0.2,0,0.3-0.1c0.1-0.1,0.1-0.2,0.1-0.5v-1.2h0.3v1.3c0,0.3,0,0.5-0.2,0.6
		c-0.1,0.1-0.3,0.2-0.5,0.2L25.8,100.5z M26.5,98.2c0,0.1-0.1,0.2-0.2,0.2c-0.1,0-0.2-0.1-0.2-0.2c0-0.1,0.1-0.2,0.2-0.2
		C26.5,98,26.5,98.1,26.5,98.2z"/>
	<path class="st1" d="M27.1,99.4c0,0.4,0.2,0.5,0.5,0.5c0.2,0,0.3,0,0.4-0.1l0,0.2c-0.1,0-0.3,0.1-0.5,0.1c-0.4,0-0.7-0.3-0.7-0.7
		c0-0.4,0.3-0.8,0.7-0.8c0.5,0,0.6,0.4,0.6,0.7c0,0.1,0,0.1,0,0.1H27.1z M27.9,99.2c0-0.2-0.1-0.4-0.4-0.4c-0.3,0-0.4,0.2-0.4,0.4
		H27.9z"/>
	<path class="st1" d="M29.5,100c-0.1,0-0.2,0.1-0.4,0.1c-0.4,0-0.7-0.3-0.7-0.7c0-0.4,0.3-0.8,0.8-0.8c0.2,0,0.3,0,0.4,0.1l-0.1,0.2
		c-0.1,0-0.2-0.1-0.3-0.1c-0.3,0-0.5,0.2-0.5,0.5c0,0.3,0.2,0.5,0.5,0.5c0.2,0,0.2,0,0.3-0.1L29.5,100z"/>
	<path class="st1" d="M30.1,98.2v0.4h0.4v0.2h-0.4v0.8c0,0.2,0.1,0.3,0.2,0.3c0.1,0,0.1,0,0.2,0l0,0.2c-0.1,0-0.1,0-0.2,0
		c-0.1,0-0.2,0-0.3-0.1c-0.1-0.1-0.1-0.2-0.1-0.4v-0.8h-0.2v-0.2h0.2v-0.3L30.1,98.2z"/>
	<path class="st1" d="M33.2,99.1c0-0.3,0-0.6,0-0.9h0c-0.1,0.2-0.2,0.5-0.3,0.8l-0.4,1h-0.2l-0.3-1c-0.1-0.3-0.2-0.5-0.2-0.8h0
		c0,0.3,0,0.6,0,0.9l-0.1,0.9h-0.2l0.1-2h0.3l0.3,1c0.1,0.2,0.2,0.5,0.2,0.7h0c0.1-0.2,0.1-0.4,0.2-0.7l0.4-1h0.3l0.1,2h-0.3
		L33.2,99.1z"/>
	<path class="st1" d="M34.7,100l0-0.2h0c-0.1,0.1-0.2,0.2-0.4,0.2c-0.3,0-0.4-0.2-0.4-0.4c0-0.4,0.3-0.5,0.9-0.5v0
		c0-0.1,0-0.3-0.3-0.3c-0.1,0-0.3,0-0.4,0.1l-0.1-0.2c0.1-0.1,0.3-0.1,0.5-0.1c0.4,0,0.6,0.3,0.6,0.6v0.5c0,0.1,0,0.2,0,0.3H34.7z
		 M34.7,99.3c-0.3,0-0.6,0-0.6,0.3c0,0.2,0.1,0.3,0.2,0.3c0.2,0,0.3-0.1,0.4-0.2c0,0,0-0.1,0-0.1V99.3z"/>
	<path class="st1" d="M35.3,99c0-0.1,0-0.3,0-0.4h0.2l0,0.2h0c0.1-0.1,0.2-0.3,0.5-0.3c0.2,0,0.5,0.1,0.5,0.6v0.9h-0.3v-0.8
		c0-0.2-0.1-0.4-0.3-0.4c-0.2,0-0.3,0.1-0.4,0.3c0,0,0,0.1,0,0.1v0.9h-0.3V99z"/>
	<path class="st1" d="M37.8,100l0-0.2h0c-0.1,0.1-0.2,0.2-0.4,0.2c-0.3,0-0.4-0.2-0.4-0.4c0-0.4,0.3-0.5,0.9-0.5v0
		c0-0.1,0-0.3-0.3-0.3c-0.1,0-0.3,0-0.4,0.1L37,98.7c0.1-0.1,0.3-0.1,0.5-0.1c0.4,0,0.6,0.3,0.6,0.6v0.5c0,0.1,0,0.2,0,0.3H37.8z
		 M37.8,99.3c-0.3,0-0.6,0-0.6,0.3c0,0.2,0.1,0.3,0.2,0.3c0.2,0,0.3-0.1,0.4-0.2c0,0,0-0.1,0-0.1V99.3z"/>
	<path class="st1" d="M39.7,98.6c0,0.1,0,0.2,0,0.4v0.8c0,0.3-0.1,0.5-0.2,0.7c-0.1,0.1-0.3,0.2-0.5,0.2c-0.2,0-0.4,0-0.5-0.1
		l0.1-0.2c0.1,0.1,0.2,0.1,0.4,0.1c0.3,0,0.5-0.1,0.5-0.5v-0.2h0c-0.1,0.1-0.2,0.2-0.5,0.2c-0.4,0-0.6-0.3-0.6-0.7
		c0-0.5,0.3-0.8,0.7-0.8c0.3,0,0.4,0.1,0.5,0.3h0l0-0.2H39.7z M39.4,99.2c0,0,0-0.1,0-0.1c0-0.2-0.2-0.3-0.4-0.3
		c-0.3,0-0.4,0.2-0.4,0.5c0,0.3,0.1,0.5,0.4,0.5c0.2,0,0.3-0.1,0.4-0.3c0,0,0-0.1,0-0.1V99.2z"/>
	<path class="st1" d="M40.3,99.4c0,0.4,0.2,0.5,0.5,0.5c0.2,0,0.3,0,0.4-0.1l0,0.2c-0.1,0-0.3,0.1-0.5,0.1c-0.4,0-0.7-0.3-0.7-0.7
		c0-0.4,0.3-0.8,0.7-0.8c0.5,0,0.6,0.4,0.6,0.7c0,0.1,0,0.1,0,0.1H40.3z M41.1,99.2c0-0.2-0.1-0.4-0.4-0.4c-0.3,0-0.4,0.2-0.4,0.4
		H41.1z"/>
	<path class="st1" d="M41.6,99c0-0.2,0-0.3,0-0.5h0.2l0,0.3h0c0.1-0.2,0.2-0.3,0.4-0.3c0,0,0.1,0,0.1,0v0.2c0,0-0.1,0-0.1,0
		c-0.2,0-0.3,0.1-0.4,0.3c0,0,0,0.1,0,0.1v0.8h-0.3V99z"/>
</g>
<g>
	<path class="st1" d="M26.3,85.6h-1.2v1.1h1.4v0.3h-1.8v-3.1h1.7v0.3h-1.3v1h1.2V85.6z"/>
	<path class="st1" d="M27.1,84.8l0.4,1.3c0.1,0.2,0.1,0.4,0.2,0.6h0c0.1-0.2,0.1-0.4,0.2-0.6l0.4-1.3h0.4l-0.9,2.3h-0.4l-0.9-2.3
		H27.1z"/>
	<path class="st1" d="M29.3,86c0,0.6,0.4,0.8,0.8,0.8c0.3,0,0.5-0.1,0.6-0.1l0.1,0.3c-0.1,0.1-0.4,0.1-0.8,0.1
		c-0.7,0-1.1-0.5-1.1-1.1s0.4-1.2,1.1-1.2c0.7,0,0.9,0.6,0.9,1.1c0,0.1,0,0.1,0,0.2H29.3z M30.6,85.7c0-0.3-0.1-0.7-0.6-0.7
		c-0.4,0-0.6,0.4-0.6,0.7H30.6z"/>
	<path class="st1" d="M31.5,85.4c0-0.2,0-0.4,0-0.6h0.4l0,0.4h0c0.1-0.2,0.4-0.4,0.7-0.4c0.3,0,0.8,0.2,0.8,1v1.3H33v-1.3
		c0-0.4-0.1-0.7-0.5-0.7c-0.3,0-0.5,0.2-0.6,0.4c0,0.1,0,0.1,0,0.2v1.4h-0.4V85.4z"/>
	<path class="st1" d="M34.5,84.2v0.6h0.6v0.3h-0.6v1.2c0,0.3,0.1,0.4,0.3,0.4c0.1,0,0.2,0,0.2,0l0,0.3c-0.1,0-0.2,0.1-0.4,0.1
		c-0.2,0-0.3-0.1-0.4-0.2c-0.1-0.1-0.2-0.3-0.2-0.6v-1.2h-0.4v-0.3h0.4v-0.5L34.5,84.2z"/>
	<path class="st1" d="M35.5,86.6c0.1,0.1,0.3,0.2,0.5,0.2c0.3,0,0.4-0.1,0.4-0.3c0-0.2-0.1-0.3-0.4-0.4c-0.4-0.1-0.6-0.4-0.6-0.6
		c0-0.4,0.3-0.7,0.8-0.7c0.2,0,0.4,0.1,0.6,0.1l-0.1,0.3c-0.1-0.1-0.3-0.1-0.5-0.1c-0.2,0-0.4,0.1-0.4,0.3c0,0.2,0.1,0.3,0.4,0.4
		c0.4,0.1,0.6,0.3,0.6,0.7c0,0.4-0.3,0.7-0.8,0.7c-0.2,0-0.5-0.1-0.6-0.2L35.5,86.6z"/>
</g>
<g>
	<path class="st1" d="M13.2,119c0.1,0.1,0.3,0.1,0.5,0.1c0.3,0,0.4-0.1,0.4-0.3c0-0.2-0.1-0.3-0.4-0.4c-0.3-0.1-0.5-0.3-0.5-0.6
		c0-0.3,0.3-0.6,0.7-0.6c0.2,0,0.4,0,0.4,0.1l-0.1,0.2c-0.1,0-0.2-0.1-0.4-0.1c-0.3,0-0.4,0.2-0.4,0.3c0,0.2,0.1,0.3,0.4,0.4
		c0.3,0.1,0.5,0.3,0.5,0.6c0,0.3-0.2,0.6-0.7,0.6c-0.2,0-0.4-0.1-0.5-0.1L13.2,119z"/>
	<path class="st1" d="M15,117.5v0.4h0.4v0.2H15v0.8c0,0.2,0.1,0.3,0.2,0.3c0.1,0,0.1,0,0.2,0l0,0.2c-0.1,0-0.1,0-0.2,0
		c-0.1,0-0.2,0-0.3-0.1c-0.1-0.1-0.1-0.2-0.1-0.4v-0.8h-0.2v-0.2h0.2v-0.3L15,117.5z"/>
	<path class="st1" d="M16.5,119.3l0-0.2h0c-0.1,0.1-0.2,0.2-0.4,0.2c-0.3,0-0.4-0.2-0.4-0.4c0-0.4,0.3-0.5,0.9-0.5v0
		c0-0.1,0-0.3-0.3-0.3c-0.1,0-0.3,0-0.4,0.1l-0.1-0.2c0.1-0.1,0.3-0.1,0.5-0.1c0.4,0,0.6,0.3,0.6,0.6v0.5c0,0.1,0,0.2,0,0.3H16.5z
		 M16.5,118.6c-0.3,0-0.6,0-0.6,0.3c0,0.2,0.1,0.3,0.2,0.3c0.2,0,0.3-0.1,0.4-0.2c0,0,0-0.1,0-0.1V118.6z"/>
	<path class="st1" d="M19,117.5c-0.1,0-0.2-0.1-0.3-0.1c-0.3,0-0.4,0.2-0.4,0.4v0.1h0.8v1.5h-0.3v-1.3h-0.6v1.3h-0.3v-1.3h-0.6v1.3
		h-0.3v-1.3H17v-0.2h0.2v-0.1c0-0.2,0-0.4,0.2-0.5c0.1-0.1,0.2-0.1,0.4-0.1c0.1,0,0.2,0,0.3,0.1l-0.1,0.2c0,0-0.1-0.1-0.2-0.1
		c-0.1,0-0.1,0-0.2,0.1c-0.1,0.1-0.1,0.2-0.1,0.3v0.1h0.6v-0.1c0-0.4,0.2-0.6,0.6-0.6c0.1,0,0.3,0,0.4,0.1L19,117.5z"/>
	<path class="st1" d="M19.6,118.3c0-0.1,0-0.3,0-0.4h0.2l0,0.2h0c0.1-0.1,0.2-0.3,0.5-0.3c0.2,0,0.5,0.1,0.5,0.6v0.9h-0.3v-0.8
		c0-0.2-0.1-0.4-0.3-0.4c-0.2,0-0.3,0.1-0.4,0.3c0,0,0,0.1,0,0.1v0.9h-0.3V118.3z"/>
	<path class="st1" d="M22.5,117.9c0,0.1,0,0.2,0,0.4v0.8c0,0.3-0.1,0.5-0.2,0.7c-0.1,0.1-0.3,0.2-0.5,0.2c-0.2,0-0.4,0-0.5-0.1
		l0.1-0.2c0.1,0.1,0.2,0.1,0.4,0.1c0.3,0,0.5-0.1,0.5-0.5v-0.2h0c-0.1,0.1-0.2,0.2-0.5,0.2c-0.4,0-0.6-0.3-0.6-0.7
		c0-0.5,0.3-0.8,0.7-0.8c0.3,0,0.4,0.1,0.5,0.3h0l0-0.2H22.5z M22.3,118.5c0,0,0-0.1,0-0.1c0-0.2-0.2-0.3-0.4-0.3
		c-0.3,0-0.4,0.2-0.4,0.5c0,0.3,0.1,0.5,0.4,0.5c0.2,0,0.3-0.1,0.4-0.3c0,0,0-0.1,0-0.1V118.5z"/>
	<path class="st1" d="M23.9,118.7l-0.2,0.6h-0.3l0.7-2h0.3l0.7,2h-0.3l-0.2-0.6H23.9z M24.6,118.5l-0.2-0.6c0-0.1-0.1-0.3-0.1-0.4h0
		c0,0.1-0.1,0.2-0.1,0.4l-0.2,0.6H24.6z"/>
	<path class="st1" d="M26.7,117.9c0,0.1,0,0.2,0,0.4v0.8c0,0.3-0.1,0.5-0.2,0.7c-0.1,0.1-0.3,0.2-0.5,0.2c-0.2,0-0.4,0-0.5-0.1
		l0.1-0.2c0.1,0.1,0.2,0.1,0.4,0.1c0.3,0,0.5-0.1,0.5-0.5v-0.2h0c-0.1,0.1-0.2,0.2-0.5,0.2c-0.4,0-0.6-0.3-0.6-0.7
		c0-0.5,0.3-0.8,0.7-0.8c0.3,0,0.4,0.1,0.5,0.3h0l0-0.2H26.7z M26.4,118.5c0,0,0-0.1,0-0.1c0-0.2-0.2-0.3-0.4-0.3
		c-0.3,0-0.4,0.2-0.4,0.5c0,0.3,0.1,0.5,0.4,0.5c0.2,0,0.3-0.1,0.4-0.3c0,0,0-0.1,0-0.1V118.5z"/>
	<path class="st1" d="M28.1,119.3c-0.1,0-0.2,0.1-0.4,0.1c-0.4,0-0.7-0.3-0.7-0.7c0-0.4,0.3-0.8,0.8-0.8c0.2,0,0.3,0,0.4,0.1
		l-0.1,0.2c-0.1,0-0.2-0.1-0.3-0.1c-0.3,0-0.5,0.2-0.5,0.5c0,0.3,0.2,0.5,0.5,0.5c0.2,0,0.2,0,0.3-0.1L28.1,119.3z"/>
	<path class="st1" d="M28.6,117.9l0.3,0.9c0,0.1,0.1,0.2,0.1,0.3h0c0-0.1,0.1-0.2,0.1-0.3l0.3-0.9h0.3l-0.4,1
		c-0.2,0.5-0.3,0.8-0.5,0.9c-0.1,0.1-0.3,0.2-0.3,0.2l-0.1-0.2c0.1,0,0.2-0.1,0.2-0.1c0.1-0.1,0.2-0.2,0.2-0.3c0,0,0,0,0-0.1
		c0,0,0,0,0-0.1l-0.5-1.3H28.6z"/>
	<path class="st1" d="M29.7,119.2c0-0.1,0.1-0.2,0.2-0.2c0.1,0,0.2,0.1,0.2,0.2c0,0.1-0.1,0.2-0.2,0.2
		C29.8,119.4,29.7,119.3,29.7,119.2z"/>
</g>
<g>
	<path class="st1" d="M33.1,115c0.1,0.1,0.4,0.2,0.6,0.2c0.3,0,0.5-0.2,0.5-0.4c0-0.2-0.1-0.4-0.5-0.5c-0.4-0.1-0.7-0.4-0.7-0.7
		c0-0.4,0.3-0.7,0.8-0.7c0.3,0,0.4,0.1,0.6,0.1l-0.1,0.3c-0.1,0-0.3-0.1-0.5-0.1c-0.3,0-0.5,0.2-0.5,0.4c0,0.2,0.2,0.4,0.5,0.5
		c0.4,0.2,0.6,0.4,0.6,0.7c0,0.4-0.3,0.7-0.9,0.7c-0.2,0-0.5-0.1-0.6-0.2L33.1,115z"/>
	<path class="st1" d="M36,115.4l0-0.2h0c-0.1,0.1-0.3,0.3-0.6,0.3c-0.4,0-0.6-0.3-0.6-0.5c0-0.4,0.4-0.7,1.1-0.7v0
		c0-0.2,0-0.4-0.4-0.4c-0.2,0-0.3,0.1-0.5,0.1l-0.1-0.2c0.2-0.1,0.4-0.2,0.6-0.2c0.6,0,0.7,0.4,0.7,0.7v0.7c0,0.2,0,0.3,0,0.4H36z
		 M36,114.5c-0.4,0-0.8,0.1-0.8,0.4c0,0.2,0.1,0.3,0.3,0.3c0.2,0,0.4-0.1,0.4-0.3c0,0,0-0.1,0-0.1V114.5z"/>
	<path class="st1" d="M36.8,112.8h0.3v2.7h-0.3V112.8z"/>
	<path class="st1" d="M37.9,114.6c0,0.4,0.3,0.6,0.6,0.6c0.2,0,0.4,0,0.5-0.1l0.1,0.2c-0.1,0.1-0.3,0.1-0.6,0.1
		c-0.6,0-0.9-0.4-0.9-0.9c0-0.5,0.3-1,0.9-1c0.6,0,0.8,0.5,0.8,0.9c0,0.1,0,0.1,0,0.2H37.9z M38.9,114.4c0-0.2-0.1-0.5-0.5-0.5
		c-0.3,0-0.5,0.3-0.5,0.5H38.9z"/>
	<path class="st1" d="M39.6,115.1c0.1,0.1,0.3,0.1,0.4,0.1c0.2,0,0.4-0.1,0.4-0.3c0-0.2-0.1-0.2-0.3-0.3c-0.3-0.1-0.5-0.3-0.5-0.5
		c0-0.3,0.2-0.5,0.6-0.5c0.2,0,0.3,0.1,0.4,0.1l-0.1,0.2c-0.1,0-0.2-0.1-0.4-0.1c-0.2,0-0.3,0.1-0.3,0.2c0,0.1,0.1,0.2,0.3,0.3
		c0.3,0.1,0.5,0.3,0.5,0.5c0,0.3-0.2,0.5-0.7,0.5c-0.2,0-0.4,0-0.5-0.1L39.6,115.1z"/>
	<path class="st1" d="M41.9,112.9c0.2,0,0.4,0,0.6,0c0.3,0,0.6,0.1,0.7,0.2c0.1,0.1,0.2,0.3,0.2,0.5c0,0.2-0.1,0.4-0.2,0.5
		c-0.2,0.2-0.5,0.3-0.8,0.3c-0.1,0-0.2,0-0.3,0v1h-0.3V112.9z M42.2,114.2c0.1,0,0.2,0,0.3,0c0.4,0,0.6-0.2,0.6-0.5
		c0-0.3-0.2-0.5-0.6-0.5c-0.1,0-0.3,0-0.3,0V114.2z"/>
	<path class="st1" d="M44,114.6c0,0.4,0.3,0.6,0.6,0.6c0.2,0,0.4,0,0.5-0.1l0.1,0.2c-0.1,0.1-0.3,0.1-0.6,0.1
		c-0.6,0-0.9-0.4-0.9-0.9c0-0.5,0.3-1,0.9-1c0.6,0,0.8,0.5,0.8,0.9c0,0.1,0,0.1,0,0.2H44z M44.9,114.4c0-0.2-0.1-0.5-0.5-0.5
		c-0.3,0-0.5,0.3-0.5,0.5H44.9z"/>
	<path class="st1" d="M45.7,114.2c0-0.2,0-0.4,0-0.6h0.3l0,0.4h0c0.1-0.2,0.3-0.4,0.5-0.4c0,0,0.1,0,0.1,0v0.3c0,0-0.1,0-0.1,0
		c-0.2,0-0.4,0.2-0.4,0.4c0,0,0,0.1,0,0.2v1h-0.3V114.2z"/>
	<path class="st1" d="M46.8,115.1c0.1,0.1,0.3,0.1,0.4,0.1c0.2,0,0.4-0.1,0.4-0.3c0-0.2-0.1-0.2-0.3-0.3c-0.3-0.1-0.5-0.3-0.5-0.5
		c0-0.3,0.2-0.5,0.6-0.5c0.2,0,0.3,0.1,0.4,0.1l-0.1,0.2c-0.1,0-0.2-0.1-0.4-0.1c-0.2,0-0.3,0.1-0.3,0.2c0,0.1,0.1,0.2,0.3,0.3
		c0.3,0.1,0.5,0.3,0.5,0.5c0,0.3-0.2,0.5-0.7,0.5c-0.2,0-0.4,0-0.5-0.1L46.8,115.1z"/>
	<path class="st1" d="M50,114.5c0,0.7-0.5,1-0.9,1c-0.5,0-0.9-0.4-0.9-0.9c0-0.6,0.4-1,0.9-1C49.7,113.6,50,114,50,114.5z
		 M48.6,114.5c0,0.4,0.2,0.7,0.6,0.7c0.3,0,0.6-0.3,0.6-0.7c0-0.3-0.2-0.7-0.5-0.7C48.7,113.8,48.6,114.2,48.6,114.5z"/>
	<path class="st1" d="M50.4,114.1c0-0.2,0-0.3,0-0.5h0.3l0,0.3h0c0.1-0.2,0.3-0.3,0.6-0.3c0.3,0,0.6,0.2,0.6,0.8v1.1h-0.3v-1
		c0-0.3-0.1-0.5-0.4-0.5c-0.2,0-0.4,0.2-0.4,0.3c0,0,0,0.1,0,0.2v1.1h-0.3V114.1z"/>
</g>
<g>
	<path class="st1" d="M11.4,112.9c0.1,0,0.4-0.1,0.6-0.1c0.3,0,0.5,0.1,0.7,0.2c0.1,0.1,0.2,0.2,0.2,0.4c0,0.2-0.2,0.5-0.4,0.6v0
		c0.2,0.1,0.5,0.3,0.5,0.6c0,0.2-0.1,0.4-0.2,0.5c-0.2,0.2-0.5,0.2-0.9,0.2c-0.2,0-0.4,0-0.5,0V112.9z M11.7,113.9H12
		c0.3,0,0.5-0.2,0.5-0.4c0-0.3-0.2-0.4-0.6-0.4c-0.2,0-0.2,0-0.3,0V113.9z M11.7,115.2c0.1,0,0.2,0,0.3,0c0.3,0,0.6-0.1,0.6-0.5
		c0-0.3-0.3-0.5-0.7-0.5h-0.3V115.2z"/>
	<path class="st1" d="M13.4,114.2c0-0.2,0-0.4,0-0.6h0.3l0,0.4h0c0.1-0.2,0.3-0.4,0.5-0.4c0,0,0.1,0,0.1,0v0.3c0,0-0.1,0-0.1,0
		c-0.2,0-0.4,0.2-0.4,0.4c0,0,0,0.1,0,0.2v1h-0.3V114.2z"/>
	<path class="st1" d="M15.6,115.4l0-0.2h0c-0.1,0.1-0.3,0.3-0.6,0.3c-0.4,0-0.6-0.3-0.6-0.5c0-0.4,0.4-0.7,1.1-0.7v0
		c0-0.2,0-0.4-0.4-0.4c-0.2,0-0.3,0.1-0.5,0.1l-0.1-0.2c0.2-0.1,0.4-0.2,0.6-0.2c0.6,0,0.7,0.4,0.7,0.7v0.7c0,0.2,0,0.3,0,0.4H15.6z
		 M15.6,114.5c-0.4,0-0.8,0.1-0.8,0.4c0,0.2,0.1,0.3,0.3,0.3c0.2,0,0.4-0.1,0.4-0.3c0,0,0-0.1,0-0.1V114.5z"/>
	<path class="st1" d="M16.4,114.1c0-0.2,0-0.3,0-0.5h0.3l0,0.3h0c0.1-0.2,0.3-0.3,0.6-0.3c0.3,0,0.6,0.2,0.6,0.8v1.1h-0.3v-1
		c0-0.3-0.1-0.5-0.4-0.5c-0.2,0-0.4,0.2-0.4,0.3c0,0,0,0.1,0,0.2v1.1h-0.3V114.1z"/>
	<path class="st1" d="M20.1,112.7v2.2c0,0.2,0,0.3,0,0.5h-0.3l0-0.3h0c-0.1,0.2-0.3,0.4-0.6,0.4c-0.4,0-0.8-0.4-0.8-0.9
		c0-0.6,0.4-1,0.8-1c0.3,0,0.5,0.1,0.5,0.3h0v-1.1H20.1z M19.7,114.3c0,0,0-0.1,0-0.1c0-0.2-0.2-0.4-0.5-0.4c-0.3,0-0.5,0.3-0.5,0.7
		c0,0.4,0.2,0.7,0.5,0.7c0.2,0,0.4-0.1,0.5-0.4c0,0,0-0.1,0-0.1V114.3z"/>
	<path class="st1" d="M21.8,114.6l-0.3,0.8h-0.3l0.9-2.5h0.4l0.9,2.5H23l-0.3-0.8H21.8z M22.7,114.4l-0.2-0.7
		c-0.1-0.2-0.1-0.3-0.1-0.5h0c0,0.2-0.1,0.3-0.1,0.5l-0.2,0.7H22.7z"/>
	<path class="st1" d="M23.7,114.1c0-0.2,0-0.3,0-0.5H24l0,0.3h0c0.1-0.2,0.3-0.3,0.6-0.3c0.2,0,0.4,0.2,0.5,0.4h0
		c0.1-0.1,0.1-0.2,0.2-0.2c0.1-0.1,0.2-0.1,0.4-0.1c0.2,0,0.6,0.2,0.6,0.8v1.1H26v-1c0-0.3-0.1-0.6-0.4-0.6c-0.2,0-0.3,0.1-0.4,0.3
		c0,0,0,0.1,0,0.2v1.1h-0.3v-1.1c0-0.3-0.1-0.5-0.4-0.5c-0.2,0-0.4,0.2-0.4,0.3c0,0,0,0.1,0,0.2v1.1h-0.3V114.1z"/>
	<path class="st1" d="M26.8,115.4c0-0.1,0-0.3,0-0.5v-2.2h0.3v1.1h0c0.1-0.2,0.3-0.3,0.6-0.3c0.5,0,0.8,0.4,0.8,0.9
		c0,0.6-0.4,1-0.8,1c-0.3,0-0.5-0.1-0.6-0.3h0l0,0.3H26.8z M27.2,114.7c0,0,0,0.1,0,0.1c0.1,0.2,0.3,0.4,0.5,0.4
		c0.3,0,0.6-0.3,0.6-0.7c0-0.4-0.2-0.7-0.5-0.7c-0.2,0-0.4,0.2-0.5,0.4c0,0,0,0.1,0,0.1V114.7z"/>
	<path class="st1" d="M28.8,115.2c0-0.1,0.1-0.2,0.2-0.2s0.2,0.1,0.2,0.2c0,0.1-0.1,0.2-0.2,0.2C28.9,115.4,28.8,115.3,28.8,115.2z"
		/>
</g>
<polyline class="st0" points="42,111.3 42,106.6 30.7,106.6 "/>
<polyline class="st0" points="19.7,111.3 19.7,106.6 30.7,106.6 30.7,102 "/>
<circle id="full_circle_00000068651769485831989950000012400370258656182660_" class="st0" cx="103.4" cy="103.4" r="102.9"/>
<g>
	<path class="st1" d="M91,100.1h0.8v4c0,1.6-0.8,2.1-1.8,2.1c-0.3,0-0.6-0.1-0.8-0.1l0.1-0.6c0.2,0.1,0.4,0.1,0.6,0.1
		c0.7,0,1.1-0.3,1.1-1.5V100.1z"/>
	<path class="st1" d="M98.2,103c0,2.1-1.3,3.2-2.8,3.2c-1.6,0-2.7-1.2-2.7-3c0-1.9,1.2-3.1,2.8-3.1C97.1,100,98.2,101.2,98.2,103z
		 M93.5,103.1c0,1.3,0.7,2.4,1.9,2.4c1.2,0,1.9-1.1,1.9-2.5c0-1.2-0.6-2.4-1.9-2.4C94.2,100.6,93.5,101.8,93.5,103.1z"/>
	<path class="st1" d="M99.1,105.1c0.3,0.2,0.9,0.4,1.4,0.4c0.8,0,1.3-0.4,1.3-1c0-0.6-0.3-0.9-1.1-1.2c-1-0.3-1.6-0.9-1.6-1.7
		c0-0.9,0.8-1.6,1.9-1.6c0.6,0,1.1,0.1,1.3,0.3l-0.2,0.6c-0.2-0.1-0.6-0.3-1.1-0.3c-0.8,0-1.1,0.5-1.1,0.9c0,0.6,0.4,0.8,1.2,1.2
		c1,0.4,1.5,0.9,1.5,1.8c0,0.9-0.7,1.7-2.1,1.7c-0.6,0-1.2-0.2-1.5-0.4L99.1,105.1z"/>
	<path class="st1" d="M106.7,103.2h-2.3v2.2h2.6v0.6h-3.4v-6h3.2v0.6h-2.5v1.9h2.3V103.2z"/>
	<path class="st1" d="M107.9,100.1c0.4-0.1,0.9-0.1,1.5-0.1c0.8,0,1.3,0.2,1.7,0.5c0.3,0.3,0.5,0.7,0.5,1.3c0,0.5-0.2,1-0.5,1.3
		c-0.4,0.4-1.1,0.7-1.8,0.7c-0.2,0-0.4,0-0.6-0.1v2.4h-0.8V100.1z M108.7,103c0.2,0,0.4,0.1,0.6,0.1c0.9,0,1.5-0.5,1.5-1.3
		c0-0.8-0.6-1.2-1.4-1.2c-0.3,0-0.6,0-0.7,0.1V103z"/>
	<path class="st1" d="M113.4,100.1v2.5h2.9v-2.5h0.8v6h-0.8v-2.8h-2.9v2.8h-0.8v-6H113.4z"/>
</g>
<circle class="st0" cx="103.4" cy="103.4" r="43.7"/>
</svg>
