<?xml version="1.0" encoding="utf-8"?>
<!-- Generator: Adobe Illustrator 28.2.0, SVG Export Plug-In . SVG Version: 6.00 Build 0)  -->
<svg version="1.1" id="Layer_1" xmlns="http://www.w3.org/2000/svg" xmlns:xlink="http://www.w3.org/1999/xlink" x="0px" y="0px"
	 viewBox="0 0 152 22.5" style="enable-background:new 0 0 152 22.5;" xml:space="preserve">
<g>
	<path d="M0,17.5v-2.6l4.7-5.4C5.4,8.7,6,8.1,6.4,7.7c-0.4,0-0.9,0-1.5,0l-4.4,0V5h10.3v2.3L6,12.8l-1.7,1.8
		c0.9-0.1,1.5-0.1,1.7-0.1h5.1v2.9H0z"/>
	<path d="M13.3,0.3h6.3c1.4,0,2.5,0.1,3.3,0.3c1,0.3,1.9,0.8,2.6,1.6s1.3,1.7,1.6,2.8s0.6,2.5,0.6,4.1c0,1.4-0.2,2.6-0.5,3.7
		c-0.4,1.2-1,2.3-1.8,3c-0.6,0.6-1.4,1-2.4,1.4c-0.8,0.2-1.8,0.4-3.1,0.4h-6.5V0.3z M16.8,3.2v11.4h2.6c1,0,1.7-0.1,2.1-0.2
		c0.6-0.1,1-0.4,1.4-0.7s0.7-0.9,0.9-1.7s0.4-1.8,0.4-3.1S24,6.5,23.8,5.8s-0.6-1.3-1-1.7s-1-0.7-1.6-0.8c-0.5-0.1-1.4-0.2-2.8-0.2
		H16.8z"/>
	<path d="M33.1,8.8l-3-0.5c0.3-1.2,0.9-2.1,1.7-2.7s2-0.9,3.7-0.9c1.5,0,2.6,0.2,3.3,0.5s1.2,0.8,1.5,1.3s0.4,1.5,0.4,2.9l0,3.8
		c0,1.1,0.1,1.9,0.2,2.4s0.3,1.1,0.6,1.7h-3.3c-0.1-0.2-0.2-0.5-0.3-1c-0.1-0.2-0.1-0.3-0.1-0.4c-0.6,0.5-1.2,1-1.8,1.2
		s-1.3,0.4-2.1,0.4c-1.3,0-2.3-0.3-3-1s-1.1-1.6-1.1-2.6c0-0.7,0.2-1.3,0.5-1.9s0.8-1,1.4-1.3s1.5-0.5,2.6-0.8
		c1.5-0.3,2.6-0.6,3.2-0.8V9c0-0.6-0.2-1.1-0.5-1.4s-0.9-0.4-1.8-0.4c-0.6,0-1,0.1-1.4,0.3S33.3,8.2,33.1,8.8z M37.5,11.5
		c-0.4,0.1-1.1,0.3-2,0.5s-1.5,0.4-1.8,0.6c-0.4,0.3-0.6,0.7-0.6,1.2c0,0.5,0.2,0.9,0.5,1.2s0.8,0.5,1.3,0.5c0.6,0,1.2-0.2,1.7-0.6
		c0.4-0.3,0.7-0.7,0.8-1.1c0.1-0.3,0.1-0.8,0.1-1.6V11.5z"/>
	<path d="M49.7,5v2.6h-2.2v5c0,1,0,1.6,0.1,1.8s0.1,0.3,0.3,0.4s0.3,0.2,0.6,0.2c0.3,0,0.7-0.1,1.3-0.3l0.3,2.6
		c-0.8,0.3-1.6,0.5-2.6,0.5c-0.6,0-1.1-0.1-1.6-0.3s-0.8-0.5-1-0.8s-0.4-0.7-0.5-1.3c-0.1-0.4-0.1-1.2-0.1-2.3V7.7h-1.5V5h1.5V2.6
		l3.3-1.9V5H49.7z"/>
	<path d="M54.5,8.8l-3-0.5c0.3-1.2,0.9-2.1,1.7-2.7s2-0.9,3.7-0.9c1.5,0,2.6,0.2,3.3,0.5s1.2,0.8,1.5,1.3s0.4,1.5,0.4,2.9l0,3.8
		c0,1.1,0.1,1.9,0.2,2.4s0.3,1.1,0.6,1.7h-3.3c-0.1-0.2-0.2-0.5-0.3-1c-0.1-0.2-0.1-0.3-0.1-0.4c-0.6,0.5-1.2,1-1.8,1.2
		s-1.3,0.4-2.1,0.4c-1.3,0-2.3-0.3-3-1s-1.1-1.6-1.1-2.6c0-0.7,0.2-1.3,0.5-1.9s0.8-1,1.4-1.3s1.5-0.5,2.6-0.8
		c1.5-0.3,2.6-0.6,3.2-0.8V9c0-0.6-0.2-1.1-0.5-1.4s-0.9-0.4-1.8-0.4c-0.6,0-1,0.1-1.4,0.3S54.7,8.2,54.5,8.8z M58.9,11.5
		c-0.4,0.1-1.1,0.3-2,0.5s-1.5,0.4-1.8,0.6c-0.4,0.3-0.6,0.7-0.6,1.2c0,0.5,0.2,0.9,0.5,1.2s0.8,0.5,1.3,0.5c0.6,0,1.2-0.2,1.7-0.6
		c0.4-0.3,0.7-0.7,0.8-1.1c0.1-0.3,0.1-0.8,0.1-1.6V11.5z"/>
	<path d="M64.5,11.9l3.4-0.3c0.2,1.1,0.6,2,1.2,2.5s1.5,0.8,2.5,0.8c1.1,0,2-0.2,2.5-0.7s0.8-1,0.8-1.7c0-0.4-0.1-0.8-0.4-1
		s-0.7-0.5-1.2-0.7c-0.4-0.1-1.3-0.4-2.8-0.8c-1.9-0.5-3.2-1-3.9-1.7c-1.1-0.9-1.6-2.1-1.6-3.5c0-0.9,0.2-1.7,0.7-2.5S67.1,1,68,0.6
		S70.1,0,71.4,0c2.2,0,3.8,0.5,4.9,1.4s1.7,2.2,1.7,3.8l-3.5,0.2c-0.1-0.9-0.5-1.5-1-1.9s-1.2-0.6-2.2-0.6c-1,0-1.8,0.2-2.4,0.6
		c-0.4,0.3-0.6,0.6-0.6,1.1c0,0.4,0.2,0.8,0.5,1c0.4,0.4,1.5,0.8,3.2,1.1s2.9,0.8,3.7,1.2s1.4,1,1.9,1.7s0.7,1.7,0.7,2.7
		c0,1-0.3,1.9-0.8,2.8s-1.3,1.5-2.3,1.9s-2.2,0.6-3.7,0.6c-2.2,0-3.8-0.5-5-1.5S64.7,13.8,64.5,11.9z"/>
	<path d="M87.1,5v2.6h-2.2v5c0,1,0,1.6,0.1,1.8s0.1,0.3,0.3,0.4s0.3,0.2,0.6,0.2c0.3,0,0.7-0.1,1.3-0.3l0.3,2.6
		c-0.8,0.3-1.6,0.5-2.6,0.5c-0.6,0-1.1-0.1-1.6-0.3s-0.8-0.5-1-0.8s-0.4-0.7-0.5-1.3c-0.1-0.4-0.1-1.2-0.1-2.3V7.7H80V5h1.5V2.6
		l3.3-1.9V5H87.1z"/>
	<path d="M88.6,11.1c0-1.1,0.3-2.2,0.8-3.2s1.3-1.8,2.3-2.3s2.1-0.8,3.3-0.8c1.9,0,3.4,0.6,4.6,1.8s1.8,2.8,1.8,4.6
		c0,1.9-0.6,3.4-1.8,4.7s-2.7,1.9-4.6,1.9c-1.1,0-2.2-0.3-3.3-0.8s-1.8-1.3-2.4-2.3S88.6,12.5,88.6,11.1z M92,11.2
		c0,1.2,0.3,2.2,0.9,2.8s1.3,1,2.2,1s1.6-0.3,2.2-1s0.9-1.6,0.9-2.9c0-1.2-0.3-2.2-0.9-2.8s-1.3-1-2.2-1s-1.6,0.3-2.2,1
		S92,10,92,11.2z"/>
	<path d="M107.2,17.5h-3.3V5h3.1v1.8c0.5-0.8,1-1.4,1.4-1.7s0.9-0.4,1.4-0.4c0.8,0,1.5,0.2,2.2,0.6l-1,2.9c-0.6-0.4-1.1-0.5-1.5-0.5
		c-0.5,0-0.9,0.1-1.2,0.4s-0.6,0.7-0.8,1.4s-0.3,2.1-0.3,4.2V17.5z"/>
	<path d="M115.8,8.8l-3-0.5c0.3-1.2,0.9-2.1,1.7-2.7s2-0.9,3.7-0.9c1.5,0,2.6,0.2,3.3,0.5s1.2,0.8,1.5,1.3s0.4,1.5,0.4,2.9l0,3.8
		c0,1.1,0.1,1.9,0.2,2.4s0.3,1.1,0.6,1.7h-3.3c-0.1-0.2-0.2-0.5-0.3-1c-0.1-0.2-0.1-0.3-0.1-0.4c-0.6,0.5-1.2,1-1.8,1.2
		s-1.3,0.4-2.1,0.4c-1.3,0-2.3-0.3-3-1c-0.7-0.7-1.1-1.6-1.1-2.6c0-0.7,0.2-1.3,0.5-1.9c0.3-0.6,0.8-1,1.4-1.3s1.5-0.5,2.6-0.8
		c1.5-0.3,2.6-0.6,3.2-0.8V9c0-0.6-0.2-1.1-0.5-1.4s-0.9-0.4-1.8-0.4c-0.6,0-1,0.1-1.4,0.3S116,8.2,115.8,8.8z M120.2,11.5
		c-0.4,0.1-1.1,0.3-2,0.5s-1.5,0.4-1.8,0.6c-0.4,0.3-0.6,0.7-0.6,1.2c0,0.5,0.2,0.9,0.5,1.2s0.8,0.5,1.3,0.5c0.6,0,1.2-0.2,1.7-0.6
		c0.4-0.3,0.7-0.7,0.8-1.1c0.1-0.3,0.1-0.8,0.1-1.6V11.5z"/>
	<path d="M126.4,18.3l3.8,0.5c0.1,0.4,0.2,0.7,0.4,0.9c0.3,0.2,0.8,0.4,1.5,0.4c0.9,0,1.5-0.1,1.9-0.4c0.3-0.2,0.5-0.4,0.7-0.8
		c0.1-0.3,0.2-0.8,0.2-1.5v-1.8c-1,1.3-2.2,2-3.7,2c-1.7,0-3-0.7-4-2.1c-0.8-1.1-1.1-2.5-1.1-4.2c0-2.1,0.5-3.7,1.5-4.8
		s2.3-1.7,3.7-1.7c1.5,0,2.8,0.7,3.8,2V5h3.1v11.2c0,1.5-0.1,2.6-0.4,3.3s-0.6,1.3-1,1.7s-1,0.7-1.8,1s-1.7,0.4-2.8,0.4
		c-2.1,0-3.6-0.4-4.5-1.1s-1.3-1.6-1.3-2.7C126.4,18.6,126.4,18.4,126.4,18.3z M129.3,11c0,1.3,0.3,2.3,0.8,2.9s1.1,0.9,1.9,0.9
		c0.8,0,1.5-0.3,2-0.9s0.8-1.6,0.8-2.8c0-1.3-0.3-2.2-0.8-2.9s-1.2-0.9-2-0.9c-0.8,0-1.4,0.3-2,0.9S129.3,9.7,129.3,11z"/>
	<path d="M148.6,13.5l3.3,0.6c-0.4,1.2-1.1,2.1-2,2.7s-2,0.9-3.4,0.9c-2.2,0-3.8-0.7-4.8-2.1c-0.8-1.1-1.2-2.6-1.2-4.3
		c0-2.1,0.5-3.7,1.6-4.8s2.4-1.8,4.1-1.8c1.9,0,3.3,0.6,4.4,1.8s1.6,3.1,1.5,5.6h-8.2c0,1,0.3,1.7,0.8,2.3s1.1,0.8,1.9,0.8
		c0.5,0,0.9-0.1,1.3-0.4S148.4,14.1,148.6,13.5z M148.7,10.2c0-1-0.3-1.7-0.7-2.2s-1-0.7-1.7-0.7c-0.7,0-1.3,0.3-1.8,0.8
		s-0.7,1.2-0.7,2.1H148.7z"/>
</g>
</svg>
